G75*
%MOIN*%
%OFA0B0*%
%FSLAX25Y25*%
%IPPOS*%
%LPD*%
%AMOC8*
5,1,8,0,0,1.08239X$1,22.5*
%
%ADD10C,0.00800*%
%ADD11C,0.00600*%
%ADD12C,0.00500*%
%ADD13C,0.00700*%
%ADD14C,0.01600*%
%ADD15C,0.00000*%
D10*
X0046257Y0119922D02*
X0046257Y0121456D01*
X0040118Y0127595D01*
X0040118Y0129130D01*
X0046257Y0129130D01*
X0052396Y0129130D02*
X0052396Y0119922D01*
X0055465Y0119922D02*
X0049326Y0119922D01*
X0055465Y0126060D02*
X0052396Y0129130D01*
X0058534Y0127595D02*
X0064673Y0121456D01*
X0063138Y0119922D01*
X0060069Y0119922D01*
X0058534Y0121456D01*
X0058534Y0127595D01*
X0060069Y0129130D01*
X0063138Y0129130D01*
X0064673Y0127595D01*
X0064673Y0121456D01*
X0067742Y0119922D02*
X0073881Y0119922D01*
X0067742Y0126060D01*
X0067742Y0127595D01*
X0069277Y0129130D01*
X0072346Y0129130D01*
X0073881Y0127595D01*
X0088339Y0156301D02*
X0088339Y0165509D01*
X0083735Y0165509D01*
X0082200Y0163974D01*
X0082200Y0160905D01*
X0083735Y0159370D01*
X0088339Y0159370D01*
X0091408Y0160905D02*
X0091408Y0163974D01*
X0092943Y0165509D01*
X0096012Y0165509D01*
X0097547Y0163974D01*
X0097547Y0160905D01*
X0096012Y0159370D01*
X0092943Y0159370D01*
X0091408Y0160905D01*
X0100616Y0159370D02*
X0100616Y0168578D01*
X0100616Y0163974D02*
X0106755Y0163974D01*
X0106755Y0159370D02*
X0106755Y0168578D01*
X0079131Y0168578D02*
X0079131Y0159370D01*
X0079131Y0162440D02*
X0074527Y0165509D01*
X0071458Y0165509D02*
X0069923Y0165509D01*
X0069923Y0159370D01*
X0071458Y0159370D02*
X0068388Y0159370D01*
X0065319Y0159370D02*
X0065319Y0165509D01*
X0060715Y0165509D01*
X0059181Y0163974D01*
X0059181Y0159370D01*
X0056111Y0159370D02*
X0051507Y0159370D01*
X0049973Y0160905D01*
X0051507Y0162440D01*
X0054577Y0162440D01*
X0056111Y0163974D01*
X0054577Y0165509D01*
X0049973Y0165509D01*
X0037696Y0163974D02*
X0031557Y0163974D01*
X0028488Y0165509D02*
X0025418Y0165509D01*
X0026953Y0167044D02*
X0026953Y0160905D01*
X0025418Y0159370D01*
X0022349Y0159370D02*
X0022349Y0168578D01*
X0020815Y0165509D02*
X0017745Y0165509D01*
X0016211Y0163974D01*
X0016211Y0159370D01*
X0022349Y0163974D02*
X0020815Y0165509D01*
X0033092Y0168578D02*
X0033092Y0159370D01*
X0037696Y0163974D02*
X0033092Y0168578D01*
X0069923Y0168578D02*
X0069923Y0170113D01*
X0074527Y0159370D02*
X0079131Y0162440D01*
X0161505Y0206431D02*
X0166005Y0206431D01*
X0166005Y0208931D01*
X0167005Y0208931D01*
X0167005Y0206931D01*
X0166005Y0206431D02*
X0171505Y0206431D01*
X0171505Y0210931D01*
X0169005Y0213431D01*
X0166505Y0210931D01*
X0161505Y0210931D01*
X0161505Y0206431D01*
X0161505Y0210931D02*
X0161505Y0215431D01*
X0162005Y0215431D01*
X0162005Y0213931D01*
X0171505Y0213931D01*
X0171505Y0210931D01*
D11*
X0169174Y0202473D02*
X0169174Y0198070D01*
X0170842Y0198070D02*
X0173777Y0198070D01*
X0170842Y0201006D01*
X0173777Y0201006D01*
X0176113Y0202473D02*
X0176113Y0198070D01*
X0176847Y0198070D02*
X0175379Y0198070D01*
X0178515Y0198070D02*
X0178515Y0200272D01*
X0179249Y0201006D01*
X0180717Y0201006D01*
X0180717Y0199538D02*
X0178515Y0199538D01*
X0178515Y0198070D02*
X0180717Y0198070D01*
X0181451Y0198804D01*
X0180717Y0199538D01*
X0183119Y0200272D02*
X0183119Y0198070D01*
X0184587Y0198070D02*
X0184587Y0200272D01*
X0183853Y0201006D01*
X0183119Y0200272D01*
X0184587Y0200272D02*
X0185321Y0201006D01*
X0186055Y0201006D01*
X0186055Y0198070D01*
X0187723Y0198070D02*
X0187723Y0200272D01*
X0188457Y0201006D01*
X0189925Y0201006D01*
X0190659Y0200272D01*
X0192327Y0201006D02*
X0194528Y0201006D01*
X0195262Y0200272D01*
X0195262Y0198804D01*
X0194528Y0198070D01*
X0192327Y0198070D01*
X0190659Y0198070D02*
X0190659Y0202473D01*
X0196931Y0201739D02*
X0197664Y0202473D01*
X0199132Y0202473D01*
X0199866Y0201739D01*
X0199866Y0201006D01*
X0199132Y0200272D01*
X0197664Y0200272D01*
X0196931Y0199538D01*
X0196931Y0198804D01*
X0197664Y0198070D01*
X0199132Y0198070D01*
X0199866Y0198804D01*
X0176847Y0202473D02*
X0176113Y0202473D01*
X0169174Y0200272D02*
X0166238Y0200272D01*
X0166238Y0202473D02*
X0166238Y0198070D01*
X0164570Y0198804D02*
X0163836Y0199538D01*
X0161634Y0199538D01*
X0161634Y0200272D02*
X0161634Y0198070D01*
X0163836Y0198070D01*
X0164570Y0198804D01*
X0163836Y0201006D02*
X0162368Y0201006D01*
X0161634Y0200272D01*
X0159966Y0201006D02*
X0159966Y0198804D01*
X0159232Y0198070D01*
X0157030Y0198070D01*
X0157030Y0201006D01*
X0155362Y0200272D02*
X0154628Y0201006D01*
X0152426Y0201006D01*
X0153160Y0199538D02*
X0152426Y0198804D01*
X0153160Y0198070D01*
X0155362Y0198070D01*
X0154628Y0199538D02*
X0155362Y0200272D01*
X0154628Y0199538D02*
X0153160Y0199538D01*
X0146154Y0198070D02*
X0143218Y0198070D01*
X0141550Y0198070D02*
X0141550Y0202473D01*
X0141550Y0198070D02*
X0138614Y0198070D01*
X0136946Y0198804D02*
X0136212Y0198070D01*
X0134744Y0198070D01*
X0134010Y0198804D01*
X0134010Y0201739D02*
X0134744Y0202473D01*
X0136212Y0202473D01*
X0136946Y0201739D01*
X0136946Y0198804D01*
X0146154Y0198070D02*
X0146154Y0202473D01*
X0117170Y0153944D02*
X0117170Y0147538D01*
X0112899Y0147538D01*
X0110724Y0148606D02*
X0110724Y0150741D01*
X0109656Y0151808D01*
X0107521Y0151808D01*
X0106454Y0150741D01*
X0106454Y0149673D01*
X0110724Y0149673D01*
X0110724Y0148606D02*
X0109656Y0147538D01*
X0107521Y0147538D01*
X0104279Y0148606D02*
X0103211Y0149673D01*
X0100008Y0149673D01*
X0100008Y0150741D02*
X0100008Y0147538D01*
X0103211Y0147538D01*
X0104279Y0148606D01*
X0103211Y0151808D02*
X0101076Y0151808D01*
X0100008Y0150741D01*
X0097833Y0151808D02*
X0097833Y0147538D01*
X0097833Y0149673D02*
X0095698Y0151808D01*
X0094630Y0151808D01*
X0092462Y0151808D02*
X0089259Y0151808D01*
X0088191Y0150741D01*
X0088191Y0147538D01*
X0092462Y0147538D02*
X0092462Y0151808D01*
X0079571Y0153944D02*
X0075300Y0153944D01*
X0077436Y0153944D02*
X0077436Y0147538D01*
X0073125Y0148606D02*
X0073125Y0150741D01*
X0072058Y0151808D01*
X0069923Y0151808D01*
X0068855Y0150741D01*
X0068855Y0148606D01*
X0069923Y0147538D01*
X0072058Y0147538D01*
X0073125Y0148606D01*
X0060234Y0148606D02*
X0059167Y0147538D01*
X0057032Y0147538D01*
X0055964Y0148606D01*
X0055964Y0149673D01*
X0057032Y0150741D01*
X0059167Y0150741D01*
X0060234Y0151808D01*
X0060234Y0152876D01*
X0059167Y0153944D01*
X0057032Y0153944D01*
X0055964Y0152876D01*
X0053789Y0150741D02*
X0053789Y0148606D01*
X0052721Y0147538D01*
X0050586Y0147538D01*
X0049518Y0148606D01*
X0049518Y0150741D01*
X0050586Y0151808D01*
X0052721Y0151808D01*
X0053789Y0150741D01*
X0047343Y0153944D02*
X0046276Y0153944D01*
X0046276Y0147538D01*
X0047343Y0147538D02*
X0045208Y0147538D01*
X0043046Y0148606D02*
X0043046Y0150741D01*
X0041979Y0151808D01*
X0038776Y0151808D01*
X0038776Y0153944D02*
X0038776Y0147538D01*
X0041979Y0147538D01*
X0043046Y0148606D01*
X0036601Y0148606D02*
X0035533Y0147538D01*
X0033398Y0147538D01*
X0032330Y0149673D02*
X0036601Y0149673D01*
X0036601Y0148606D02*
X0036601Y0150741D01*
X0035533Y0151808D01*
X0033398Y0151808D01*
X0032330Y0150741D01*
X0032330Y0149673D01*
X0030155Y0149673D02*
X0028020Y0151808D01*
X0026953Y0151808D01*
X0030155Y0151808D02*
X0030155Y0147538D01*
X0018339Y0147538D02*
X0018339Y0153944D01*
X0017271Y0150741D02*
X0014068Y0147538D01*
X0011893Y0147538D02*
X0009758Y0147538D01*
X0010825Y0147538D02*
X0010825Y0151808D01*
X0011893Y0151808D01*
X0010825Y0153944D02*
X0010825Y0155011D01*
X0007596Y0151808D02*
X0005461Y0151808D01*
X0006528Y0152876D02*
X0006528Y0148606D01*
X0005461Y0147538D01*
X0014068Y0153944D02*
X0018339Y0149673D01*
D12*
X0087164Y0019435D02*
X0089833Y0019435D01*
X0087164Y0022104D01*
X0089833Y0022104D01*
X0091929Y0023438D02*
X0091929Y0019435D01*
X0092596Y0019435D02*
X0091261Y0019435D01*
X0094070Y0019435D02*
X0094070Y0021437D01*
X0094738Y0022104D01*
X0096072Y0022104D01*
X0096072Y0020770D02*
X0094070Y0020770D01*
X0094070Y0019435D02*
X0096072Y0019435D01*
X0096739Y0020102D01*
X0096072Y0020770D01*
X0098214Y0021437D02*
X0098214Y0019435D01*
X0099548Y0019435D02*
X0099548Y0021437D01*
X0098881Y0022104D01*
X0098214Y0021437D01*
X0099548Y0021437D02*
X0100216Y0022104D01*
X0100883Y0022104D01*
X0100883Y0019435D01*
X0102357Y0019435D02*
X0102357Y0021437D01*
X0103025Y0022104D01*
X0104359Y0022104D01*
X0105026Y0021437D01*
X0106501Y0022104D02*
X0108503Y0022104D01*
X0109170Y0021437D01*
X0109170Y0020102D01*
X0108503Y0019435D01*
X0106501Y0019435D01*
X0105026Y0019435D02*
X0105026Y0023438D01*
X0110645Y0022771D02*
X0111312Y0023438D01*
X0112646Y0023438D01*
X0113313Y0022771D01*
X0113313Y0022104D01*
X0112646Y0021437D01*
X0111312Y0021437D01*
X0110645Y0020770D01*
X0110645Y0020102D01*
X0111312Y0019435D01*
X0112646Y0019435D01*
X0113313Y0020102D01*
X0112646Y0015354D02*
X0111312Y0015354D01*
X0110645Y0014687D01*
X0110645Y0013352D01*
X0111312Y0012685D01*
X0112646Y0012685D01*
X0113313Y0013352D01*
X0113313Y0014687D01*
X0112646Y0015354D01*
X0114788Y0015354D02*
X0116790Y0015354D01*
X0117457Y0014687D01*
X0117457Y0013352D01*
X0116790Y0012685D01*
X0114788Y0012685D01*
X0118862Y0012685D02*
X0119529Y0012685D01*
X0119529Y0013352D01*
X0118862Y0013352D01*
X0118862Y0012685D01*
X0121003Y0013352D02*
X0121671Y0014020D01*
X0123005Y0014020D01*
X0123672Y0014687D01*
X0123005Y0015354D01*
X0121003Y0015354D01*
X0121003Y0013352D02*
X0121671Y0012685D01*
X0123672Y0012685D01*
X0125147Y0012685D02*
X0125147Y0015354D01*
X0127816Y0015354D02*
X0127816Y0013352D01*
X0127149Y0012685D01*
X0125147Y0012685D01*
X0129290Y0012685D02*
X0131292Y0012685D01*
X0131959Y0013352D01*
X0131292Y0014020D01*
X0129290Y0014020D01*
X0129290Y0014687D02*
X0129290Y0012685D01*
X0129290Y0014687D02*
X0129958Y0015354D01*
X0131292Y0015354D01*
X0133434Y0014687D02*
X0133434Y0012685D01*
X0133434Y0014687D02*
X0134101Y0015354D01*
X0135436Y0015354D01*
X0136103Y0014687D01*
X0137578Y0015354D02*
X0140246Y0012685D01*
X0137578Y0012685D01*
X0136103Y0012685D02*
X0136103Y0016688D01*
X0137578Y0015354D02*
X0140246Y0015354D01*
X0142342Y0016688D02*
X0142342Y0012685D01*
X0143009Y0012685D02*
X0141674Y0012685D01*
X0144483Y0012685D02*
X0144483Y0014687D01*
X0145151Y0015354D01*
X0146485Y0015354D01*
X0146485Y0014020D02*
X0144483Y0014020D01*
X0144483Y0012685D02*
X0146485Y0012685D01*
X0147152Y0013352D01*
X0146485Y0014020D01*
X0148627Y0014687D02*
X0148627Y0012685D01*
X0149961Y0012685D02*
X0149961Y0014687D01*
X0149294Y0015354D01*
X0148627Y0014687D01*
X0149961Y0014687D02*
X0150629Y0015354D01*
X0151296Y0015354D01*
X0151296Y0012685D01*
X0152770Y0012685D02*
X0152770Y0014687D01*
X0153438Y0015354D01*
X0154772Y0015354D01*
X0155439Y0014687D01*
X0156914Y0015354D02*
X0158916Y0015354D01*
X0159583Y0014687D01*
X0159583Y0013352D01*
X0158916Y0012685D01*
X0156914Y0012685D01*
X0155439Y0012685D02*
X0155439Y0016688D01*
X0154819Y0019435D02*
X0154152Y0020102D01*
X0154152Y0021437D01*
X0154819Y0022104D01*
X0156821Y0022104D01*
X0156821Y0023438D02*
X0156821Y0019435D01*
X0154819Y0019435D01*
X0152677Y0020102D02*
X0152010Y0019435D01*
X0150008Y0019435D01*
X0150008Y0018768D02*
X0150675Y0018101D01*
X0151343Y0018101D01*
X0150008Y0018768D02*
X0150008Y0022104D01*
X0148534Y0022104D02*
X0148534Y0021437D01*
X0147866Y0021437D01*
X0147866Y0022104D01*
X0148534Y0022104D01*
X0148534Y0020102D02*
X0148534Y0019435D01*
X0147866Y0019435D01*
X0147866Y0020102D01*
X0148534Y0020102D01*
X0152677Y0020102D02*
X0152677Y0022104D01*
X0162439Y0022104D02*
X0164440Y0022104D01*
X0165108Y0021437D01*
X0165108Y0020102D01*
X0164440Y0019435D01*
X0162439Y0019435D01*
X0162439Y0023438D01*
X0166582Y0021437D02*
X0166582Y0020770D01*
X0169251Y0020770D01*
X0169251Y0021437D02*
X0168584Y0022104D01*
X0167250Y0022104D01*
X0166582Y0021437D01*
X0167250Y0019435D02*
X0168584Y0019435D01*
X0169251Y0020102D01*
X0169251Y0021437D01*
X0170726Y0022104D02*
X0172728Y0022104D01*
X0173395Y0021437D01*
X0173395Y0020102D01*
X0172728Y0019435D01*
X0170726Y0019435D01*
X0170726Y0018768D02*
X0170726Y0022104D01*
X0170726Y0018768D02*
X0171393Y0018101D01*
X0172060Y0018101D01*
X0171346Y0015354D02*
X0170012Y0015354D01*
X0169345Y0014687D01*
X0169345Y0012685D01*
X0171346Y0012685D01*
X0172014Y0013352D01*
X0171346Y0014020D01*
X0169345Y0014020D01*
X0167870Y0013352D02*
X0167870Y0016021D01*
X0167203Y0016688D01*
X0165868Y0016688D01*
X0165201Y0016021D01*
X0165201Y0014687D01*
X0165868Y0014020D01*
X0165868Y0015354D01*
X0167203Y0015354D01*
X0167203Y0014020D01*
X0165868Y0014020D01*
X0165201Y0013352D02*
X0165868Y0012685D01*
X0167203Y0012685D01*
X0167870Y0013352D01*
X0163727Y0012685D02*
X0161725Y0012685D01*
X0161058Y0013352D01*
X0161725Y0014020D01*
X0163059Y0014020D01*
X0163727Y0014687D01*
X0163059Y0015354D01*
X0161058Y0015354D01*
X0173488Y0014687D02*
X0173488Y0012685D01*
X0173488Y0014687D02*
X0174155Y0015354D01*
X0176157Y0015354D01*
X0176157Y0012685D01*
X0177632Y0012685D02*
X0177632Y0014687D01*
X0178299Y0015354D01*
X0180301Y0015354D01*
X0180301Y0012685D01*
X0181775Y0012685D02*
X0183777Y0012685D01*
X0184444Y0013352D01*
X0183777Y0014020D01*
X0181775Y0014020D01*
X0181775Y0014687D02*
X0181775Y0012685D01*
X0181775Y0014687D02*
X0182443Y0015354D01*
X0183777Y0015354D01*
X0185919Y0014687D02*
X0185919Y0014020D01*
X0188588Y0014020D01*
X0188588Y0014687D02*
X0188588Y0013352D01*
X0187921Y0012685D01*
X0186586Y0012685D01*
X0185919Y0014687D02*
X0186586Y0015354D01*
X0187921Y0015354D01*
X0188588Y0014687D01*
X0190062Y0015354D02*
X0192064Y0015354D01*
X0192731Y0014687D01*
X0192731Y0013352D01*
X0192064Y0012685D01*
X0190062Y0012685D01*
X0190062Y0016688D01*
X0190730Y0019435D02*
X0190062Y0020102D01*
X0190062Y0022771D01*
X0190730Y0023438D01*
X0192731Y0023438D01*
X0192731Y0019435D01*
X0190730Y0019435D01*
X0188588Y0020102D02*
X0188588Y0021437D01*
X0187921Y0022104D01*
X0186586Y0022104D01*
X0185919Y0021437D01*
X0185919Y0020770D01*
X0188588Y0020770D01*
X0188588Y0020102D02*
X0187921Y0019435D01*
X0186586Y0019435D01*
X0184444Y0019435D02*
X0182443Y0019435D01*
X0181775Y0020102D01*
X0182443Y0020770D01*
X0183777Y0020770D01*
X0184444Y0021437D01*
X0183777Y0022104D01*
X0181775Y0022104D01*
X0180301Y0022104D02*
X0179633Y0022104D01*
X0179633Y0019435D01*
X0178966Y0019435D02*
X0180301Y0019435D01*
X0177538Y0019435D02*
X0177538Y0022104D01*
X0175537Y0022104D01*
X0174869Y0021437D01*
X0174869Y0019435D01*
X0179633Y0023438D02*
X0179633Y0024106D01*
X0142318Y0023438D02*
X0142318Y0019435D01*
X0140317Y0019435D01*
X0139649Y0020102D01*
X0139649Y0022771D01*
X0140317Y0023438D01*
X0142318Y0023438D01*
X0138175Y0021437D02*
X0138175Y0020102D01*
X0137507Y0019435D01*
X0136173Y0019435D01*
X0135506Y0020770D02*
X0138175Y0020770D01*
X0138175Y0021437D02*
X0137507Y0022104D01*
X0136173Y0022104D01*
X0135506Y0021437D01*
X0135506Y0020770D01*
X0134031Y0020102D02*
X0133364Y0019435D01*
X0131362Y0019435D01*
X0131362Y0021437D01*
X0132029Y0022104D01*
X0133364Y0022104D01*
X0133364Y0020770D02*
X0131362Y0020770D01*
X0129888Y0019435D02*
X0129888Y0022104D01*
X0127886Y0022104D01*
X0127219Y0021437D01*
X0127219Y0019435D01*
X0125744Y0019435D02*
X0125744Y0022104D01*
X0123742Y0022104D01*
X0123075Y0021437D01*
X0123075Y0019435D01*
X0121601Y0020102D02*
X0120933Y0020770D01*
X0118932Y0020770D01*
X0118932Y0021437D02*
X0118932Y0019435D01*
X0120933Y0019435D01*
X0121601Y0020102D01*
X0120933Y0022104D02*
X0119599Y0022104D01*
X0118932Y0021437D01*
X0109170Y0015354D02*
X0109170Y0012685D01*
X0107835Y0012685D02*
X0107835Y0014687D01*
X0107168Y0015354D01*
X0106501Y0014687D01*
X0106501Y0012685D01*
X0107835Y0014687D02*
X0108503Y0015354D01*
X0109170Y0015354D01*
X0092596Y0023438D02*
X0091929Y0023438D01*
X0133364Y0020770D02*
X0134031Y0020102D01*
X0142342Y0016688D02*
X0143009Y0016688D01*
X0134812Y0088122D02*
X0134145Y0088122D01*
X0133478Y0088789D01*
X0133478Y0092126D01*
X0136147Y0092126D02*
X0136147Y0090124D01*
X0135479Y0089457D01*
X0133478Y0089457D01*
X0137574Y0089457D02*
X0138242Y0090124D01*
X0138242Y0092793D01*
X0138909Y0092126D02*
X0137574Y0092126D01*
X0141004Y0092126D02*
X0141004Y0089457D01*
X0141671Y0089457D02*
X0140337Y0089457D01*
X0141004Y0092126D02*
X0141671Y0092126D01*
X0143146Y0092126D02*
X0145148Y0092126D01*
X0145815Y0091458D01*
X0145815Y0090124D01*
X0145148Y0089457D01*
X0143146Y0089457D01*
X0147243Y0089457D02*
X0148577Y0089457D01*
X0147910Y0089457D02*
X0147910Y0092126D01*
X0148577Y0092126D01*
X0150028Y0092126D02*
X0150696Y0092126D01*
X0152030Y0090791D01*
X0152030Y0089457D02*
X0152030Y0092126D01*
X0153458Y0092126D02*
X0154792Y0092126D01*
X0154125Y0092793D02*
X0154125Y0090124D01*
X0153458Y0089457D01*
X0156267Y0089457D02*
X0158269Y0089457D01*
X0158936Y0090124D01*
X0158936Y0091458D01*
X0158269Y0092126D01*
X0156267Y0092126D01*
X0160411Y0091458D02*
X0160411Y0090791D01*
X0163080Y0090791D01*
X0163080Y0090124D02*
X0163080Y0091458D01*
X0162412Y0092126D01*
X0161078Y0092126D01*
X0160411Y0091458D01*
X0161078Y0089457D02*
X0162412Y0089457D01*
X0163080Y0090124D01*
X0164507Y0089457D02*
X0165842Y0089457D01*
X0165175Y0089457D02*
X0165175Y0093460D01*
X0165842Y0093460D01*
X0167316Y0091458D02*
X0167316Y0090791D01*
X0169985Y0090791D01*
X0169985Y0090124D02*
X0169985Y0091458D01*
X0169318Y0092126D01*
X0167984Y0092126D01*
X0167316Y0091458D01*
X0167984Y0089457D02*
X0169318Y0089457D01*
X0169985Y0090124D01*
X0168698Y0096207D02*
X0168698Y0098208D01*
X0169365Y0098876D01*
X0170699Y0098876D01*
X0171367Y0098208D01*
X0172794Y0098876D02*
X0174129Y0098876D01*
X0173462Y0099543D02*
X0173462Y0096874D01*
X0172794Y0096207D01*
X0171367Y0096207D02*
X0171367Y0100210D01*
X0169985Y0102957D02*
X0169985Y0105626D01*
X0168651Y0105626D02*
X0169985Y0104291D01*
X0168651Y0105626D02*
X0167984Y0105626D01*
X0165865Y0105626D02*
X0164531Y0105626D01*
X0163864Y0104958D01*
X0163864Y0102957D01*
X0165865Y0102957D01*
X0166532Y0103624D01*
X0165865Y0104291D01*
X0163864Y0104291D01*
X0162389Y0103624D02*
X0161722Y0102957D01*
X0159720Y0102957D01*
X0158245Y0103624D02*
X0158245Y0104958D01*
X0157578Y0105626D01*
X0156244Y0105626D01*
X0155576Y0104958D01*
X0155576Y0104291D01*
X0158245Y0104291D01*
X0158245Y0103624D02*
X0157578Y0102957D01*
X0156244Y0102957D01*
X0157602Y0100210D02*
X0158269Y0099543D01*
X0158269Y0096207D01*
X0156174Y0096207D02*
X0156174Y0098876D01*
X0156174Y0097541D02*
X0154839Y0098876D01*
X0154172Y0098876D01*
X0152721Y0098208D02*
X0152721Y0096874D01*
X0152053Y0096207D01*
X0150719Y0096207D01*
X0150052Y0096874D01*
X0150052Y0098208D01*
X0150719Y0098876D01*
X0152053Y0098876D01*
X0152721Y0098208D01*
X0157602Y0098208D02*
X0158936Y0098208D01*
X0164554Y0098208D02*
X0164554Y0097541D01*
X0167223Y0097541D01*
X0167223Y0096874D02*
X0167223Y0098208D01*
X0166556Y0098876D01*
X0165221Y0098876D01*
X0164554Y0098208D01*
X0165221Y0096207D02*
X0166556Y0096207D01*
X0167223Y0096874D01*
X0172794Y0102957D02*
X0172794Y0106960D01*
X0171460Y0106960D02*
X0174129Y0106960D01*
X0162389Y0104958D02*
X0162389Y0103624D01*
X0162389Y0104958D02*
X0161722Y0105626D01*
X0159720Y0105626D01*
X0149958Y0105626D02*
X0148624Y0105626D01*
X0149291Y0106293D02*
X0149291Y0103624D01*
X0148624Y0102957D01*
X0147196Y0102957D02*
X0147196Y0106960D01*
X0146529Y0105626D02*
X0147196Y0104958D01*
X0146529Y0105626D02*
X0145194Y0105626D01*
X0144527Y0104958D01*
X0144527Y0102957D01*
X0143052Y0103624D02*
X0143052Y0104958D01*
X0142385Y0105626D01*
X0141051Y0105626D01*
X0140383Y0104958D01*
X0140383Y0104291D01*
X0143052Y0104291D01*
X0143052Y0103624D02*
X0142385Y0102957D01*
X0141051Y0102957D01*
X0143766Y0099543D02*
X0143766Y0096874D01*
X0143099Y0096207D01*
X0143099Y0098876D02*
X0144434Y0098876D01*
X0145908Y0098208D02*
X0146575Y0098876D01*
X0148577Y0098876D01*
X0148577Y0096207D01*
X0147910Y0094127D02*
X0147910Y0093460D01*
X0145908Y0096207D02*
X0145908Y0098208D01*
X0141004Y0094127D02*
X0141004Y0093460D01*
X0136860Y0096874D02*
X0136193Y0096207D01*
X0136860Y0096874D02*
X0136860Y0099543D01*
X0137528Y0098876D02*
X0136193Y0098876D01*
X0134765Y0098208D02*
X0134765Y0096874D01*
X0134098Y0096207D01*
X0132764Y0096207D01*
X0132096Y0096874D01*
X0132096Y0098208D01*
X0132764Y0098876D01*
X0134098Y0098876D01*
X0134765Y0098208D01*
X0134765Y0102957D02*
X0133431Y0102957D01*
X0134098Y0102957D02*
X0134098Y0106960D01*
X0134765Y0106960D01*
X0132003Y0105626D02*
X0131336Y0105626D01*
X0131336Y0102957D01*
X0132003Y0102957D02*
X0130669Y0102957D01*
X0129241Y0102957D02*
X0129241Y0105626D01*
X0127239Y0105626D01*
X0126572Y0104958D01*
X0126572Y0102957D01*
X0125097Y0103624D02*
X0125097Y0104958D01*
X0124430Y0105626D01*
X0123095Y0105626D01*
X0122428Y0104958D01*
X0122428Y0104291D01*
X0125097Y0104291D01*
X0125097Y0103624D02*
X0124430Y0102957D01*
X0123095Y0102957D01*
X0120954Y0102957D02*
X0118952Y0102957D01*
X0118285Y0103624D01*
X0118952Y0104291D01*
X0120286Y0104291D01*
X0120954Y0104958D01*
X0120286Y0105626D01*
X0118285Y0105626D01*
X0112666Y0104958D02*
X0112666Y0103624D01*
X0111999Y0102957D01*
X0110665Y0102957D01*
X0109998Y0103624D01*
X0109998Y0104958D01*
X0110665Y0105626D01*
X0111999Y0105626D01*
X0112666Y0104958D01*
X0108523Y0105626D02*
X0108523Y0102957D01*
X0108523Y0105626D02*
X0106521Y0105626D01*
X0105854Y0104958D01*
X0105854Y0102957D01*
X0105761Y0100210D02*
X0105761Y0096207D01*
X0107235Y0096874D02*
X0107235Y0098876D01*
X0105761Y0098208D02*
X0105093Y0098876D01*
X0103759Y0098876D01*
X0103092Y0098208D01*
X0103092Y0096207D01*
X0101617Y0096874D02*
X0101617Y0098208D01*
X0100950Y0098876D01*
X0099615Y0098876D01*
X0098948Y0098208D01*
X0098948Y0097541D01*
X0101617Y0097541D01*
X0101617Y0096874D02*
X0100950Y0096207D01*
X0099615Y0096207D01*
X0097473Y0096207D02*
X0097473Y0098876D01*
X0096139Y0098876D02*
X0095472Y0098876D01*
X0096139Y0098876D02*
X0097473Y0097541D01*
X0094021Y0097541D02*
X0091352Y0097541D01*
X0091352Y0098208D01*
X0092019Y0098876D01*
X0093353Y0098876D01*
X0094021Y0098208D01*
X0094021Y0096874D01*
X0093353Y0096207D01*
X0092019Y0096207D01*
X0107235Y0096874D02*
X0107902Y0096207D01*
X0108570Y0096874D01*
X0109237Y0096207D01*
X0109904Y0096874D01*
X0109904Y0098876D01*
X0109904Y0094127D02*
X0109904Y0091458D01*
X0109904Y0090124D02*
X0109904Y0089457D01*
X0111379Y0090124D02*
X0112046Y0090791D01*
X0113380Y0090791D01*
X0114048Y0091458D01*
X0113380Y0092126D01*
X0111379Y0092126D01*
X0111379Y0090124D02*
X0112046Y0089457D01*
X0114048Y0089457D01*
X0115522Y0090124D02*
X0115522Y0092126D01*
X0115522Y0090124D02*
X0116190Y0089457D01*
X0116857Y0090124D01*
X0117524Y0089457D01*
X0118191Y0090124D01*
X0118191Y0092126D01*
X0119666Y0091458D02*
X0120333Y0092126D01*
X0121668Y0092126D01*
X0122335Y0091458D01*
X0122335Y0090124D01*
X0121668Y0089457D01*
X0120333Y0089457D01*
X0119666Y0090124D01*
X0119666Y0091458D01*
X0123763Y0089457D02*
X0125097Y0089457D01*
X0124430Y0089457D02*
X0124430Y0093460D01*
X0125097Y0093460D01*
X0126525Y0093460D02*
X0127192Y0092793D01*
X0127192Y0089457D01*
X0127859Y0091458D02*
X0126525Y0091458D01*
X0126478Y0096207D02*
X0124477Y0096207D01*
X0123809Y0096874D01*
X0124477Y0097541D01*
X0125811Y0097541D01*
X0126478Y0098208D01*
X0125811Y0098876D01*
X0123809Y0098876D01*
X0122335Y0098208D02*
X0121667Y0098876D01*
X0120333Y0098876D01*
X0119666Y0098208D01*
X0119666Y0097541D01*
X0122335Y0097541D01*
X0122335Y0096874D02*
X0122335Y0098208D01*
X0122335Y0096874D02*
X0121667Y0096207D01*
X0120333Y0096207D01*
X0118191Y0096874D02*
X0118191Y0098208D01*
X0117524Y0098876D01*
X0116189Y0098876D01*
X0115522Y0098208D01*
X0115522Y0097541D01*
X0118191Y0097541D01*
X0118191Y0096874D02*
X0117524Y0096207D01*
X0116189Y0096207D01*
X0131336Y0106960D02*
X0131336Y0107627D01*
X0118132Y0207665D02*
X0116964Y0207665D01*
X0116380Y0208249D01*
X0116380Y0209417D01*
X0116964Y0210001D01*
X0118132Y0210001D01*
X0118716Y0209417D01*
X0118716Y0208249D01*
X0118132Y0207665D01*
X0114449Y0208249D02*
X0114449Y0210584D01*
X0115032Y0210001D02*
X0113865Y0210001D01*
X0112577Y0209417D02*
X0111993Y0210001D01*
X0110826Y0210001D01*
X0110242Y0209417D01*
X0110242Y0207665D01*
X0108894Y0208249D02*
X0108894Y0209417D01*
X0108310Y0210001D01*
X0107142Y0210001D01*
X0106559Y0209417D01*
X0106559Y0208833D01*
X0108894Y0208833D01*
X0108894Y0208249D02*
X0108310Y0207665D01*
X0107142Y0207665D01*
X0105211Y0207665D02*
X0105211Y0210001D01*
X0104043Y0210001D02*
X0103459Y0210001D01*
X0104043Y0210001D02*
X0105211Y0208833D01*
X0104597Y0213665D02*
X0104597Y0216001D01*
X0104013Y0216001D01*
X0103429Y0215417D01*
X0102845Y0216001D01*
X0102262Y0215417D01*
X0102262Y0213665D01*
X0103429Y0213665D02*
X0103429Y0215417D01*
X0100914Y0215417D02*
X0100914Y0214249D01*
X0100330Y0213665D01*
X0099162Y0213665D01*
X0098578Y0214249D01*
X0098578Y0215417D01*
X0099162Y0216001D01*
X0100330Y0216001D01*
X0100914Y0215417D01*
X0097231Y0216001D02*
X0097231Y0213665D01*
X0097231Y0214833D02*
X0096063Y0216001D01*
X0095479Y0216001D01*
X0094161Y0215417D02*
X0093577Y0216001D01*
X0092410Y0216001D01*
X0091826Y0215417D01*
X0091826Y0214833D01*
X0094161Y0214833D01*
X0094161Y0214249D02*
X0094161Y0215417D01*
X0094161Y0214249D02*
X0093577Y0213665D01*
X0092410Y0213665D01*
X0092320Y0210001D02*
X0090568Y0210001D01*
X0089984Y0209417D01*
X0089984Y0207665D01*
X0092320Y0207665D02*
X0092320Y0210001D01*
X0093668Y0210001D02*
X0093668Y0207665D01*
X0095419Y0207665D01*
X0096003Y0208249D01*
X0096003Y0210001D01*
X0097291Y0209417D02*
X0098458Y0209417D01*
X0097874Y0210584D02*
X0097874Y0207665D01*
X0097874Y0210584D02*
X0097291Y0211168D01*
X0086795Y0213665D02*
X0085627Y0213665D01*
X0086211Y0213665D02*
X0086211Y0216001D01*
X0086795Y0216001D01*
X0086211Y0217168D02*
X0086211Y0217752D01*
X0084340Y0216001D02*
X0082588Y0216001D01*
X0082004Y0215417D01*
X0082004Y0213665D01*
X0080073Y0213665D02*
X0080073Y0216584D01*
X0079489Y0217168D01*
X0079489Y0215417D02*
X0080656Y0215417D01*
X0078201Y0215417D02*
X0078201Y0214249D01*
X0077617Y0213665D01*
X0076450Y0213665D01*
X0075866Y0214249D01*
X0075866Y0215417D01*
X0076450Y0216001D01*
X0077617Y0216001D01*
X0078201Y0215417D01*
X0074518Y0216001D02*
X0074518Y0213665D01*
X0074518Y0214833D02*
X0073350Y0216001D01*
X0072766Y0216001D01*
X0071449Y0216001D02*
X0070865Y0216001D01*
X0070281Y0215417D01*
X0069697Y0216001D01*
X0069113Y0215417D01*
X0069113Y0213665D01*
X0070281Y0213665D02*
X0070281Y0215417D01*
X0071449Y0216001D02*
X0071449Y0213665D01*
X0069023Y0210584D02*
X0069023Y0208249D01*
X0068439Y0207665D01*
X0067152Y0208249D02*
X0067152Y0209417D01*
X0066568Y0210001D01*
X0065400Y0210001D01*
X0064816Y0209417D01*
X0064816Y0208249D01*
X0065400Y0207665D01*
X0066568Y0207665D01*
X0067152Y0208249D01*
X0068439Y0210001D02*
X0069607Y0210001D01*
X0067182Y0213665D02*
X0067765Y0214249D01*
X0067182Y0214833D01*
X0065430Y0214833D01*
X0065430Y0215417D02*
X0065430Y0213665D01*
X0067182Y0213665D01*
X0067182Y0216001D02*
X0066014Y0216001D01*
X0065430Y0215417D01*
X0064082Y0216001D02*
X0062915Y0216001D01*
X0063498Y0216584D02*
X0063498Y0214249D01*
X0062915Y0213665D01*
X0061627Y0213665D02*
X0060459Y0213665D01*
X0061043Y0213665D02*
X0061043Y0216001D01*
X0061627Y0216001D01*
X0061043Y0217168D02*
X0061043Y0217752D01*
X0059171Y0215417D02*
X0059171Y0214249D01*
X0058588Y0213665D01*
X0057420Y0213665D01*
X0056836Y0214249D01*
X0056836Y0215417D01*
X0057420Y0216001D01*
X0058588Y0216001D01*
X0059171Y0215417D01*
X0055488Y0216001D02*
X0055488Y0213665D01*
X0053153Y0213665D02*
X0053153Y0215417D01*
X0053737Y0216001D01*
X0055488Y0216001D01*
X0051835Y0211752D02*
X0051835Y0211168D01*
X0051835Y0210001D02*
X0051835Y0207665D01*
X0052419Y0207665D02*
X0051251Y0207665D01*
X0049964Y0207665D02*
X0048796Y0207665D01*
X0049380Y0207665D02*
X0049380Y0211168D01*
X0049964Y0211168D01*
X0051835Y0210001D02*
X0052419Y0210001D01*
X0053767Y0210001D02*
X0053767Y0207665D01*
X0055518Y0207665D01*
X0056102Y0208249D01*
X0056102Y0210001D01*
X0057450Y0209417D02*
X0057450Y0208249D01*
X0058034Y0207665D01*
X0059785Y0207665D01*
X0059785Y0211168D01*
X0059785Y0210001D02*
X0058034Y0210001D01*
X0057450Y0209417D01*
X0047508Y0209417D02*
X0047508Y0208249D01*
X0046924Y0207665D01*
X0045173Y0207665D01*
X0045173Y0211168D01*
X0045173Y0210001D02*
X0046924Y0210001D01*
X0047508Y0209417D01*
X0047538Y0213665D02*
X0045787Y0213665D01*
X0045787Y0215417D01*
X0046371Y0216001D01*
X0047538Y0216001D01*
X0047538Y0214833D02*
X0045787Y0214833D01*
X0047538Y0214833D02*
X0048122Y0214249D01*
X0047538Y0213665D01*
X0044439Y0213665D02*
X0044439Y0216001D01*
X0042687Y0216001D01*
X0042104Y0215417D01*
X0042104Y0213665D01*
X0040756Y0214249D02*
X0040756Y0215417D01*
X0040172Y0216001D01*
X0038420Y0216001D01*
X0038420Y0217168D02*
X0038420Y0213665D01*
X0040172Y0213665D01*
X0040756Y0214249D01*
X0037103Y0210001D02*
X0035351Y0210001D01*
X0035351Y0207082D01*
X0035935Y0206498D01*
X0036519Y0206498D01*
X0037103Y0207665D02*
X0035351Y0207665D01*
X0034003Y0208249D02*
X0033419Y0207665D01*
X0032252Y0207665D01*
X0031668Y0208249D01*
X0031668Y0209417D01*
X0032252Y0210001D01*
X0033419Y0210001D01*
X0034003Y0209417D01*
X0034003Y0208249D01*
X0037103Y0207665D02*
X0037686Y0208249D01*
X0037686Y0209417D01*
X0037103Y0210001D01*
X0042657Y0208249D02*
X0043241Y0208249D01*
X0043241Y0207665D01*
X0042657Y0207665D01*
X0042657Y0208249D01*
X0042657Y0207665D02*
X0043825Y0206498D01*
X0026637Y0210001D02*
X0025469Y0210001D01*
X0026053Y0210584D02*
X0026053Y0208249D01*
X0025469Y0207665D01*
X0024182Y0208249D02*
X0024182Y0209417D01*
X0023598Y0210001D01*
X0022430Y0210001D01*
X0021846Y0209417D01*
X0021846Y0208249D01*
X0022430Y0207665D01*
X0023598Y0207665D01*
X0024182Y0208249D01*
X0074638Y0208249D02*
X0075222Y0208833D01*
X0076389Y0208833D01*
X0076973Y0209417D01*
X0076389Y0210001D01*
X0074638Y0210001D01*
X0074638Y0208249D02*
X0075222Y0207665D01*
X0076973Y0207665D01*
X0078261Y0207665D02*
X0078845Y0208249D01*
X0078845Y0210584D01*
X0079429Y0210001D02*
X0078261Y0210001D01*
X0081300Y0210001D02*
X0081300Y0207665D01*
X0081884Y0207665D02*
X0080716Y0207665D01*
X0081300Y0210001D02*
X0081884Y0210001D01*
X0081300Y0211168D02*
X0081300Y0211752D01*
X0083202Y0210001D02*
X0084953Y0208833D01*
X0083202Y0207665D01*
X0084953Y0207665D02*
X0084953Y0211168D01*
X0084340Y0213665D02*
X0084340Y0216001D01*
X0088579Y0242705D02*
X0089747Y0242705D01*
X0090331Y0243289D01*
X0090331Y0244456D01*
X0089747Y0245040D01*
X0088579Y0245040D01*
X0087995Y0244456D01*
X0087995Y0243872D01*
X0090331Y0243872D01*
X0091619Y0242705D02*
X0092786Y0242705D01*
X0092202Y0242705D02*
X0092202Y0246208D01*
X0092786Y0246208D01*
X0094134Y0244456D02*
X0094718Y0245040D01*
X0095886Y0245040D01*
X0096469Y0244456D01*
X0096469Y0243289D01*
X0095886Y0242705D01*
X0094718Y0242705D01*
X0094134Y0243289D01*
X0094134Y0244456D01*
X0097817Y0244456D02*
X0097817Y0242705D01*
X0097817Y0244456D02*
X0098401Y0245040D01*
X0099569Y0245040D01*
X0100152Y0244456D01*
X0100152Y0242705D02*
X0100152Y0246208D01*
X0105183Y0244456D02*
X0105183Y0243872D01*
X0107519Y0243872D01*
X0107519Y0243289D02*
X0107519Y0244456D01*
X0106935Y0245040D01*
X0105767Y0245040D01*
X0105183Y0244456D01*
X0105767Y0242705D02*
X0106935Y0242705D01*
X0107519Y0243289D01*
X0108837Y0245040D02*
X0109420Y0245040D01*
X0110588Y0243872D01*
X0110588Y0242705D02*
X0110588Y0245040D01*
X0111936Y0244456D02*
X0111936Y0242705D01*
X0113687Y0242705D01*
X0114271Y0243289D01*
X0113687Y0243872D01*
X0111936Y0243872D01*
X0111936Y0244456D02*
X0112520Y0245040D01*
X0113687Y0245040D01*
X0115619Y0245040D02*
X0115619Y0242705D01*
X0117371Y0242705D01*
X0117954Y0243289D01*
X0117954Y0245040D01*
X0119302Y0245040D02*
X0121054Y0245040D01*
X0121637Y0244456D01*
X0121637Y0243289D01*
X0121054Y0242705D01*
X0119302Y0242705D01*
X0119302Y0241537D02*
X0119302Y0245040D01*
X0117984Y0248705D02*
X0117401Y0249289D01*
X0116817Y0248705D01*
X0116233Y0249289D01*
X0116233Y0251040D01*
X0114885Y0251040D02*
X0114301Y0251040D01*
X0114301Y0248705D01*
X0114885Y0248705D02*
X0113717Y0248705D01*
X0112430Y0248705D02*
X0112430Y0251040D01*
X0112430Y0249872D02*
X0111262Y0251040D01*
X0110678Y0251040D01*
X0109360Y0250456D02*
X0108777Y0251040D01*
X0107609Y0251040D01*
X0107025Y0250456D01*
X0107025Y0249872D01*
X0109360Y0249872D01*
X0109360Y0249289D02*
X0109360Y0250456D01*
X0109360Y0249289D02*
X0108777Y0248705D01*
X0107609Y0248705D01*
X0114301Y0252208D02*
X0114301Y0252792D01*
X0118568Y0251040D02*
X0118568Y0249289D01*
X0117984Y0248705D01*
X0123599Y0248705D02*
X0125351Y0248705D01*
X0125934Y0249289D01*
X0125934Y0250456D01*
X0125351Y0251040D01*
X0123599Y0251040D01*
X0123599Y0248121D01*
X0124183Y0247537D01*
X0124767Y0247537D01*
X0124737Y0245040D02*
X0122985Y0245040D01*
X0123569Y0243872D02*
X0124737Y0243872D01*
X0125321Y0244456D01*
X0124737Y0245040D01*
X0123569Y0243872D02*
X0122985Y0243289D01*
X0123569Y0242705D01*
X0125321Y0242705D01*
X0130352Y0242705D02*
X0130352Y0244456D01*
X0130935Y0245040D01*
X0132687Y0245040D01*
X0132687Y0242705D01*
X0133975Y0242705D02*
X0135142Y0242705D01*
X0134559Y0242705D02*
X0134559Y0245040D01*
X0135142Y0245040D01*
X0134559Y0246208D02*
X0134559Y0246792D01*
X0134649Y0248705D02*
X0136984Y0248705D01*
X0136984Y0252208D01*
X0133301Y0250456D02*
X0133301Y0249289D01*
X0132717Y0248705D01*
X0131549Y0248705D01*
X0130965Y0249289D01*
X0130965Y0250456D01*
X0131549Y0251040D01*
X0132717Y0251040D01*
X0133301Y0250456D01*
X0129618Y0251040D02*
X0129618Y0248705D01*
X0129618Y0251040D02*
X0127866Y0251040D01*
X0127282Y0250456D01*
X0127282Y0248705D01*
X0140173Y0245040D02*
X0141925Y0245040D01*
X0142509Y0244456D01*
X0141925Y0243872D01*
X0140757Y0243872D01*
X0140173Y0243289D01*
X0140757Y0242705D01*
X0142509Y0242705D01*
X0143856Y0243872D02*
X0146192Y0243872D01*
X0146192Y0243289D02*
X0146192Y0244456D01*
X0145608Y0245040D01*
X0144440Y0245040D01*
X0143856Y0244456D01*
X0143856Y0243872D01*
X0144440Y0242705D02*
X0145608Y0242705D01*
X0146192Y0243289D01*
X0147540Y0243289D02*
X0148123Y0242705D01*
X0149291Y0242705D01*
X0149875Y0243289D01*
X0149875Y0244456D01*
X0149291Y0245040D01*
X0148123Y0245040D01*
X0147540Y0244456D01*
X0147540Y0243289D01*
X0151223Y0242705D02*
X0152974Y0242705D01*
X0153558Y0243289D01*
X0153558Y0244456D01*
X0152974Y0245040D01*
X0151223Y0245040D01*
X0151223Y0242121D01*
X0151807Y0241537D01*
X0152390Y0241537D01*
X0153558Y0248705D02*
X0151223Y0248705D01*
X0149875Y0248705D02*
X0147540Y0248705D01*
X0146192Y0248705D02*
X0144440Y0248705D01*
X0143856Y0249289D01*
X0143856Y0251624D01*
X0144440Y0252208D01*
X0146192Y0252208D01*
X0146192Y0248705D01*
X0148707Y0250456D02*
X0149875Y0250456D01*
X0149875Y0248705D02*
X0149875Y0252208D01*
X0147540Y0252208D01*
X0142509Y0251040D02*
X0142509Y0250456D01*
X0141925Y0250456D01*
X0141925Y0251040D01*
X0142509Y0251040D01*
X0142509Y0249289D02*
X0142509Y0248705D01*
X0141925Y0248705D01*
X0141925Y0249289D01*
X0142509Y0249289D01*
X0153558Y0248705D02*
X0153558Y0252208D01*
X0167425Y0245047D02*
X0167425Y0244463D01*
X0169760Y0244463D01*
X0169760Y0245047D02*
X0169176Y0245631D01*
X0168008Y0245631D01*
X0167425Y0245047D01*
X0168008Y0243295D02*
X0169176Y0243295D01*
X0169760Y0243879D01*
X0169760Y0245047D01*
X0171048Y0243295D02*
X0172215Y0243295D01*
X0171632Y0243295D02*
X0171632Y0246798D01*
X0172215Y0246798D01*
X0173563Y0245047D02*
X0174147Y0245631D01*
X0175315Y0245631D01*
X0175898Y0245047D01*
X0175898Y0243879D01*
X0175315Y0243295D01*
X0174147Y0243295D01*
X0173563Y0243879D01*
X0173563Y0245047D01*
X0177246Y0245047D02*
X0177246Y0243295D01*
X0177246Y0245047D02*
X0177830Y0245631D01*
X0178998Y0245631D01*
X0179582Y0245047D01*
X0179582Y0246798D02*
X0179582Y0243295D01*
X0184613Y0244463D02*
X0186948Y0244463D01*
X0186948Y0245047D02*
X0186364Y0245631D01*
X0185196Y0245631D01*
X0184613Y0245047D01*
X0184613Y0244463D01*
X0185196Y0243295D02*
X0186364Y0243295D01*
X0186948Y0243879D01*
X0186948Y0245047D01*
X0188266Y0245631D02*
X0188850Y0245631D01*
X0190017Y0244463D01*
X0190017Y0243295D02*
X0190017Y0245631D01*
X0191365Y0245047D02*
X0191365Y0243295D01*
X0193117Y0243295D01*
X0193700Y0243879D01*
X0193117Y0244463D01*
X0191365Y0244463D01*
X0191365Y0245047D02*
X0191949Y0245631D01*
X0193117Y0245631D01*
X0195048Y0245631D02*
X0195048Y0243295D01*
X0196800Y0243295D01*
X0197383Y0243879D01*
X0197383Y0245631D01*
X0198731Y0245631D02*
X0200483Y0245631D01*
X0201067Y0245047D01*
X0201067Y0243879D01*
X0200483Y0243295D01*
X0198731Y0243295D01*
X0198731Y0242128D02*
X0198731Y0245631D01*
X0202414Y0245631D02*
X0204166Y0245631D01*
X0204750Y0245047D01*
X0204166Y0244463D01*
X0202998Y0244463D01*
X0202414Y0243879D01*
X0202998Y0243295D01*
X0204750Y0243295D01*
X0204196Y0248128D02*
X0203612Y0248128D01*
X0203028Y0248711D01*
X0203028Y0251631D01*
X0204780Y0251631D01*
X0205364Y0251047D01*
X0205364Y0249879D01*
X0204780Y0249295D01*
X0203028Y0249295D01*
X0206711Y0249295D02*
X0206711Y0251047D01*
X0207295Y0251631D01*
X0209047Y0251631D01*
X0209047Y0249295D01*
X0210395Y0249879D02*
X0210395Y0251047D01*
X0210978Y0251631D01*
X0212146Y0251631D01*
X0212730Y0251047D01*
X0212730Y0249879D01*
X0212146Y0249295D01*
X0210978Y0249295D01*
X0210395Y0249879D01*
X0214078Y0249295D02*
X0216413Y0249295D01*
X0216413Y0252798D01*
X0221354Y0251631D02*
X0221354Y0251047D01*
X0221938Y0251047D01*
X0221938Y0251631D01*
X0221354Y0251631D01*
X0221354Y0249879D02*
X0221354Y0249295D01*
X0221938Y0249295D01*
X0221938Y0249879D01*
X0221354Y0249879D01*
X0223286Y0249879D02*
X0223286Y0252214D01*
X0223869Y0252798D01*
X0225621Y0252798D01*
X0225621Y0249295D01*
X0223869Y0249295D01*
X0223286Y0249879D01*
X0226969Y0249295D02*
X0229304Y0249295D01*
X0229304Y0252798D01*
X0226969Y0252798D01*
X0228136Y0251047D02*
X0229304Y0251047D01*
X0230652Y0249295D02*
X0232987Y0249295D01*
X0232987Y0252798D01*
X0232403Y0245631D02*
X0230652Y0245631D01*
X0230652Y0242711D01*
X0231236Y0242128D01*
X0231820Y0242128D01*
X0232403Y0243295D02*
X0230652Y0243295D01*
X0229304Y0243879D02*
X0228720Y0243295D01*
X0227553Y0243295D01*
X0226969Y0243879D01*
X0226969Y0245047D01*
X0227553Y0245631D01*
X0228720Y0245631D01*
X0229304Y0245047D01*
X0229304Y0243879D01*
X0232403Y0243295D02*
X0232987Y0243879D01*
X0232987Y0245047D01*
X0232403Y0245631D01*
X0225621Y0245047D02*
X0225037Y0245631D01*
X0223869Y0245631D01*
X0223286Y0245047D01*
X0223286Y0244463D01*
X0225621Y0244463D01*
X0225621Y0243879D02*
X0225621Y0245047D01*
X0225621Y0243879D02*
X0225037Y0243295D01*
X0223869Y0243295D01*
X0221938Y0243295D02*
X0220186Y0243295D01*
X0219602Y0243879D01*
X0220186Y0244463D01*
X0221354Y0244463D01*
X0221938Y0245047D01*
X0221354Y0245631D01*
X0219602Y0245631D01*
X0214571Y0245631D02*
X0213988Y0245631D01*
X0213988Y0243295D01*
X0214571Y0243295D02*
X0213404Y0243295D01*
X0212116Y0243295D02*
X0212116Y0245631D01*
X0210365Y0245631D01*
X0209781Y0245047D01*
X0209781Y0243295D01*
X0213988Y0246798D02*
X0213988Y0247382D01*
X0197997Y0249879D02*
X0197414Y0249295D01*
X0196830Y0249879D01*
X0196246Y0249295D01*
X0195662Y0249879D01*
X0195662Y0251631D01*
X0194314Y0251631D02*
X0193730Y0251631D01*
X0193730Y0249295D01*
X0193147Y0249295D02*
X0194314Y0249295D01*
X0191859Y0249295D02*
X0191859Y0251631D01*
X0190691Y0251631D02*
X0190107Y0251631D01*
X0190691Y0251631D02*
X0191859Y0250463D01*
X0193730Y0252798D02*
X0193730Y0253382D01*
X0197997Y0251631D02*
X0197997Y0249879D01*
X0188789Y0249879D02*
X0188789Y0251047D01*
X0188206Y0251631D01*
X0187038Y0251631D01*
X0186454Y0251047D01*
X0186454Y0250463D01*
X0188789Y0250463D01*
X0188789Y0249879D02*
X0188206Y0249295D01*
X0187038Y0249295D01*
X0118716Y0217168D02*
X0118716Y0213665D01*
X0118716Y0215417D02*
X0117548Y0215417D01*
X0118716Y0217168D02*
X0116380Y0217168D01*
X0115032Y0215417D02*
X0115032Y0214249D01*
X0114449Y0213665D01*
X0113281Y0213665D01*
X0112697Y0214249D01*
X0112697Y0215417D01*
X0113281Y0216001D01*
X0114449Y0216001D01*
X0115032Y0215417D01*
X0111349Y0216001D02*
X0111349Y0213665D01*
X0111349Y0214833D02*
X0110182Y0216001D01*
X0109598Y0216001D01*
X0112577Y0211168D02*
X0112577Y0207665D01*
X0113865Y0207665D02*
X0114449Y0208249D01*
D13*
X0115860Y0201941D02*
X0115860Y0197037D01*
X0115860Y0199489D02*
X0115042Y0200306D01*
X0113408Y0200306D01*
X0112590Y0199489D01*
X0112590Y0197037D01*
X0109886Y0197854D02*
X0109886Y0201124D01*
X0110703Y0200306D02*
X0109069Y0200306D01*
X0107266Y0200306D02*
X0105631Y0200306D01*
X0106448Y0201124D02*
X0106448Y0197854D01*
X0105631Y0197037D01*
X0103828Y0197037D02*
X0101376Y0197037D01*
X0100559Y0197854D01*
X0100559Y0199489D01*
X0101376Y0200306D01*
X0103828Y0200306D01*
X0103828Y0195402D01*
X0098672Y0197037D02*
X0096220Y0197037D01*
X0095402Y0197854D01*
X0096220Y0198672D01*
X0097854Y0198672D01*
X0098672Y0199489D01*
X0097854Y0200306D01*
X0095402Y0200306D01*
X0093515Y0200306D02*
X0093515Y0199489D01*
X0092698Y0199489D01*
X0092698Y0200306D01*
X0093515Y0200306D01*
X0093515Y0197854D02*
X0093515Y0197037D01*
X0092698Y0197037D01*
X0092698Y0197854D01*
X0093515Y0197854D01*
X0090937Y0197037D02*
X0087668Y0201941D01*
X0082511Y0201941D02*
X0085781Y0197037D01*
X0080624Y0197854D02*
X0079807Y0197037D01*
X0077355Y0197037D01*
X0077355Y0196220D02*
X0077355Y0200306D01*
X0079807Y0200306D01*
X0080624Y0199489D01*
X0080624Y0197854D01*
X0078990Y0195402D02*
X0078172Y0195402D01*
X0077355Y0196220D01*
X0075468Y0197854D02*
X0074651Y0197037D01*
X0073016Y0197037D01*
X0072198Y0197854D01*
X0072198Y0199489D01*
X0073016Y0200306D01*
X0074651Y0200306D01*
X0075468Y0199489D01*
X0075468Y0197854D01*
X0070311Y0197854D02*
X0069494Y0197037D01*
X0067859Y0197037D01*
X0067042Y0197854D01*
X0067042Y0199489D01*
X0067859Y0200306D01*
X0069494Y0200306D01*
X0070311Y0199489D01*
X0070311Y0197854D01*
X0065155Y0197854D02*
X0064338Y0197854D01*
X0064338Y0197037D01*
X0065155Y0197037D01*
X0065155Y0197854D01*
X0062577Y0197854D02*
X0061760Y0197037D01*
X0059307Y0197037D01*
X0059307Y0196220D02*
X0059307Y0200306D01*
X0061760Y0200306D01*
X0062577Y0199489D01*
X0062577Y0197854D01*
X0060942Y0195402D02*
X0060125Y0195402D01*
X0059307Y0196220D01*
X0057420Y0197037D02*
X0055786Y0197037D01*
X0056603Y0197037D02*
X0056603Y0201941D01*
X0057420Y0201941D01*
X0053983Y0197037D02*
X0050713Y0201941D01*
X0048826Y0201941D02*
X0048826Y0197037D01*
X0045557Y0197037D02*
X0045557Y0201941D01*
X0047192Y0200306D01*
X0048826Y0201941D01*
X0043670Y0200306D02*
X0042035Y0201941D01*
X0042035Y0197037D01*
X0040401Y0197037D02*
X0043670Y0197037D01*
X0038514Y0199489D02*
X0035244Y0199489D01*
X0033357Y0197854D02*
X0032540Y0197037D01*
X0030905Y0197037D01*
X0030088Y0197854D01*
X0030088Y0201124D01*
X0030905Y0201941D01*
X0032540Y0201941D01*
X0033357Y0201124D01*
X0033357Y0197854D01*
X0036062Y0197037D02*
X0036062Y0201941D01*
X0038514Y0199489D01*
X0028201Y0197037D02*
X0025749Y0197037D01*
X0024931Y0197854D01*
X0024931Y0201124D01*
X0025749Y0201941D01*
X0028201Y0201941D01*
X0028201Y0197037D01*
X0023045Y0197037D02*
X0020592Y0197037D01*
X0019775Y0197854D01*
X0019775Y0198672D01*
X0020592Y0199489D01*
X0023045Y0199489D01*
X0023045Y0197037D02*
X0023045Y0201941D01*
X0020592Y0201941D01*
X0019775Y0201124D01*
X0019775Y0200306D01*
X0020592Y0199489D01*
X0109069Y0197037D02*
X0109886Y0197854D01*
D14*
X0270442Y0213419D02*
X0268724Y0216459D01*
X0266933Y0219456D01*
X0265069Y0222409D01*
X0263133Y0225315D01*
X0261127Y0228173D01*
X0259052Y0230981D01*
X0256909Y0233737D01*
X0254699Y0236440D01*
X0252423Y0239089D01*
X0250084Y0241681D01*
X0247682Y0244215D01*
X0245219Y0246690D01*
X0242696Y0249104D01*
X0240114Y0251455D01*
X0237476Y0253742D01*
X0234783Y0255965D01*
X0232037Y0258121D01*
X0229238Y0260209D01*
X0226389Y0262228D01*
X0223492Y0264177D01*
X0220548Y0266055D01*
X0217559Y0267860D01*
X0214527Y0269591D01*
X0211454Y0271248D01*
X0208341Y0272829D01*
X0205190Y0274334D01*
X0202003Y0275761D01*
X0198783Y0277110D01*
X0195530Y0278380D01*
X0192247Y0279570D01*
X0188937Y0280679D01*
X0185600Y0281708D01*
X0182239Y0282654D01*
X0178856Y0283518D01*
X0175452Y0284299D01*
X0172031Y0284996D01*
X0168594Y0285610D01*
X0165142Y0286140D01*
X0161679Y0286585D01*
X0158206Y0286945D01*
X0154725Y0287220D01*
X0151239Y0287410D01*
X0147749Y0287515D01*
X0144257Y0287535D01*
X0140766Y0287469D01*
X0137278Y0287318D01*
X0133794Y0287082D01*
X0130317Y0286760D01*
X0126849Y0286354D01*
X0123392Y0285863D01*
X0119948Y0285288D01*
X0116519Y0284629D01*
X0113108Y0283886D01*
X0109715Y0283061D01*
X0106344Y0282152D01*
X0102995Y0281161D01*
X0099672Y0280089D01*
X0096377Y0278936D01*
X0093110Y0277703D01*
X0089874Y0276390D01*
X0086672Y0274999D01*
X0083504Y0273529D01*
X0080374Y0271983D01*
X0077282Y0270361D01*
X0074230Y0268663D01*
X0071222Y0266892D01*
X0068257Y0265047D01*
X0065338Y0263131D01*
X0062467Y0261144D01*
X0059645Y0259087D01*
X0056875Y0256962D01*
X0054157Y0254770D01*
X0051493Y0252512D01*
X0048886Y0250190D01*
X0046336Y0247805D01*
X0043845Y0245358D01*
X0041415Y0242851D01*
X0039046Y0240285D01*
X0036741Y0237663D01*
X0034501Y0234984D01*
X0032327Y0232252D01*
X0030220Y0229467D01*
X0028182Y0226632D01*
X0026214Y0223748D01*
X0024317Y0220816D01*
X0022493Y0217840D01*
X0020741Y0214819D01*
X0019064Y0211756D01*
X0017462Y0208654D01*
X0015937Y0205513D01*
X0014488Y0202336D01*
X0013118Y0199124D01*
X0011827Y0195880D01*
X0010615Y0192605D01*
X0009484Y0189302D01*
X0008434Y0185972D01*
X0007465Y0182617D01*
X0006579Y0179240D01*
X0005775Y0175842D01*
X0005055Y0172426D01*
X0004419Y0168992D01*
X0003866Y0165545D01*
X0003398Y0162084D01*
X0003015Y0158614D01*
X0002717Y0155135D01*
X0002504Y0151650D01*
X0002376Y0148160D01*
X0002333Y0144669D01*
X0002376Y0141178D01*
X0002504Y0137688D01*
X0002717Y0134203D01*
X0003015Y0130724D01*
X0003398Y0127254D01*
X0003866Y0123793D01*
X0004419Y0120346D01*
X0005055Y0116912D01*
X0005775Y0113496D01*
X0006579Y0110098D01*
X0007465Y0106721D01*
X0008434Y0103366D01*
X0009484Y0100036D01*
X0010615Y0096733D01*
X0011827Y0093458D01*
X0013118Y0090214D01*
X0014488Y0087002D01*
X0015937Y0083825D01*
X0017462Y0080684D01*
X0019064Y0077582D01*
X0020741Y0074519D01*
X0022493Y0071498D01*
X0024317Y0068522D01*
X0026214Y0065590D01*
X0028182Y0062706D01*
X0030220Y0059871D01*
X0032327Y0057086D01*
X0034501Y0054354D01*
X0036741Y0051675D01*
X0039046Y0049053D01*
X0041415Y0046487D01*
X0043845Y0043980D01*
X0046336Y0041533D01*
X0048886Y0039148D01*
X0051493Y0036826D01*
X0054157Y0034568D01*
X0056875Y0032376D01*
X0059645Y0030251D01*
X0062467Y0028194D01*
X0065338Y0026207D01*
X0068257Y0024291D01*
X0071222Y0022446D01*
X0074230Y0020675D01*
X0077282Y0018977D01*
X0080374Y0017355D01*
X0083504Y0015809D01*
X0086672Y0014339D01*
X0089874Y0012948D01*
X0093110Y0011635D01*
X0096377Y0010402D01*
X0099672Y0009249D01*
X0102995Y0008177D01*
X0106344Y0007186D01*
X0109715Y0006277D01*
X0113108Y0005452D01*
X0116519Y0004709D01*
X0119948Y0004050D01*
X0123392Y0003475D01*
X0126849Y0002984D01*
X0130317Y0002578D01*
X0133794Y0002256D01*
X0137278Y0002020D01*
X0140766Y0001869D01*
X0144257Y0001803D01*
X0147749Y0001823D01*
X0151239Y0001928D01*
X0154725Y0002118D01*
X0158206Y0002393D01*
X0161679Y0002753D01*
X0165142Y0003198D01*
X0168594Y0003728D01*
X0172031Y0004342D01*
X0175452Y0005039D01*
X0178856Y0005820D01*
X0182239Y0006684D01*
X0185600Y0007630D01*
X0188937Y0008659D01*
X0192247Y0009768D01*
X0195530Y0010958D01*
X0198783Y0012228D01*
X0202003Y0013577D01*
X0205190Y0015004D01*
X0208341Y0016509D01*
X0211454Y0018090D01*
X0214527Y0019747D01*
X0217559Y0021478D01*
X0220548Y0023283D01*
X0223492Y0025161D01*
X0226389Y0027110D01*
X0229238Y0029129D01*
X0232037Y0031217D01*
X0234783Y0033373D01*
X0237476Y0035596D01*
X0240114Y0037883D01*
X0242696Y0040234D01*
X0245219Y0042648D01*
X0247682Y0045123D01*
X0250084Y0047657D01*
X0252423Y0050249D01*
X0254699Y0052898D01*
X0256909Y0055601D01*
X0259052Y0058357D01*
X0261127Y0061165D01*
X0263133Y0064023D01*
X0265069Y0066929D01*
X0266933Y0069882D01*
X0268724Y0072879D01*
X0270442Y0075919D01*
X0145442Y0138419D01*
X0270442Y0213419D01*
D15*
X0191505Y0068636D02*
X0191507Y0068761D01*
X0191513Y0068886D01*
X0191523Y0069010D01*
X0191537Y0069134D01*
X0191554Y0069258D01*
X0191576Y0069381D01*
X0191602Y0069503D01*
X0191631Y0069625D01*
X0191664Y0069745D01*
X0191702Y0069864D01*
X0191742Y0069983D01*
X0191787Y0070099D01*
X0191835Y0070214D01*
X0191887Y0070328D01*
X0191943Y0070440D01*
X0192002Y0070550D01*
X0192064Y0070658D01*
X0192130Y0070765D01*
X0192199Y0070869D01*
X0192272Y0070970D01*
X0192347Y0071070D01*
X0192426Y0071167D01*
X0192508Y0071261D01*
X0192593Y0071353D01*
X0192680Y0071442D01*
X0192771Y0071528D01*
X0192864Y0071611D01*
X0192960Y0071692D01*
X0193058Y0071769D01*
X0193158Y0071843D01*
X0193261Y0071914D01*
X0193366Y0071981D01*
X0193474Y0072046D01*
X0193583Y0072106D01*
X0193694Y0072164D01*
X0193807Y0072217D01*
X0193921Y0072267D01*
X0194037Y0072314D01*
X0194154Y0072356D01*
X0194273Y0072395D01*
X0194393Y0072431D01*
X0194514Y0072462D01*
X0194636Y0072490D01*
X0194758Y0072513D01*
X0194882Y0072533D01*
X0195006Y0072549D01*
X0195130Y0072561D01*
X0195255Y0072569D01*
X0195380Y0072573D01*
X0195504Y0072573D01*
X0195629Y0072569D01*
X0195754Y0072561D01*
X0195878Y0072549D01*
X0196002Y0072533D01*
X0196126Y0072513D01*
X0196248Y0072490D01*
X0196370Y0072462D01*
X0196491Y0072431D01*
X0196611Y0072395D01*
X0196730Y0072356D01*
X0196847Y0072314D01*
X0196963Y0072267D01*
X0197077Y0072217D01*
X0197190Y0072164D01*
X0197301Y0072106D01*
X0197411Y0072046D01*
X0197518Y0071981D01*
X0197623Y0071914D01*
X0197726Y0071843D01*
X0197826Y0071769D01*
X0197924Y0071692D01*
X0198020Y0071611D01*
X0198113Y0071528D01*
X0198204Y0071442D01*
X0198291Y0071353D01*
X0198376Y0071261D01*
X0198458Y0071167D01*
X0198537Y0071070D01*
X0198612Y0070970D01*
X0198685Y0070869D01*
X0198754Y0070765D01*
X0198820Y0070658D01*
X0198882Y0070550D01*
X0198941Y0070440D01*
X0198997Y0070328D01*
X0199049Y0070214D01*
X0199097Y0070099D01*
X0199142Y0069983D01*
X0199182Y0069864D01*
X0199220Y0069745D01*
X0199253Y0069625D01*
X0199282Y0069503D01*
X0199308Y0069381D01*
X0199330Y0069258D01*
X0199347Y0069134D01*
X0199361Y0069010D01*
X0199371Y0068886D01*
X0199377Y0068761D01*
X0199379Y0068636D01*
X0199377Y0068511D01*
X0199371Y0068386D01*
X0199361Y0068262D01*
X0199347Y0068138D01*
X0199330Y0068014D01*
X0199308Y0067891D01*
X0199282Y0067769D01*
X0199253Y0067647D01*
X0199220Y0067527D01*
X0199182Y0067408D01*
X0199142Y0067289D01*
X0199097Y0067173D01*
X0199049Y0067058D01*
X0198997Y0066944D01*
X0198941Y0066832D01*
X0198882Y0066722D01*
X0198820Y0066614D01*
X0198754Y0066507D01*
X0198685Y0066403D01*
X0198612Y0066302D01*
X0198537Y0066202D01*
X0198458Y0066105D01*
X0198376Y0066011D01*
X0198291Y0065919D01*
X0198204Y0065830D01*
X0198113Y0065744D01*
X0198020Y0065661D01*
X0197924Y0065580D01*
X0197826Y0065503D01*
X0197726Y0065429D01*
X0197623Y0065358D01*
X0197518Y0065291D01*
X0197410Y0065226D01*
X0197301Y0065166D01*
X0197190Y0065108D01*
X0197077Y0065055D01*
X0196963Y0065005D01*
X0196847Y0064958D01*
X0196730Y0064916D01*
X0196611Y0064877D01*
X0196491Y0064841D01*
X0196370Y0064810D01*
X0196248Y0064782D01*
X0196126Y0064759D01*
X0196002Y0064739D01*
X0195878Y0064723D01*
X0195754Y0064711D01*
X0195629Y0064703D01*
X0195504Y0064699D01*
X0195380Y0064699D01*
X0195255Y0064703D01*
X0195130Y0064711D01*
X0195006Y0064723D01*
X0194882Y0064739D01*
X0194758Y0064759D01*
X0194636Y0064782D01*
X0194514Y0064810D01*
X0194393Y0064841D01*
X0194273Y0064877D01*
X0194154Y0064916D01*
X0194037Y0064958D01*
X0193921Y0065005D01*
X0193807Y0065055D01*
X0193694Y0065108D01*
X0193583Y0065166D01*
X0193473Y0065226D01*
X0193366Y0065291D01*
X0193261Y0065358D01*
X0193158Y0065429D01*
X0193058Y0065503D01*
X0192960Y0065580D01*
X0192864Y0065661D01*
X0192771Y0065744D01*
X0192680Y0065830D01*
X0192593Y0065919D01*
X0192508Y0066011D01*
X0192426Y0066105D01*
X0192347Y0066202D01*
X0192272Y0066302D01*
X0192199Y0066403D01*
X0192130Y0066507D01*
X0192064Y0066614D01*
X0192002Y0066722D01*
X0191943Y0066832D01*
X0191887Y0066944D01*
X0191835Y0067058D01*
X0191787Y0067173D01*
X0191742Y0067289D01*
X0191702Y0067408D01*
X0191664Y0067527D01*
X0191631Y0067647D01*
X0191602Y0067769D01*
X0191576Y0067891D01*
X0191554Y0068014D01*
X0191537Y0068138D01*
X0191523Y0068262D01*
X0191513Y0068386D01*
X0191507Y0068511D01*
X0191505Y0068636D01*
X0191505Y0033203D02*
X0191507Y0033328D01*
X0191513Y0033453D01*
X0191523Y0033577D01*
X0191537Y0033701D01*
X0191554Y0033825D01*
X0191576Y0033948D01*
X0191602Y0034070D01*
X0191631Y0034192D01*
X0191664Y0034312D01*
X0191702Y0034431D01*
X0191742Y0034550D01*
X0191787Y0034666D01*
X0191835Y0034781D01*
X0191887Y0034895D01*
X0191943Y0035007D01*
X0192002Y0035117D01*
X0192064Y0035225D01*
X0192130Y0035332D01*
X0192199Y0035436D01*
X0192272Y0035537D01*
X0192347Y0035637D01*
X0192426Y0035734D01*
X0192508Y0035828D01*
X0192593Y0035920D01*
X0192680Y0036009D01*
X0192771Y0036095D01*
X0192864Y0036178D01*
X0192960Y0036259D01*
X0193058Y0036336D01*
X0193158Y0036410D01*
X0193261Y0036481D01*
X0193366Y0036548D01*
X0193474Y0036613D01*
X0193583Y0036673D01*
X0193694Y0036731D01*
X0193807Y0036784D01*
X0193921Y0036834D01*
X0194037Y0036881D01*
X0194154Y0036923D01*
X0194273Y0036962D01*
X0194393Y0036998D01*
X0194514Y0037029D01*
X0194636Y0037057D01*
X0194758Y0037080D01*
X0194882Y0037100D01*
X0195006Y0037116D01*
X0195130Y0037128D01*
X0195255Y0037136D01*
X0195380Y0037140D01*
X0195504Y0037140D01*
X0195629Y0037136D01*
X0195754Y0037128D01*
X0195878Y0037116D01*
X0196002Y0037100D01*
X0196126Y0037080D01*
X0196248Y0037057D01*
X0196370Y0037029D01*
X0196491Y0036998D01*
X0196611Y0036962D01*
X0196730Y0036923D01*
X0196847Y0036881D01*
X0196963Y0036834D01*
X0197077Y0036784D01*
X0197190Y0036731D01*
X0197301Y0036673D01*
X0197411Y0036613D01*
X0197518Y0036548D01*
X0197623Y0036481D01*
X0197726Y0036410D01*
X0197826Y0036336D01*
X0197924Y0036259D01*
X0198020Y0036178D01*
X0198113Y0036095D01*
X0198204Y0036009D01*
X0198291Y0035920D01*
X0198376Y0035828D01*
X0198458Y0035734D01*
X0198537Y0035637D01*
X0198612Y0035537D01*
X0198685Y0035436D01*
X0198754Y0035332D01*
X0198820Y0035225D01*
X0198882Y0035117D01*
X0198941Y0035007D01*
X0198997Y0034895D01*
X0199049Y0034781D01*
X0199097Y0034666D01*
X0199142Y0034550D01*
X0199182Y0034431D01*
X0199220Y0034312D01*
X0199253Y0034192D01*
X0199282Y0034070D01*
X0199308Y0033948D01*
X0199330Y0033825D01*
X0199347Y0033701D01*
X0199361Y0033577D01*
X0199371Y0033453D01*
X0199377Y0033328D01*
X0199379Y0033203D01*
X0199377Y0033078D01*
X0199371Y0032953D01*
X0199361Y0032829D01*
X0199347Y0032705D01*
X0199330Y0032581D01*
X0199308Y0032458D01*
X0199282Y0032336D01*
X0199253Y0032214D01*
X0199220Y0032094D01*
X0199182Y0031975D01*
X0199142Y0031856D01*
X0199097Y0031740D01*
X0199049Y0031625D01*
X0198997Y0031511D01*
X0198941Y0031399D01*
X0198882Y0031289D01*
X0198820Y0031181D01*
X0198754Y0031074D01*
X0198685Y0030970D01*
X0198612Y0030869D01*
X0198537Y0030769D01*
X0198458Y0030672D01*
X0198376Y0030578D01*
X0198291Y0030486D01*
X0198204Y0030397D01*
X0198113Y0030311D01*
X0198020Y0030228D01*
X0197924Y0030147D01*
X0197826Y0030070D01*
X0197726Y0029996D01*
X0197623Y0029925D01*
X0197518Y0029858D01*
X0197410Y0029793D01*
X0197301Y0029733D01*
X0197190Y0029675D01*
X0197077Y0029622D01*
X0196963Y0029572D01*
X0196847Y0029525D01*
X0196730Y0029483D01*
X0196611Y0029444D01*
X0196491Y0029408D01*
X0196370Y0029377D01*
X0196248Y0029349D01*
X0196126Y0029326D01*
X0196002Y0029306D01*
X0195878Y0029290D01*
X0195754Y0029278D01*
X0195629Y0029270D01*
X0195504Y0029266D01*
X0195380Y0029266D01*
X0195255Y0029270D01*
X0195130Y0029278D01*
X0195006Y0029290D01*
X0194882Y0029306D01*
X0194758Y0029326D01*
X0194636Y0029349D01*
X0194514Y0029377D01*
X0194393Y0029408D01*
X0194273Y0029444D01*
X0194154Y0029483D01*
X0194037Y0029525D01*
X0193921Y0029572D01*
X0193807Y0029622D01*
X0193694Y0029675D01*
X0193583Y0029733D01*
X0193473Y0029793D01*
X0193366Y0029858D01*
X0193261Y0029925D01*
X0193158Y0029996D01*
X0193058Y0030070D01*
X0192960Y0030147D01*
X0192864Y0030228D01*
X0192771Y0030311D01*
X0192680Y0030397D01*
X0192593Y0030486D01*
X0192508Y0030578D01*
X0192426Y0030672D01*
X0192347Y0030769D01*
X0192272Y0030869D01*
X0192199Y0030970D01*
X0192130Y0031074D01*
X0192064Y0031181D01*
X0192002Y0031289D01*
X0191943Y0031399D01*
X0191887Y0031511D01*
X0191835Y0031625D01*
X0191787Y0031740D01*
X0191742Y0031856D01*
X0191702Y0031975D01*
X0191664Y0032094D01*
X0191631Y0032214D01*
X0191602Y0032336D01*
X0191576Y0032458D01*
X0191554Y0032581D01*
X0191537Y0032705D01*
X0191523Y0032829D01*
X0191513Y0032953D01*
X0191507Y0033078D01*
X0191505Y0033203D01*
X0104005Y0033203D02*
X0104007Y0033328D01*
X0104013Y0033453D01*
X0104023Y0033577D01*
X0104037Y0033701D01*
X0104054Y0033825D01*
X0104076Y0033948D01*
X0104102Y0034070D01*
X0104131Y0034192D01*
X0104164Y0034312D01*
X0104202Y0034431D01*
X0104242Y0034550D01*
X0104287Y0034666D01*
X0104335Y0034781D01*
X0104387Y0034895D01*
X0104443Y0035007D01*
X0104502Y0035117D01*
X0104564Y0035225D01*
X0104630Y0035332D01*
X0104699Y0035436D01*
X0104772Y0035537D01*
X0104847Y0035637D01*
X0104926Y0035734D01*
X0105008Y0035828D01*
X0105093Y0035920D01*
X0105180Y0036009D01*
X0105271Y0036095D01*
X0105364Y0036178D01*
X0105460Y0036259D01*
X0105558Y0036336D01*
X0105658Y0036410D01*
X0105761Y0036481D01*
X0105866Y0036548D01*
X0105974Y0036613D01*
X0106083Y0036673D01*
X0106194Y0036731D01*
X0106307Y0036784D01*
X0106421Y0036834D01*
X0106537Y0036881D01*
X0106654Y0036923D01*
X0106773Y0036962D01*
X0106893Y0036998D01*
X0107014Y0037029D01*
X0107136Y0037057D01*
X0107258Y0037080D01*
X0107382Y0037100D01*
X0107506Y0037116D01*
X0107630Y0037128D01*
X0107755Y0037136D01*
X0107880Y0037140D01*
X0108004Y0037140D01*
X0108129Y0037136D01*
X0108254Y0037128D01*
X0108378Y0037116D01*
X0108502Y0037100D01*
X0108626Y0037080D01*
X0108748Y0037057D01*
X0108870Y0037029D01*
X0108991Y0036998D01*
X0109111Y0036962D01*
X0109230Y0036923D01*
X0109347Y0036881D01*
X0109463Y0036834D01*
X0109577Y0036784D01*
X0109690Y0036731D01*
X0109801Y0036673D01*
X0109911Y0036613D01*
X0110018Y0036548D01*
X0110123Y0036481D01*
X0110226Y0036410D01*
X0110326Y0036336D01*
X0110424Y0036259D01*
X0110520Y0036178D01*
X0110613Y0036095D01*
X0110704Y0036009D01*
X0110791Y0035920D01*
X0110876Y0035828D01*
X0110958Y0035734D01*
X0111037Y0035637D01*
X0111112Y0035537D01*
X0111185Y0035436D01*
X0111254Y0035332D01*
X0111320Y0035225D01*
X0111382Y0035117D01*
X0111441Y0035007D01*
X0111497Y0034895D01*
X0111549Y0034781D01*
X0111597Y0034666D01*
X0111642Y0034550D01*
X0111682Y0034431D01*
X0111720Y0034312D01*
X0111753Y0034192D01*
X0111782Y0034070D01*
X0111808Y0033948D01*
X0111830Y0033825D01*
X0111847Y0033701D01*
X0111861Y0033577D01*
X0111871Y0033453D01*
X0111877Y0033328D01*
X0111879Y0033203D01*
X0111877Y0033078D01*
X0111871Y0032953D01*
X0111861Y0032829D01*
X0111847Y0032705D01*
X0111830Y0032581D01*
X0111808Y0032458D01*
X0111782Y0032336D01*
X0111753Y0032214D01*
X0111720Y0032094D01*
X0111682Y0031975D01*
X0111642Y0031856D01*
X0111597Y0031740D01*
X0111549Y0031625D01*
X0111497Y0031511D01*
X0111441Y0031399D01*
X0111382Y0031289D01*
X0111320Y0031181D01*
X0111254Y0031074D01*
X0111185Y0030970D01*
X0111112Y0030869D01*
X0111037Y0030769D01*
X0110958Y0030672D01*
X0110876Y0030578D01*
X0110791Y0030486D01*
X0110704Y0030397D01*
X0110613Y0030311D01*
X0110520Y0030228D01*
X0110424Y0030147D01*
X0110326Y0030070D01*
X0110226Y0029996D01*
X0110123Y0029925D01*
X0110018Y0029858D01*
X0109910Y0029793D01*
X0109801Y0029733D01*
X0109690Y0029675D01*
X0109577Y0029622D01*
X0109463Y0029572D01*
X0109347Y0029525D01*
X0109230Y0029483D01*
X0109111Y0029444D01*
X0108991Y0029408D01*
X0108870Y0029377D01*
X0108748Y0029349D01*
X0108626Y0029326D01*
X0108502Y0029306D01*
X0108378Y0029290D01*
X0108254Y0029278D01*
X0108129Y0029270D01*
X0108004Y0029266D01*
X0107880Y0029266D01*
X0107755Y0029270D01*
X0107630Y0029278D01*
X0107506Y0029290D01*
X0107382Y0029306D01*
X0107258Y0029326D01*
X0107136Y0029349D01*
X0107014Y0029377D01*
X0106893Y0029408D01*
X0106773Y0029444D01*
X0106654Y0029483D01*
X0106537Y0029525D01*
X0106421Y0029572D01*
X0106307Y0029622D01*
X0106194Y0029675D01*
X0106083Y0029733D01*
X0105973Y0029793D01*
X0105866Y0029858D01*
X0105761Y0029925D01*
X0105658Y0029996D01*
X0105558Y0030070D01*
X0105460Y0030147D01*
X0105364Y0030228D01*
X0105271Y0030311D01*
X0105180Y0030397D01*
X0105093Y0030486D01*
X0105008Y0030578D01*
X0104926Y0030672D01*
X0104847Y0030769D01*
X0104772Y0030869D01*
X0104699Y0030970D01*
X0104630Y0031074D01*
X0104564Y0031181D01*
X0104502Y0031289D01*
X0104443Y0031399D01*
X0104387Y0031511D01*
X0104335Y0031625D01*
X0104287Y0031740D01*
X0104242Y0031856D01*
X0104202Y0031975D01*
X0104164Y0032094D01*
X0104131Y0032214D01*
X0104102Y0032336D01*
X0104076Y0032458D01*
X0104054Y0032581D01*
X0104037Y0032705D01*
X0104023Y0032829D01*
X0104013Y0032953D01*
X0104007Y0033078D01*
X0104005Y0033203D01*
X0104005Y0068636D02*
X0104007Y0068761D01*
X0104013Y0068886D01*
X0104023Y0069010D01*
X0104037Y0069134D01*
X0104054Y0069258D01*
X0104076Y0069381D01*
X0104102Y0069503D01*
X0104131Y0069625D01*
X0104164Y0069745D01*
X0104202Y0069864D01*
X0104242Y0069983D01*
X0104287Y0070099D01*
X0104335Y0070214D01*
X0104387Y0070328D01*
X0104443Y0070440D01*
X0104502Y0070550D01*
X0104564Y0070658D01*
X0104630Y0070765D01*
X0104699Y0070869D01*
X0104772Y0070970D01*
X0104847Y0071070D01*
X0104926Y0071167D01*
X0105008Y0071261D01*
X0105093Y0071353D01*
X0105180Y0071442D01*
X0105271Y0071528D01*
X0105364Y0071611D01*
X0105460Y0071692D01*
X0105558Y0071769D01*
X0105658Y0071843D01*
X0105761Y0071914D01*
X0105866Y0071981D01*
X0105974Y0072046D01*
X0106083Y0072106D01*
X0106194Y0072164D01*
X0106307Y0072217D01*
X0106421Y0072267D01*
X0106537Y0072314D01*
X0106654Y0072356D01*
X0106773Y0072395D01*
X0106893Y0072431D01*
X0107014Y0072462D01*
X0107136Y0072490D01*
X0107258Y0072513D01*
X0107382Y0072533D01*
X0107506Y0072549D01*
X0107630Y0072561D01*
X0107755Y0072569D01*
X0107880Y0072573D01*
X0108004Y0072573D01*
X0108129Y0072569D01*
X0108254Y0072561D01*
X0108378Y0072549D01*
X0108502Y0072533D01*
X0108626Y0072513D01*
X0108748Y0072490D01*
X0108870Y0072462D01*
X0108991Y0072431D01*
X0109111Y0072395D01*
X0109230Y0072356D01*
X0109347Y0072314D01*
X0109463Y0072267D01*
X0109577Y0072217D01*
X0109690Y0072164D01*
X0109801Y0072106D01*
X0109911Y0072046D01*
X0110018Y0071981D01*
X0110123Y0071914D01*
X0110226Y0071843D01*
X0110326Y0071769D01*
X0110424Y0071692D01*
X0110520Y0071611D01*
X0110613Y0071528D01*
X0110704Y0071442D01*
X0110791Y0071353D01*
X0110876Y0071261D01*
X0110958Y0071167D01*
X0111037Y0071070D01*
X0111112Y0070970D01*
X0111185Y0070869D01*
X0111254Y0070765D01*
X0111320Y0070658D01*
X0111382Y0070550D01*
X0111441Y0070440D01*
X0111497Y0070328D01*
X0111549Y0070214D01*
X0111597Y0070099D01*
X0111642Y0069983D01*
X0111682Y0069864D01*
X0111720Y0069745D01*
X0111753Y0069625D01*
X0111782Y0069503D01*
X0111808Y0069381D01*
X0111830Y0069258D01*
X0111847Y0069134D01*
X0111861Y0069010D01*
X0111871Y0068886D01*
X0111877Y0068761D01*
X0111879Y0068636D01*
X0111877Y0068511D01*
X0111871Y0068386D01*
X0111861Y0068262D01*
X0111847Y0068138D01*
X0111830Y0068014D01*
X0111808Y0067891D01*
X0111782Y0067769D01*
X0111753Y0067647D01*
X0111720Y0067527D01*
X0111682Y0067408D01*
X0111642Y0067289D01*
X0111597Y0067173D01*
X0111549Y0067058D01*
X0111497Y0066944D01*
X0111441Y0066832D01*
X0111382Y0066722D01*
X0111320Y0066614D01*
X0111254Y0066507D01*
X0111185Y0066403D01*
X0111112Y0066302D01*
X0111037Y0066202D01*
X0110958Y0066105D01*
X0110876Y0066011D01*
X0110791Y0065919D01*
X0110704Y0065830D01*
X0110613Y0065744D01*
X0110520Y0065661D01*
X0110424Y0065580D01*
X0110326Y0065503D01*
X0110226Y0065429D01*
X0110123Y0065358D01*
X0110018Y0065291D01*
X0109910Y0065226D01*
X0109801Y0065166D01*
X0109690Y0065108D01*
X0109577Y0065055D01*
X0109463Y0065005D01*
X0109347Y0064958D01*
X0109230Y0064916D01*
X0109111Y0064877D01*
X0108991Y0064841D01*
X0108870Y0064810D01*
X0108748Y0064782D01*
X0108626Y0064759D01*
X0108502Y0064739D01*
X0108378Y0064723D01*
X0108254Y0064711D01*
X0108129Y0064703D01*
X0108004Y0064699D01*
X0107880Y0064699D01*
X0107755Y0064703D01*
X0107630Y0064711D01*
X0107506Y0064723D01*
X0107382Y0064739D01*
X0107258Y0064759D01*
X0107136Y0064782D01*
X0107014Y0064810D01*
X0106893Y0064841D01*
X0106773Y0064877D01*
X0106654Y0064916D01*
X0106537Y0064958D01*
X0106421Y0065005D01*
X0106307Y0065055D01*
X0106194Y0065108D01*
X0106083Y0065166D01*
X0105973Y0065226D01*
X0105866Y0065291D01*
X0105761Y0065358D01*
X0105658Y0065429D01*
X0105558Y0065503D01*
X0105460Y0065580D01*
X0105364Y0065661D01*
X0105271Y0065744D01*
X0105180Y0065830D01*
X0105093Y0065919D01*
X0105008Y0066011D01*
X0104926Y0066105D01*
X0104847Y0066202D01*
X0104772Y0066302D01*
X0104699Y0066403D01*
X0104630Y0066507D01*
X0104564Y0066614D01*
X0104502Y0066722D01*
X0104443Y0066832D01*
X0104387Y0066944D01*
X0104335Y0067058D01*
X0104287Y0067173D01*
X0104242Y0067289D01*
X0104202Y0067408D01*
X0104164Y0067527D01*
X0104131Y0067647D01*
X0104102Y0067769D01*
X0104076Y0067891D01*
X0104054Y0068014D01*
X0104037Y0068138D01*
X0104023Y0068262D01*
X0104013Y0068386D01*
X0104007Y0068511D01*
X0104005Y0068636D01*
M02*
