G75*
%MOIN*%
%OFA0B0*%
%FSLAX25Y25*%
%IPPOS*%
%LPD*%
%AMOC8*
5,1,8,0,0,1.08239X$1,22.5*
%
%ADD10C,0.00700*%
%ADD11C,0.01600*%
%ADD12C,0.02400*%
%ADD13C,0.00800*%
%ADD14C,0.00600*%
%ADD15C,0.00100*%
%ADD16C,0.00000*%
%ADD17C,0.00500*%
D10*
X0096875Y0048317D02*
X0099327Y0048317D01*
X0100144Y0049134D01*
X0099327Y0049951D01*
X0097692Y0049951D01*
X0096875Y0050769D01*
X0097692Y0051586D01*
X0100144Y0051586D01*
X0102031Y0051586D02*
X0102031Y0049134D01*
X0102848Y0048317D01*
X0103666Y0049134D01*
X0104483Y0048317D01*
X0105300Y0049134D01*
X0105300Y0051586D01*
X0107187Y0051586D02*
X0108005Y0051586D01*
X0108005Y0048317D01*
X0108822Y0048317D02*
X0107187Y0048317D01*
X0111442Y0049134D02*
X0112260Y0048317D01*
X0111442Y0049134D02*
X0111442Y0052403D01*
X0110625Y0051586D02*
X0112260Y0051586D01*
X0114063Y0050769D02*
X0114063Y0049134D01*
X0114880Y0048317D01*
X0117332Y0048317D01*
X0119219Y0048317D02*
X0119219Y0053221D01*
X0120036Y0051586D02*
X0119219Y0050769D01*
X0120036Y0051586D02*
X0121671Y0051586D01*
X0122488Y0050769D01*
X0122488Y0048317D01*
X0117332Y0051586D02*
X0114880Y0051586D01*
X0114063Y0050769D01*
X0108005Y0053221D02*
X0108005Y0054038D01*
X0183981Y0050769D02*
X0184798Y0051586D01*
X0187250Y0051586D01*
X0186433Y0049951D02*
X0184798Y0049951D01*
X0183981Y0050769D01*
X0183981Y0048317D02*
X0186433Y0048317D01*
X0187250Y0049134D01*
X0186433Y0049951D01*
X0189137Y0049134D02*
X0189955Y0048317D01*
X0190772Y0049134D01*
X0191589Y0048317D01*
X0192407Y0049134D01*
X0192407Y0051586D01*
X0194294Y0051586D02*
X0195111Y0051586D01*
X0195111Y0048317D01*
X0194294Y0048317D02*
X0195928Y0048317D01*
X0198549Y0049134D02*
X0199366Y0048317D01*
X0198549Y0049134D02*
X0198549Y0052403D01*
X0199366Y0051586D02*
X0197731Y0051586D01*
X0195111Y0053221D02*
X0195111Y0054038D01*
X0189137Y0051586D02*
X0189137Y0049134D01*
X0201169Y0049134D02*
X0201986Y0048317D01*
X0204438Y0048317D01*
X0206325Y0048317D02*
X0206325Y0053221D01*
X0207143Y0051586D02*
X0206325Y0050769D01*
X0207143Y0051586D02*
X0208777Y0051586D01*
X0209595Y0050769D01*
X0209595Y0048317D01*
X0204438Y0051586D02*
X0201986Y0051586D01*
X0201169Y0050769D01*
X0201169Y0049134D01*
X0074423Y0142120D02*
X0073606Y0141302D01*
X0072789Y0141302D01*
X0074423Y0142120D02*
X0074423Y0146206D01*
X0074423Y0142937D02*
X0071971Y0142937D01*
X0071154Y0143754D01*
X0071154Y0146206D01*
X0069309Y0146206D02*
X0068492Y0146206D01*
X0066857Y0144572D01*
X0066857Y0146206D02*
X0066857Y0142937D01*
X0064970Y0144572D02*
X0064970Y0145389D01*
X0064152Y0146206D01*
X0062518Y0146206D01*
X0061700Y0145389D01*
X0061700Y0143754D01*
X0062518Y0142937D01*
X0064152Y0142937D01*
X0064970Y0144572D02*
X0061700Y0144572D01*
X0059898Y0146206D02*
X0058263Y0146206D01*
X0059080Y0147024D02*
X0059080Y0143754D01*
X0059898Y0142937D01*
X0061532Y0139441D02*
X0061532Y0134537D01*
X0059080Y0134537D01*
X0058263Y0135354D01*
X0058263Y0136989D01*
X0059080Y0137806D01*
X0061532Y0137806D01*
X0063419Y0136989D02*
X0063419Y0135354D01*
X0064237Y0134537D01*
X0065871Y0134537D01*
X0066689Y0136172D02*
X0063419Y0136172D01*
X0063419Y0136989D02*
X0064237Y0137806D01*
X0065871Y0137806D01*
X0066689Y0136989D01*
X0066689Y0136172D01*
X0068576Y0136172D02*
X0070210Y0137806D01*
X0071028Y0137806D01*
X0068576Y0137806D02*
X0068576Y0134537D01*
X0056460Y0134537D02*
X0054825Y0134537D01*
X0055643Y0134537D02*
X0055643Y0139441D01*
X0054825Y0139441D01*
X0052938Y0136989D02*
X0052121Y0137806D01*
X0050486Y0137806D01*
X0049669Y0136989D01*
X0049669Y0135354D01*
X0050486Y0134537D01*
X0052121Y0134537D01*
X0052938Y0135354D01*
X0052938Y0136989D01*
X0047782Y0136989D02*
X0047782Y0134537D01*
X0047782Y0136989D02*
X0046965Y0137806D01*
X0045330Y0137806D01*
X0044512Y0136989D01*
X0044512Y0139441D02*
X0044512Y0134537D01*
X0044512Y0142937D02*
X0046965Y0142937D01*
X0047782Y0143754D01*
X0047782Y0145389D01*
X0046965Y0146206D01*
X0044512Y0146206D01*
X0044512Y0147841D02*
X0044512Y0142937D01*
X0049669Y0143754D02*
X0050486Y0144572D01*
X0052938Y0144572D01*
X0052938Y0145389D02*
X0052938Y0142937D01*
X0050486Y0142937D01*
X0049669Y0143754D01*
X0050486Y0146206D02*
X0052121Y0146206D01*
X0052938Y0145389D01*
X0054825Y0146206D02*
X0056460Y0146206D01*
X0055643Y0147024D02*
X0055643Y0143754D01*
X0056460Y0142937D01*
D11*
X0270442Y0075919D02*
X0268724Y0072879D01*
X0266933Y0069882D01*
X0265069Y0066929D01*
X0263133Y0064023D01*
X0261127Y0061165D01*
X0259052Y0058357D01*
X0256909Y0055601D01*
X0254699Y0052898D01*
X0252423Y0050249D01*
X0250084Y0047657D01*
X0247682Y0045123D01*
X0245219Y0042648D01*
X0242696Y0040234D01*
X0240114Y0037883D01*
X0237476Y0035596D01*
X0234783Y0033373D01*
X0232037Y0031217D01*
X0229238Y0029129D01*
X0226389Y0027110D01*
X0223492Y0025161D01*
X0220548Y0023283D01*
X0217559Y0021478D01*
X0214527Y0019747D01*
X0211454Y0018090D01*
X0208341Y0016509D01*
X0205190Y0015004D01*
X0202003Y0013577D01*
X0198783Y0012228D01*
X0195530Y0010958D01*
X0192247Y0009768D01*
X0188937Y0008659D01*
X0185600Y0007630D01*
X0182239Y0006684D01*
X0178856Y0005820D01*
X0175452Y0005039D01*
X0172031Y0004342D01*
X0168594Y0003728D01*
X0165142Y0003198D01*
X0161679Y0002753D01*
X0158206Y0002393D01*
X0154725Y0002118D01*
X0151239Y0001928D01*
X0147749Y0001823D01*
X0144257Y0001803D01*
X0140766Y0001869D01*
X0137278Y0002020D01*
X0133794Y0002256D01*
X0130317Y0002578D01*
X0126849Y0002984D01*
X0123392Y0003475D01*
X0119948Y0004050D01*
X0116519Y0004709D01*
X0113108Y0005452D01*
X0109715Y0006277D01*
X0106344Y0007186D01*
X0102995Y0008177D01*
X0099672Y0009249D01*
X0096377Y0010402D01*
X0093110Y0011635D01*
X0089874Y0012948D01*
X0086672Y0014339D01*
X0083504Y0015809D01*
X0080374Y0017355D01*
X0077282Y0018977D01*
X0074230Y0020675D01*
X0071222Y0022446D01*
X0068257Y0024291D01*
X0065338Y0026207D01*
X0062467Y0028194D01*
X0059645Y0030251D01*
X0056875Y0032376D01*
X0054157Y0034568D01*
X0051493Y0036826D01*
X0048886Y0039148D01*
X0046336Y0041533D01*
X0043845Y0043980D01*
X0041415Y0046487D01*
X0039046Y0049053D01*
X0036741Y0051675D01*
X0034501Y0054354D01*
X0032327Y0057086D01*
X0030220Y0059871D01*
X0028182Y0062706D01*
X0026214Y0065590D01*
X0024317Y0068522D01*
X0022493Y0071498D01*
X0020741Y0074519D01*
X0019064Y0077582D01*
X0017462Y0080684D01*
X0015937Y0083825D01*
X0014488Y0087002D01*
X0013118Y0090214D01*
X0011827Y0093458D01*
X0010615Y0096733D01*
X0009484Y0100036D01*
X0008434Y0103366D01*
X0007465Y0106721D01*
X0006579Y0110098D01*
X0005775Y0113496D01*
X0005055Y0116912D01*
X0004419Y0120346D01*
X0003866Y0123793D01*
X0003398Y0127254D01*
X0003015Y0130724D01*
X0002717Y0134203D01*
X0002504Y0137688D01*
X0002376Y0141178D01*
X0002333Y0144669D01*
X0002376Y0148160D01*
X0002504Y0151650D01*
X0002717Y0155135D01*
X0003015Y0158614D01*
X0003398Y0162084D01*
X0003866Y0165545D01*
X0004419Y0168992D01*
X0005055Y0172426D01*
X0005775Y0175842D01*
X0006579Y0179240D01*
X0007465Y0182617D01*
X0008434Y0185972D01*
X0009484Y0189302D01*
X0010615Y0192605D01*
X0011827Y0195880D01*
X0013118Y0199124D01*
X0014488Y0202336D01*
X0015937Y0205513D01*
X0017462Y0208654D01*
X0019064Y0211756D01*
X0020741Y0214819D01*
X0022493Y0217840D01*
X0024317Y0220816D01*
X0026214Y0223748D01*
X0028182Y0226632D01*
X0030220Y0229467D01*
X0032327Y0232252D01*
X0034501Y0234984D01*
X0036741Y0237663D01*
X0039046Y0240285D01*
X0041415Y0242851D01*
X0043845Y0245358D01*
X0046336Y0247805D01*
X0048886Y0250190D01*
X0051493Y0252512D01*
X0054157Y0254770D01*
X0056875Y0256962D01*
X0059645Y0259087D01*
X0062467Y0261144D01*
X0065338Y0263131D01*
X0068257Y0265047D01*
X0071222Y0266892D01*
X0074230Y0268663D01*
X0077282Y0270361D01*
X0080374Y0271983D01*
X0083504Y0273529D01*
X0086672Y0274999D01*
X0089874Y0276390D01*
X0093110Y0277703D01*
X0096377Y0278936D01*
X0099672Y0280089D01*
X0102995Y0281161D01*
X0106344Y0282152D01*
X0109715Y0283061D01*
X0113108Y0283886D01*
X0116519Y0284629D01*
X0119948Y0285288D01*
X0123392Y0285863D01*
X0126849Y0286354D01*
X0130317Y0286760D01*
X0133794Y0287082D01*
X0137278Y0287318D01*
X0140766Y0287469D01*
X0144257Y0287535D01*
X0147749Y0287515D01*
X0151239Y0287410D01*
X0154725Y0287220D01*
X0158206Y0286945D01*
X0161679Y0286585D01*
X0165142Y0286140D01*
X0168594Y0285610D01*
X0172031Y0284996D01*
X0175452Y0284299D01*
X0178856Y0283518D01*
X0182239Y0282654D01*
X0185600Y0281708D01*
X0188937Y0280679D01*
X0192247Y0279570D01*
X0195530Y0278380D01*
X0198783Y0277110D01*
X0202003Y0275761D01*
X0205190Y0274334D01*
X0208341Y0272829D01*
X0211454Y0271248D01*
X0214527Y0269591D01*
X0217559Y0267860D01*
X0220548Y0266055D01*
X0223492Y0264177D01*
X0226389Y0262228D01*
X0229238Y0260209D01*
X0232037Y0258121D01*
X0234783Y0255965D01*
X0237476Y0253742D01*
X0240114Y0251455D01*
X0242696Y0249104D01*
X0245219Y0246690D01*
X0247682Y0244215D01*
X0250084Y0241681D01*
X0252423Y0239089D01*
X0254699Y0236440D01*
X0256909Y0233737D01*
X0259052Y0230981D01*
X0261127Y0228173D01*
X0263133Y0225315D01*
X0265069Y0222409D01*
X0266933Y0219456D01*
X0268724Y0216459D01*
X0270442Y0213419D01*
X0145442Y0138419D01*
X0270442Y0075919D01*
D12*
X0057942Y0050919D02*
X0057844Y0106333D01*
X0051741Y0089797D02*
X0039241Y0089797D01*
X0057942Y0050919D02*
X0083434Y0040978D01*
X0219851Y0040978D01*
X0220245Y0060860D02*
X0170639Y0060860D01*
X0132942Y0088419D01*
X0132942Y0175919D01*
X0207844Y0220900D01*
X0208040Y0230939D02*
X0133237Y0230939D01*
X0133040Y0230939D02*
X0057844Y0185073D01*
X0057942Y0200919D02*
X0057942Y0213419D01*
X0051938Y0206923D02*
X0064143Y0206923D01*
X0064143Y0206726D01*
X0120442Y0200919D02*
X0133040Y0220309D01*
X0133040Y0220112D01*
X0120442Y0200919D02*
X0120442Y0088419D01*
X0132942Y0075919D01*
X0132647Y0060663D01*
X0083237Y0060663D01*
D13*
X0072903Y0096923D02*
X0042981Y0096923D01*
X0072902Y0096924D02*
X0073901Y0097303D01*
X0074890Y0097706D01*
X0075869Y0098133D01*
X0076837Y0098584D01*
X0077794Y0099058D01*
X0078740Y0099555D01*
X0079672Y0100076D01*
X0080592Y0100619D01*
X0081498Y0101184D01*
X0082391Y0101772D01*
X0083268Y0102381D01*
X0084131Y0103011D01*
X0084977Y0103662D01*
X0085808Y0104333D01*
X0086622Y0105025D01*
X0087419Y0105736D01*
X0088198Y0106467D01*
X0088959Y0107216D01*
X0089702Y0107984D01*
X0090426Y0108769D01*
X0091130Y0109572D01*
X0091815Y0110392D01*
X0092479Y0111229D01*
X0093123Y0112081D01*
X0093746Y0112949D01*
X0094347Y0113831D01*
X0094927Y0114729D01*
X0095484Y0115640D01*
X0096020Y0116564D01*
X0096532Y0117501D01*
X0097021Y0118451D01*
X0097488Y0119412D01*
X0097930Y0120384D01*
X0098349Y0121367D01*
X0098743Y0122359D01*
X0099114Y0123361D01*
X0099459Y0124372D01*
X0099780Y0125391D01*
X0100076Y0126417D01*
X0100347Y0127450D01*
X0100592Y0128490D01*
X0100812Y0129535D01*
X0101007Y0130585D01*
X0101176Y0131640D01*
X0101318Y0132698D01*
X0101436Y0133760D01*
X0101527Y0134824D01*
X0101592Y0135891D01*
X0101631Y0136958D01*
X0101644Y0138026D01*
X0101631Y0139094D01*
X0101592Y0140161D01*
X0101527Y0141228D01*
X0101436Y0142292D01*
X0101318Y0143354D01*
X0101176Y0144412D01*
X0101007Y0145467D01*
X0100812Y0146517D01*
X0100592Y0147562D01*
X0100347Y0148602D01*
X0100076Y0149635D01*
X0099780Y0150661D01*
X0099459Y0151680D01*
X0099114Y0152691D01*
X0098743Y0153693D01*
X0098349Y0154685D01*
X0097930Y0155668D01*
X0097488Y0156640D01*
X0097021Y0157601D01*
X0096532Y0158551D01*
X0096020Y0159488D01*
X0095484Y0160412D01*
X0094927Y0161323D01*
X0094347Y0162221D01*
X0093746Y0163103D01*
X0093123Y0163971D01*
X0092479Y0164823D01*
X0091815Y0165660D01*
X0091130Y0166480D01*
X0090426Y0167283D01*
X0089702Y0168068D01*
X0088959Y0168836D01*
X0088198Y0169585D01*
X0087419Y0170316D01*
X0086622Y0171027D01*
X0085808Y0171719D01*
X0084977Y0172390D01*
X0084131Y0173041D01*
X0083268Y0173671D01*
X0082391Y0174280D01*
X0081498Y0174868D01*
X0080592Y0175433D01*
X0079672Y0175976D01*
X0078740Y0176497D01*
X0077794Y0176994D01*
X0076837Y0177468D01*
X0075869Y0177919D01*
X0074890Y0178346D01*
X0073901Y0178749D01*
X0072902Y0179128D01*
X0072903Y0179128D02*
X0072903Y0190860D01*
X0042981Y0190860D01*
X0042981Y0179128D01*
X0042982Y0179128D02*
X0041983Y0178749D01*
X0040994Y0178346D01*
X0040015Y0177919D01*
X0039047Y0177468D01*
X0038090Y0176994D01*
X0037144Y0176497D01*
X0036212Y0175976D01*
X0035292Y0175433D01*
X0034386Y0174868D01*
X0033493Y0174280D01*
X0032616Y0173671D01*
X0031753Y0173041D01*
X0030907Y0172390D01*
X0030076Y0171719D01*
X0029262Y0171027D01*
X0028465Y0170316D01*
X0027686Y0169585D01*
X0026925Y0168836D01*
X0026182Y0168068D01*
X0025458Y0167283D01*
X0024754Y0166480D01*
X0024069Y0165660D01*
X0023405Y0164823D01*
X0022761Y0163971D01*
X0022138Y0163103D01*
X0021537Y0162221D01*
X0020957Y0161323D01*
X0020400Y0160412D01*
X0019864Y0159488D01*
X0019352Y0158551D01*
X0018863Y0157601D01*
X0018396Y0156640D01*
X0017954Y0155668D01*
X0017535Y0154685D01*
X0017141Y0153693D01*
X0016770Y0152691D01*
X0016425Y0151680D01*
X0016104Y0150661D01*
X0015808Y0149635D01*
X0015537Y0148602D01*
X0015292Y0147562D01*
X0015072Y0146517D01*
X0014877Y0145467D01*
X0014708Y0144412D01*
X0014566Y0143354D01*
X0014448Y0142292D01*
X0014357Y0141228D01*
X0014292Y0140161D01*
X0014253Y0139094D01*
X0014240Y0138026D01*
X0014253Y0136958D01*
X0014292Y0135891D01*
X0014357Y0134824D01*
X0014448Y0133760D01*
X0014566Y0132698D01*
X0014708Y0131640D01*
X0014877Y0130585D01*
X0015072Y0129535D01*
X0015292Y0128490D01*
X0015537Y0127450D01*
X0015808Y0126417D01*
X0016104Y0125391D01*
X0016425Y0124372D01*
X0016770Y0123361D01*
X0017141Y0122359D01*
X0017535Y0121367D01*
X0017954Y0120384D01*
X0018396Y0119412D01*
X0018863Y0118451D01*
X0019352Y0117501D01*
X0019864Y0116564D01*
X0020400Y0115640D01*
X0020957Y0114729D01*
X0021537Y0113831D01*
X0022138Y0112949D01*
X0022761Y0112081D01*
X0023405Y0111229D01*
X0024069Y0110392D01*
X0024754Y0109572D01*
X0025458Y0108769D01*
X0026182Y0107984D01*
X0026925Y0107216D01*
X0027686Y0106467D01*
X0028465Y0105736D01*
X0029262Y0105025D01*
X0030076Y0104333D01*
X0030907Y0103662D01*
X0031753Y0103011D01*
X0032616Y0102381D01*
X0033493Y0101772D01*
X0034386Y0101184D01*
X0035292Y0100619D01*
X0036212Y0100076D01*
X0037144Y0099555D01*
X0038090Y0099058D01*
X0039047Y0098584D01*
X0040015Y0098133D01*
X0040994Y0097706D01*
X0041983Y0097303D01*
X0042982Y0096924D01*
X0125442Y0215919D02*
X0140442Y0215919D01*
X0200442Y0215919D02*
X0215442Y0215919D01*
D14*
X0197942Y0225919D02*
X0197945Y0226164D01*
X0197954Y0226410D01*
X0197969Y0226655D01*
X0197990Y0226899D01*
X0198017Y0227143D01*
X0198050Y0227386D01*
X0198089Y0227629D01*
X0198134Y0227870D01*
X0198185Y0228110D01*
X0198242Y0228349D01*
X0198304Y0228586D01*
X0198373Y0228822D01*
X0198447Y0229056D01*
X0198527Y0229288D01*
X0198612Y0229518D01*
X0198703Y0229746D01*
X0198800Y0229971D01*
X0198902Y0230195D01*
X0199010Y0230415D01*
X0199123Y0230633D01*
X0199241Y0230848D01*
X0199365Y0231060D01*
X0199493Y0231269D01*
X0199627Y0231475D01*
X0199766Y0231677D01*
X0199910Y0231876D01*
X0200059Y0232071D01*
X0200212Y0232263D01*
X0200370Y0232451D01*
X0200532Y0232635D01*
X0200700Y0232814D01*
X0200871Y0232990D01*
X0201047Y0233161D01*
X0201226Y0233329D01*
X0201410Y0233491D01*
X0201598Y0233649D01*
X0201790Y0233802D01*
X0201985Y0233951D01*
X0202184Y0234095D01*
X0202386Y0234234D01*
X0202592Y0234368D01*
X0202801Y0234496D01*
X0203013Y0234620D01*
X0203228Y0234738D01*
X0203446Y0234851D01*
X0203666Y0234959D01*
X0203890Y0235061D01*
X0204115Y0235158D01*
X0204343Y0235249D01*
X0204573Y0235334D01*
X0204805Y0235414D01*
X0205039Y0235488D01*
X0205275Y0235557D01*
X0205512Y0235619D01*
X0205751Y0235676D01*
X0205991Y0235727D01*
X0206232Y0235772D01*
X0206475Y0235811D01*
X0206718Y0235844D01*
X0206962Y0235871D01*
X0207206Y0235892D01*
X0207451Y0235907D01*
X0207697Y0235916D01*
X0207942Y0235919D01*
X0208187Y0235916D01*
X0208433Y0235907D01*
X0208678Y0235892D01*
X0208922Y0235871D01*
X0209166Y0235844D01*
X0209409Y0235811D01*
X0209652Y0235772D01*
X0209893Y0235727D01*
X0210133Y0235676D01*
X0210372Y0235619D01*
X0210609Y0235557D01*
X0210845Y0235488D01*
X0211079Y0235414D01*
X0211311Y0235334D01*
X0211541Y0235249D01*
X0211769Y0235158D01*
X0211994Y0235061D01*
X0212218Y0234959D01*
X0212438Y0234851D01*
X0212656Y0234738D01*
X0212871Y0234620D01*
X0213083Y0234496D01*
X0213292Y0234368D01*
X0213498Y0234234D01*
X0213700Y0234095D01*
X0213899Y0233951D01*
X0214094Y0233802D01*
X0214286Y0233649D01*
X0214474Y0233491D01*
X0214658Y0233329D01*
X0214837Y0233161D01*
X0215013Y0232990D01*
X0215184Y0232814D01*
X0215352Y0232635D01*
X0215514Y0232451D01*
X0215672Y0232263D01*
X0215825Y0232071D01*
X0215974Y0231876D01*
X0216118Y0231677D01*
X0216257Y0231475D01*
X0216391Y0231269D01*
X0216519Y0231060D01*
X0216643Y0230848D01*
X0216761Y0230633D01*
X0216874Y0230415D01*
X0216982Y0230195D01*
X0217084Y0229971D01*
X0217181Y0229746D01*
X0217272Y0229518D01*
X0217357Y0229288D01*
X0217437Y0229056D01*
X0217511Y0228822D01*
X0217580Y0228586D01*
X0217642Y0228349D01*
X0217699Y0228110D01*
X0217750Y0227870D01*
X0217795Y0227629D01*
X0217834Y0227386D01*
X0217867Y0227143D01*
X0217894Y0226899D01*
X0217915Y0226655D01*
X0217930Y0226410D01*
X0217939Y0226164D01*
X0217942Y0225919D01*
X0217939Y0225674D01*
X0217930Y0225428D01*
X0217915Y0225183D01*
X0217894Y0224939D01*
X0217867Y0224695D01*
X0217834Y0224452D01*
X0217795Y0224209D01*
X0217750Y0223968D01*
X0217699Y0223728D01*
X0217642Y0223489D01*
X0217580Y0223252D01*
X0217511Y0223016D01*
X0217437Y0222782D01*
X0217357Y0222550D01*
X0217272Y0222320D01*
X0217181Y0222092D01*
X0217084Y0221867D01*
X0216982Y0221643D01*
X0216874Y0221423D01*
X0216761Y0221205D01*
X0216643Y0220990D01*
X0216519Y0220778D01*
X0216391Y0220569D01*
X0216257Y0220363D01*
X0216118Y0220161D01*
X0215974Y0219962D01*
X0215825Y0219767D01*
X0215672Y0219575D01*
X0215514Y0219387D01*
X0215352Y0219203D01*
X0215184Y0219024D01*
X0215013Y0218848D01*
X0214837Y0218677D01*
X0214658Y0218509D01*
X0214474Y0218347D01*
X0214286Y0218189D01*
X0214094Y0218036D01*
X0213899Y0217887D01*
X0213700Y0217743D01*
X0213498Y0217604D01*
X0213292Y0217470D01*
X0213083Y0217342D01*
X0212871Y0217218D01*
X0212656Y0217100D01*
X0212438Y0216987D01*
X0212218Y0216879D01*
X0211994Y0216777D01*
X0211769Y0216680D01*
X0211541Y0216589D01*
X0211311Y0216504D01*
X0211079Y0216424D01*
X0210845Y0216350D01*
X0210609Y0216281D01*
X0210372Y0216219D01*
X0210133Y0216162D01*
X0209893Y0216111D01*
X0209652Y0216066D01*
X0209409Y0216027D01*
X0209166Y0215994D01*
X0208922Y0215967D01*
X0208678Y0215946D01*
X0208433Y0215931D01*
X0208187Y0215922D01*
X0207942Y0215919D01*
X0207697Y0215922D01*
X0207451Y0215931D01*
X0207206Y0215946D01*
X0206962Y0215967D01*
X0206718Y0215994D01*
X0206475Y0216027D01*
X0206232Y0216066D01*
X0205991Y0216111D01*
X0205751Y0216162D01*
X0205512Y0216219D01*
X0205275Y0216281D01*
X0205039Y0216350D01*
X0204805Y0216424D01*
X0204573Y0216504D01*
X0204343Y0216589D01*
X0204115Y0216680D01*
X0203890Y0216777D01*
X0203666Y0216879D01*
X0203446Y0216987D01*
X0203228Y0217100D01*
X0203013Y0217218D01*
X0202801Y0217342D01*
X0202592Y0217470D01*
X0202386Y0217604D01*
X0202184Y0217743D01*
X0201985Y0217887D01*
X0201790Y0218036D01*
X0201598Y0218189D01*
X0201410Y0218347D01*
X0201226Y0218509D01*
X0201047Y0218677D01*
X0200871Y0218848D01*
X0200700Y0219024D01*
X0200532Y0219203D01*
X0200370Y0219387D01*
X0200212Y0219575D01*
X0200059Y0219767D01*
X0199910Y0219962D01*
X0199766Y0220161D01*
X0199627Y0220363D01*
X0199493Y0220569D01*
X0199365Y0220778D01*
X0199241Y0220990D01*
X0199123Y0221205D01*
X0199010Y0221423D01*
X0198902Y0221643D01*
X0198800Y0221867D01*
X0198703Y0222092D01*
X0198612Y0222320D01*
X0198527Y0222550D01*
X0198447Y0222782D01*
X0198373Y0223016D01*
X0198304Y0223252D01*
X0198242Y0223489D01*
X0198185Y0223728D01*
X0198134Y0223968D01*
X0198089Y0224209D01*
X0198050Y0224452D01*
X0198017Y0224695D01*
X0197990Y0224939D01*
X0197969Y0225183D01*
X0197954Y0225428D01*
X0197945Y0225674D01*
X0197942Y0225919D01*
X0122942Y0225919D02*
X0122945Y0226164D01*
X0122954Y0226410D01*
X0122969Y0226655D01*
X0122990Y0226899D01*
X0123017Y0227143D01*
X0123050Y0227386D01*
X0123089Y0227629D01*
X0123134Y0227870D01*
X0123185Y0228110D01*
X0123242Y0228349D01*
X0123304Y0228586D01*
X0123373Y0228822D01*
X0123447Y0229056D01*
X0123527Y0229288D01*
X0123612Y0229518D01*
X0123703Y0229746D01*
X0123800Y0229971D01*
X0123902Y0230195D01*
X0124010Y0230415D01*
X0124123Y0230633D01*
X0124241Y0230848D01*
X0124365Y0231060D01*
X0124493Y0231269D01*
X0124627Y0231475D01*
X0124766Y0231677D01*
X0124910Y0231876D01*
X0125059Y0232071D01*
X0125212Y0232263D01*
X0125370Y0232451D01*
X0125532Y0232635D01*
X0125700Y0232814D01*
X0125871Y0232990D01*
X0126047Y0233161D01*
X0126226Y0233329D01*
X0126410Y0233491D01*
X0126598Y0233649D01*
X0126790Y0233802D01*
X0126985Y0233951D01*
X0127184Y0234095D01*
X0127386Y0234234D01*
X0127592Y0234368D01*
X0127801Y0234496D01*
X0128013Y0234620D01*
X0128228Y0234738D01*
X0128446Y0234851D01*
X0128666Y0234959D01*
X0128890Y0235061D01*
X0129115Y0235158D01*
X0129343Y0235249D01*
X0129573Y0235334D01*
X0129805Y0235414D01*
X0130039Y0235488D01*
X0130275Y0235557D01*
X0130512Y0235619D01*
X0130751Y0235676D01*
X0130991Y0235727D01*
X0131232Y0235772D01*
X0131475Y0235811D01*
X0131718Y0235844D01*
X0131962Y0235871D01*
X0132206Y0235892D01*
X0132451Y0235907D01*
X0132697Y0235916D01*
X0132942Y0235919D01*
X0133187Y0235916D01*
X0133433Y0235907D01*
X0133678Y0235892D01*
X0133922Y0235871D01*
X0134166Y0235844D01*
X0134409Y0235811D01*
X0134652Y0235772D01*
X0134893Y0235727D01*
X0135133Y0235676D01*
X0135372Y0235619D01*
X0135609Y0235557D01*
X0135845Y0235488D01*
X0136079Y0235414D01*
X0136311Y0235334D01*
X0136541Y0235249D01*
X0136769Y0235158D01*
X0136994Y0235061D01*
X0137218Y0234959D01*
X0137438Y0234851D01*
X0137656Y0234738D01*
X0137871Y0234620D01*
X0138083Y0234496D01*
X0138292Y0234368D01*
X0138498Y0234234D01*
X0138700Y0234095D01*
X0138899Y0233951D01*
X0139094Y0233802D01*
X0139286Y0233649D01*
X0139474Y0233491D01*
X0139658Y0233329D01*
X0139837Y0233161D01*
X0140013Y0232990D01*
X0140184Y0232814D01*
X0140352Y0232635D01*
X0140514Y0232451D01*
X0140672Y0232263D01*
X0140825Y0232071D01*
X0140974Y0231876D01*
X0141118Y0231677D01*
X0141257Y0231475D01*
X0141391Y0231269D01*
X0141519Y0231060D01*
X0141643Y0230848D01*
X0141761Y0230633D01*
X0141874Y0230415D01*
X0141982Y0230195D01*
X0142084Y0229971D01*
X0142181Y0229746D01*
X0142272Y0229518D01*
X0142357Y0229288D01*
X0142437Y0229056D01*
X0142511Y0228822D01*
X0142580Y0228586D01*
X0142642Y0228349D01*
X0142699Y0228110D01*
X0142750Y0227870D01*
X0142795Y0227629D01*
X0142834Y0227386D01*
X0142867Y0227143D01*
X0142894Y0226899D01*
X0142915Y0226655D01*
X0142930Y0226410D01*
X0142939Y0226164D01*
X0142942Y0225919D01*
X0142939Y0225674D01*
X0142930Y0225428D01*
X0142915Y0225183D01*
X0142894Y0224939D01*
X0142867Y0224695D01*
X0142834Y0224452D01*
X0142795Y0224209D01*
X0142750Y0223968D01*
X0142699Y0223728D01*
X0142642Y0223489D01*
X0142580Y0223252D01*
X0142511Y0223016D01*
X0142437Y0222782D01*
X0142357Y0222550D01*
X0142272Y0222320D01*
X0142181Y0222092D01*
X0142084Y0221867D01*
X0141982Y0221643D01*
X0141874Y0221423D01*
X0141761Y0221205D01*
X0141643Y0220990D01*
X0141519Y0220778D01*
X0141391Y0220569D01*
X0141257Y0220363D01*
X0141118Y0220161D01*
X0140974Y0219962D01*
X0140825Y0219767D01*
X0140672Y0219575D01*
X0140514Y0219387D01*
X0140352Y0219203D01*
X0140184Y0219024D01*
X0140013Y0218848D01*
X0139837Y0218677D01*
X0139658Y0218509D01*
X0139474Y0218347D01*
X0139286Y0218189D01*
X0139094Y0218036D01*
X0138899Y0217887D01*
X0138700Y0217743D01*
X0138498Y0217604D01*
X0138292Y0217470D01*
X0138083Y0217342D01*
X0137871Y0217218D01*
X0137656Y0217100D01*
X0137438Y0216987D01*
X0137218Y0216879D01*
X0136994Y0216777D01*
X0136769Y0216680D01*
X0136541Y0216589D01*
X0136311Y0216504D01*
X0136079Y0216424D01*
X0135845Y0216350D01*
X0135609Y0216281D01*
X0135372Y0216219D01*
X0135133Y0216162D01*
X0134893Y0216111D01*
X0134652Y0216066D01*
X0134409Y0216027D01*
X0134166Y0215994D01*
X0133922Y0215967D01*
X0133678Y0215946D01*
X0133433Y0215931D01*
X0133187Y0215922D01*
X0132942Y0215919D01*
X0132697Y0215922D01*
X0132451Y0215931D01*
X0132206Y0215946D01*
X0131962Y0215967D01*
X0131718Y0215994D01*
X0131475Y0216027D01*
X0131232Y0216066D01*
X0130991Y0216111D01*
X0130751Y0216162D01*
X0130512Y0216219D01*
X0130275Y0216281D01*
X0130039Y0216350D01*
X0129805Y0216424D01*
X0129573Y0216504D01*
X0129343Y0216589D01*
X0129115Y0216680D01*
X0128890Y0216777D01*
X0128666Y0216879D01*
X0128446Y0216987D01*
X0128228Y0217100D01*
X0128013Y0217218D01*
X0127801Y0217342D01*
X0127592Y0217470D01*
X0127386Y0217604D01*
X0127184Y0217743D01*
X0126985Y0217887D01*
X0126790Y0218036D01*
X0126598Y0218189D01*
X0126410Y0218347D01*
X0126226Y0218509D01*
X0126047Y0218677D01*
X0125871Y0218848D01*
X0125700Y0219024D01*
X0125532Y0219203D01*
X0125370Y0219387D01*
X0125212Y0219575D01*
X0125059Y0219767D01*
X0124910Y0219962D01*
X0124766Y0220161D01*
X0124627Y0220363D01*
X0124493Y0220569D01*
X0124365Y0220778D01*
X0124241Y0220990D01*
X0124123Y0221205D01*
X0124010Y0221423D01*
X0123902Y0221643D01*
X0123800Y0221867D01*
X0123703Y0222092D01*
X0123612Y0222320D01*
X0123527Y0222550D01*
X0123447Y0222782D01*
X0123373Y0223016D01*
X0123304Y0223252D01*
X0123242Y0223489D01*
X0123185Y0223728D01*
X0123134Y0223968D01*
X0123089Y0224209D01*
X0123050Y0224452D01*
X0123017Y0224695D01*
X0122990Y0224939D01*
X0122969Y0225183D01*
X0122954Y0225428D01*
X0122945Y0225674D01*
X0122942Y0225919D01*
D15*
X0140751Y0215590D02*
X0140211Y0216310D01*
X0140212Y0216309D02*
X0140445Y0216490D01*
X0140673Y0216676D01*
X0140897Y0216868D01*
X0141116Y0217065D01*
X0141330Y0217267D01*
X0141539Y0217475D01*
X0141742Y0217688D01*
X0141941Y0217905D01*
X0142134Y0218128D01*
X0142322Y0218355D01*
X0142504Y0218586D01*
X0142681Y0218822D01*
X0142851Y0219063D01*
X0143016Y0219307D01*
X0143174Y0219555D01*
X0143327Y0219807D01*
X0143473Y0220063D01*
X0143613Y0220322D01*
X0143747Y0220585D01*
X0143874Y0220850D01*
X0143995Y0221119D01*
X0144109Y0221391D01*
X0144216Y0221665D01*
X0144317Y0221942D01*
X0144411Y0222221D01*
X0144498Y0222503D01*
X0144578Y0222786D01*
X0144651Y0223072D01*
X0144717Y0223359D01*
X0144776Y0223648D01*
X0144828Y0223938D01*
X0144873Y0224229D01*
X0144911Y0224521D01*
X0144941Y0224814D01*
X0144965Y0225108D01*
X0144981Y0225402D01*
X0144990Y0225696D01*
X0144992Y0225991D01*
X0144986Y0226286D01*
X0144974Y0226580D01*
X0144954Y0226874D01*
X0144927Y0227167D01*
X0144893Y0227460D01*
X0144852Y0227752D01*
X0144803Y0228042D01*
X0144748Y0228332D01*
X0144686Y0228619D01*
X0144616Y0228906D01*
X0144539Y0229190D01*
X0144456Y0229473D01*
X0144366Y0229753D01*
X0144269Y0230031D01*
X0144165Y0230307D01*
X0144054Y0230580D01*
X0143937Y0230850D01*
X0143813Y0231118D01*
X0143683Y0231382D01*
X0143546Y0231643D01*
X0143403Y0231900D01*
X0143253Y0232154D01*
X0143098Y0232405D01*
X0142936Y0232651D01*
X0142769Y0232893D01*
X0142595Y0233131D01*
X0142416Y0233365D01*
X0142231Y0233595D01*
X0142041Y0233819D01*
X0141845Y0234040D01*
X0141644Y0234255D01*
X0141437Y0234465D01*
X0141226Y0234670D01*
X0141009Y0234870D01*
X0140788Y0235065D01*
X0140562Y0235254D01*
X0140332Y0235437D01*
X0140097Y0235615D01*
X0139857Y0235787D01*
X0139614Y0235953D01*
X0139367Y0236113D01*
X0139116Y0236267D01*
X0138861Y0236415D01*
X0138602Y0236557D01*
X0138341Y0236692D01*
X0138076Y0236821D01*
X0137808Y0236943D01*
X0137537Y0237059D01*
X0137263Y0237168D01*
X0136987Y0237270D01*
X0136708Y0237365D01*
X0136427Y0237454D01*
X0136144Y0237536D01*
X0135859Y0237611D01*
X0135572Y0237678D01*
X0135284Y0237739D01*
X0134994Y0237793D01*
X0134703Y0237840D01*
X0134411Y0237879D01*
X0134119Y0237911D01*
X0133825Y0237937D01*
X0133531Y0237955D01*
X0133237Y0237965D01*
X0132942Y0237969D01*
X0132647Y0237965D01*
X0132353Y0237955D01*
X0132059Y0237937D01*
X0131765Y0237911D01*
X0131473Y0237879D01*
X0131181Y0237840D01*
X0130890Y0237793D01*
X0130600Y0237739D01*
X0130312Y0237678D01*
X0130025Y0237611D01*
X0129740Y0237536D01*
X0129457Y0237454D01*
X0129176Y0237365D01*
X0128897Y0237270D01*
X0128621Y0237168D01*
X0128347Y0237059D01*
X0128076Y0236943D01*
X0127808Y0236821D01*
X0127543Y0236692D01*
X0127282Y0236557D01*
X0127023Y0236415D01*
X0126768Y0236267D01*
X0126517Y0236113D01*
X0126270Y0235953D01*
X0126027Y0235787D01*
X0125787Y0235615D01*
X0125552Y0235437D01*
X0125322Y0235254D01*
X0125096Y0235065D01*
X0124875Y0234870D01*
X0124658Y0234670D01*
X0124447Y0234465D01*
X0124240Y0234255D01*
X0124039Y0234040D01*
X0123843Y0233819D01*
X0123653Y0233595D01*
X0123468Y0233365D01*
X0123289Y0233131D01*
X0123115Y0232893D01*
X0122948Y0232651D01*
X0122786Y0232405D01*
X0122631Y0232154D01*
X0122481Y0231900D01*
X0122338Y0231643D01*
X0122201Y0231382D01*
X0122071Y0231118D01*
X0121947Y0230850D01*
X0121830Y0230580D01*
X0121719Y0230307D01*
X0121615Y0230031D01*
X0121518Y0229753D01*
X0121428Y0229473D01*
X0121345Y0229190D01*
X0121268Y0228906D01*
X0121198Y0228619D01*
X0121136Y0228332D01*
X0121081Y0228042D01*
X0121032Y0227752D01*
X0120991Y0227460D01*
X0120957Y0227167D01*
X0120930Y0226874D01*
X0120910Y0226580D01*
X0120898Y0226286D01*
X0120892Y0225991D01*
X0120894Y0225696D01*
X0120903Y0225402D01*
X0120919Y0225108D01*
X0120943Y0224814D01*
X0120973Y0224521D01*
X0121011Y0224229D01*
X0121056Y0223938D01*
X0121108Y0223648D01*
X0121167Y0223359D01*
X0121233Y0223072D01*
X0121306Y0222786D01*
X0121386Y0222503D01*
X0121473Y0222221D01*
X0121567Y0221942D01*
X0121668Y0221665D01*
X0121775Y0221391D01*
X0121889Y0221119D01*
X0122010Y0220850D01*
X0122137Y0220585D01*
X0122271Y0220322D01*
X0122411Y0220063D01*
X0122557Y0219807D01*
X0122710Y0219555D01*
X0122868Y0219307D01*
X0123033Y0219063D01*
X0123203Y0218822D01*
X0123380Y0218586D01*
X0123562Y0218355D01*
X0123750Y0218128D01*
X0123943Y0217905D01*
X0124142Y0217688D01*
X0124345Y0217475D01*
X0124554Y0217267D01*
X0124768Y0217065D01*
X0124987Y0216868D01*
X0125211Y0216676D01*
X0125439Y0216490D01*
X0125672Y0216309D01*
X0125133Y0215590D01*
X0125132Y0215589D01*
X0124882Y0215783D01*
X0124636Y0215983D01*
X0124396Y0216189D01*
X0124161Y0216401D01*
X0123931Y0216619D01*
X0123706Y0216842D01*
X0123487Y0217070D01*
X0123273Y0217304D01*
X0123065Y0217543D01*
X0122863Y0217787D01*
X0122668Y0218036D01*
X0122478Y0218290D01*
X0122295Y0218548D01*
X0122118Y0218810D01*
X0121947Y0219077D01*
X0121783Y0219348D01*
X0121626Y0219623D01*
X0121475Y0219901D01*
X0121331Y0220184D01*
X0121195Y0220469D01*
X0121065Y0220758D01*
X0120942Y0221050D01*
X0120827Y0221345D01*
X0120719Y0221642D01*
X0120618Y0221943D01*
X0120524Y0222245D01*
X0120438Y0222550D01*
X0120359Y0222857D01*
X0120288Y0223165D01*
X0120225Y0223475D01*
X0120169Y0223787D01*
X0120120Y0224100D01*
X0120080Y0224414D01*
X0120047Y0224729D01*
X0120022Y0225045D01*
X0120004Y0225361D01*
X0119994Y0225677D01*
X0119992Y0225994D01*
X0119998Y0226311D01*
X0120011Y0226627D01*
X0120033Y0226943D01*
X0120061Y0227258D01*
X0120098Y0227573D01*
X0120142Y0227886D01*
X0120194Y0228199D01*
X0120254Y0228510D01*
X0120321Y0228819D01*
X0120396Y0229127D01*
X0120478Y0229433D01*
X0120567Y0229736D01*
X0120664Y0230038D01*
X0120769Y0230337D01*
X0120881Y0230633D01*
X0120999Y0230927D01*
X0121125Y0231217D01*
X0121258Y0231504D01*
X0121399Y0231789D01*
X0121546Y0232069D01*
X0121699Y0232346D01*
X0121860Y0232619D01*
X0122027Y0232888D01*
X0122201Y0233153D01*
X0122381Y0233413D01*
X0122567Y0233669D01*
X0122760Y0233920D01*
X0122958Y0234167D01*
X0123163Y0234409D01*
X0123373Y0234645D01*
X0123590Y0234877D01*
X0123812Y0235102D01*
X0124039Y0235323D01*
X0124271Y0235538D01*
X0124509Y0235747D01*
X0124752Y0235950D01*
X0125000Y0236148D01*
X0125252Y0236339D01*
X0125509Y0236524D01*
X0125771Y0236702D01*
X0126037Y0236874D01*
X0126306Y0237040D01*
X0126580Y0237199D01*
X0126858Y0237351D01*
X0127139Y0237496D01*
X0127424Y0237635D01*
X0127712Y0237766D01*
X0128004Y0237890D01*
X0128298Y0238008D01*
X0128595Y0238118D01*
X0128894Y0238220D01*
X0129196Y0238315D01*
X0129500Y0238403D01*
X0129807Y0238484D01*
X0130115Y0238557D01*
X0130425Y0238622D01*
X0130736Y0238680D01*
X0131049Y0238730D01*
X0131363Y0238772D01*
X0131677Y0238807D01*
X0131993Y0238834D01*
X0132309Y0238854D01*
X0132625Y0238865D01*
X0132942Y0238869D01*
X0133259Y0238865D01*
X0133575Y0238854D01*
X0133891Y0238834D01*
X0134207Y0238807D01*
X0134521Y0238772D01*
X0134835Y0238730D01*
X0135148Y0238680D01*
X0135459Y0238622D01*
X0135769Y0238557D01*
X0136077Y0238484D01*
X0136384Y0238403D01*
X0136688Y0238315D01*
X0136990Y0238220D01*
X0137289Y0238118D01*
X0137586Y0238008D01*
X0137880Y0237890D01*
X0138172Y0237766D01*
X0138460Y0237635D01*
X0138745Y0237496D01*
X0139026Y0237351D01*
X0139304Y0237199D01*
X0139578Y0237040D01*
X0139847Y0236874D01*
X0140113Y0236702D01*
X0140375Y0236524D01*
X0140632Y0236339D01*
X0140884Y0236148D01*
X0141132Y0235950D01*
X0141375Y0235747D01*
X0141613Y0235538D01*
X0141845Y0235323D01*
X0142072Y0235102D01*
X0142294Y0234877D01*
X0142511Y0234645D01*
X0142721Y0234409D01*
X0142926Y0234167D01*
X0143124Y0233920D01*
X0143317Y0233669D01*
X0143503Y0233413D01*
X0143683Y0233153D01*
X0143857Y0232888D01*
X0144024Y0232619D01*
X0144185Y0232346D01*
X0144338Y0232069D01*
X0144485Y0231789D01*
X0144626Y0231504D01*
X0144759Y0231217D01*
X0144885Y0230927D01*
X0145003Y0230633D01*
X0145115Y0230337D01*
X0145220Y0230038D01*
X0145317Y0229736D01*
X0145406Y0229433D01*
X0145488Y0229127D01*
X0145563Y0228819D01*
X0145630Y0228510D01*
X0145690Y0228199D01*
X0145742Y0227886D01*
X0145786Y0227573D01*
X0145823Y0227258D01*
X0145851Y0226943D01*
X0145873Y0226627D01*
X0145886Y0226311D01*
X0145892Y0225994D01*
X0145890Y0225677D01*
X0145880Y0225361D01*
X0145862Y0225045D01*
X0145837Y0224729D01*
X0145804Y0224414D01*
X0145764Y0224100D01*
X0145715Y0223787D01*
X0145659Y0223475D01*
X0145596Y0223165D01*
X0145525Y0222857D01*
X0145446Y0222550D01*
X0145360Y0222245D01*
X0145266Y0221943D01*
X0145165Y0221642D01*
X0145057Y0221345D01*
X0144942Y0221050D01*
X0144819Y0220758D01*
X0144689Y0220469D01*
X0144553Y0220184D01*
X0144409Y0219901D01*
X0144258Y0219623D01*
X0144101Y0219348D01*
X0143937Y0219077D01*
X0143766Y0218810D01*
X0143589Y0218548D01*
X0143406Y0218290D01*
X0143216Y0218036D01*
X0143021Y0217787D01*
X0142819Y0217543D01*
X0142611Y0217304D01*
X0142397Y0217070D01*
X0142178Y0216842D01*
X0141953Y0216619D01*
X0141723Y0216401D01*
X0141488Y0216189D01*
X0141248Y0215983D01*
X0141002Y0215783D01*
X0140752Y0215589D01*
X0140696Y0215664D01*
X0140944Y0215857D01*
X0141188Y0216056D01*
X0141426Y0216260D01*
X0141660Y0216470D01*
X0141888Y0216686D01*
X0142111Y0216908D01*
X0142329Y0217135D01*
X0142541Y0217367D01*
X0142747Y0217604D01*
X0142948Y0217846D01*
X0143142Y0218094D01*
X0143330Y0218345D01*
X0143512Y0218602D01*
X0143688Y0218862D01*
X0143857Y0219127D01*
X0144020Y0219396D01*
X0144176Y0219669D01*
X0144326Y0219945D01*
X0144468Y0220225D01*
X0144604Y0220509D01*
X0144733Y0220796D01*
X0144855Y0221086D01*
X0144969Y0221378D01*
X0145077Y0221674D01*
X0145177Y0221972D01*
X0145270Y0222272D01*
X0145355Y0222575D01*
X0145433Y0222879D01*
X0145504Y0223185D01*
X0145567Y0223493D01*
X0145623Y0223803D01*
X0145671Y0224113D01*
X0145711Y0224425D01*
X0145744Y0224738D01*
X0145769Y0225051D01*
X0145786Y0225365D01*
X0145796Y0225679D01*
X0145798Y0225994D01*
X0145792Y0226308D01*
X0145779Y0226622D01*
X0145758Y0226936D01*
X0145729Y0227249D01*
X0145693Y0227561D01*
X0145649Y0227872D01*
X0145597Y0228182D01*
X0145538Y0228491D01*
X0145471Y0228798D01*
X0145397Y0229104D01*
X0145316Y0229407D01*
X0145227Y0229709D01*
X0145130Y0230008D01*
X0145027Y0230305D01*
X0144916Y0230599D01*
X0144798Y0230890D01*
X0144673Y0231179D01*
X0144541Y0231464D01*
X0144402Y0231746D01*
X0144256Y0232024D01*
X0144103Y0232299D01*
X0143944Y0232570D01*
X0143778Y0232837D01*
X0143605Y0233100D01*
X0143427Y0233359D01*
X0143242Y0233613D01*
X0143050Y0233862D01*
X0142853Y0234107D01*
X0142650Y0234347D01*
X0142441Y0234582D01*
X0142226Y0234812D01*
X0142006Y0235036D01*
X0141781Y0235255D01*
X0141550Y0235468D01*
X0141314Y0235676D01*
X0141072Y0235878D01*
X0140827Y0236073D01*
X0140576Y0236263D01*
X0140321Y0236447D01*
X0140061Y0236624D01*
X0139797Y0236795D01*
X0139529Y0236959D01*
X0139257Y0237117D01*
X0138982Y0237268D01*
X0138702Y0237412D01*
X0138420Y0237550D01*
X0138134Y0237680D01*
X0137845Y0237804D01*
X0137552Y0237920D01*
X0137258Y0238029D01*
X0136960Y0238131D01*
X0136661Y0238225D01*
X0136358Y0238313D01*
X0136054Y0238393D01*
X0135749Y0238465D01*
X0135441Y0238530D01*
X0135132Y0238587D01*
X0134821Y0238637D01*
X0134510Y0238679D01*
X0134197Y0238714D01*
X0133884Y0238740D01*
X0133570Y0238760D01*
X0133256Y0238771D01*
X0132942Y0238775D01*
X0132628Y0238771D01*
X0132314Y0238760D01*
X0132000Y0238740D01*
X0131687Y0238714D01*
X0131374Y0238679D01*
X0131063Y0238637D01*
X0130752Y0238587D01*
X0130443Y0238530D01*
X0130135Y0238465D01*
X0129830Y0238393D01*
X0129526Y0238313D01*
X0129223Y0238225D01*
X0128924Y0238131D01*
X0128626Y0238029D01*
X0128332Y0237920D01*
X0128039Y0237804D01*
X0127750Y0237680D01*
X0127464Y0237550D01*
X0127182Y0237412D01*
X0126902Y0237268D01*
X0126627Y0237117D01*
X0126355Y0236959D01*
X0126087Y0236795D01*
X0125823Y0236624D01*
X0125563Y0236447D01*
X0125308Y0236263D01*
X0125057Y0236073D01*
X0124812Y0235878D01*
X0124570Y0235676D01*
X0124334Y0235468D01*
X0124103Y0235255D01*
X0123878Y0235036D01*
X0123658Y0234812D01*
X0123443Y0234582D01*
X0123234Y0234347D01*
X0123031Y0234107D01*
X0122834Y0233862D01*
X0122642Y0233613D01*
X0122457Y0233359D01*
X0122279Y0233100D01*
X0122106Y0232837D01*
X0121940Y0232570D01*
X0121781Y0232299D01*
X0121628Y0232024D01*
X0121482Y0231746D01*
X0121343Y0231464D01*
X0121211Y0231179D01*
X0121086Y0230890D01*
X0120968Y0230599D01*
X0120857Y0230305D01*
X0120754Y0230008D01*
X0120657Y0229709D01*
X0120568Y0229407D01*
X0120487Y0229104D01*
X0120413Y0228798D01*
X0120346Y0228491D01*
X0120287Y0228182D01*
X0120235Y0227872D01*
X0120191Y0227561D01*
X0120155Y0227249D01*
X0120126Y0226936D01*
X0120105Y0226622D01*
X0120092Y0226308D01*
X0120086Y0225994D01*
X0120088Y0225679D01*
X0120098Y0225365D01*
X0120115Y0225051D01*
X0120140Y0224738D01*
X0120173Y0224425D01*
X0120213Y0224113D01*
X0120261Y0223803D01*
X0120317Y0223493D01*
X0120380Y0223185D01*
X0120451Y0222879D01*
X0120529Y0222575D01*
X0120614Y0222272D01*
X0120707Y0221972D01*
X0120807Y0221674D01*
X0120915Y0221378D01*
X0121029Y0221086D01*
X0121151Y0220796D01*
X0121280Y0220509D01*
X0121416Y0220225D01*
X0121558Y0219945D01*
X0121708Y0219669D01*
X0121864Y0219396D01*
X0122027Y0219127D01*
X0122196Y0218862D01*
X0122372Y0218602D01*
X0122554Y0218345D01*
X0122742Y0218094D01*
X0122936Y0217846D01*
X0123137Y0217604D01*
X0123343Y0217367D01*
X0123555Y0217135D01*
X0123773Y0216908D01*
X0123996Y0216686D01*
X0124224Y0216470D01*
X0124458Y0216260D01*
X0124696Y0216056D01*
X0124940Y0215857D01*
X0125188Y0215664D01*
X0125245Y0215739D01*
X0124998Y0215931D01*
X0124756Y0216128D01*
X0124519Y0216331D01*
X0124288Y0216540D01*
X0124061Y0216754D01*
X0123839Y0216974D01*
X0123623Y0217199D01*
X0123413Y0217430D01*
X0123208Y0217665D01*
X0123009Y0217906D01*
X0122816Y0218151D01*
X0122630Y0218401D01*
X0122449Y0218655D01*
X0122274Y0218914D01*
X0122106Y0219177D01*
X0121945Y0219444D01*
X0121790Y0219715D01*
X0121641Y0219989D01*
X0121500Y0220267D01*
X0121365Y0220549D01*
X0121237Y0220833D01*
X0121116Y0221121D01*
X0121002Y0221412D01*
X0120896Y0221705D01*
X0120796Y0222001D01*
X0120704Y0222299D01*
X0120619Y0222599D01*
X0120542Y0222902D01*
X0120472Y0223206D01*
X0120409Y0223511D01*
X0120354Y0223818D01*
X0120306Y0224127D01*
X0120266Y0224436D01*
X0120234Y0224747D01*
X0120209Y0225058D01*
X0120192Y0225369D01*
X0120182Y0225681D01*
X0120180Y0225993D01*
X0120186Y0226305D01*
X0120199Y0226617D01*
X0120220Y0226928D01*
X0120248Y0227239D01*
X0120285Y0227549D01*
X0120328Y0227858D01*
X0120379Y0228166D01*
X0120438Y0228473D01*
X0120504Y0228777D01*
X0120578Y0229081D01*
X0120659Y0229382D01*
X0120747Y0229681D01*
X0120843Y0229978D01*
X0120946Y0230273D01*
X0121056Y0230565D01*
X0121173Y0230854D01*
X0121297Y0231141D01*
X0121428Y0231424D01*
X0121566Y0231704D01*
X0121711Y0231980D01*
X0121863Y0232253D01*
X0122021Y0232522D01*
X0122186Y0232787D01*
X0122357Y0233048D01*
X0122534Y0233304D01*
X0122718Y0233557D01*
X0122908Y0233804D01*
X0123103Y0234047D01*
X0123305Y0234286D01*
X0123513Y0234519D01*
X0123726Y0234747D01*
X0123944Y0234969D01*
X0124168Y0235187D01*
X0124397Y0235398D01*
X0124632Y0235604D01*
X0124871Y0235805D01*
X0125115Y0235999D01*
X0125364Y0236187D01*
X0125617Y0236370D01*
X0125875Y0236546D01*
X0126137Y0236715D01*
X0126403Y0236878D01*
X0126673Y0237035D01*
X0126947Y0237185D01*
X0127224Y0237328D01*
X0127504Y0237465D01*
X0127788Y0237594D01*
X0128075Y0237717D01*
X0128365Y0237832D01*
X0128658Y0237940D01*
X0128953Y0238042D01*
X0129251Y0238136D01*
X0129551Y0238222D01*
X0129852Y0238301D01*
X0130156Y0238373D01*
X0130461Y0238438D01*
X0130768Y0238495D01*
X0131076Y0238544D01*
X0131386Y0238586D01*
X0131696Y0238620D01*
X0132007Y0238647D01*
X0132318Y0238666D01*
X0132630Y0238677D01*
X0132942Y0238681D01*
X0133254Y0238677D01*
X0133566Y0238666D01*
X0133877Y0238647D01*
X0134188Y0238620D01*
X0134498Y0238586D01*
X0134808Y0238544D01*
X0135116Y0238495D01*
X0135423Y0238438D01*
X0135728Y0238373D01*
X0136032Y0238301D01*
X0136333Y0238222D01*
X0136633Y0238136D01*
X0136931Y0238042D01*
X0137226Y0237940D01*
X0137519Y0237832D01*
X0137809Y0237717D01*
X0138096Y0237594D01*
X0138380Y0237465D01*
X0138660Y0237328D01*
X0138937Y0237185D01*
X0139211Y0237035D01*
X0139481Y0236878D01*
X0139747Y0236715D01*
X0140009Y0236546D01*
X0140267Y0236370D01*
X0140520Y0236187D01*
X0140769Y0235999D01*
X0141013Y0235805D01*
X0141252Y0235604D01*
X0141487Y0235398D01*
X0141716Y0235187D01*
X0141940Y0234969D01*
X0142158Y0234747D01*
X0142371Y0234519D01*
X0142579Y0234286D01*
X0142781Y0234047D01*
X0142976Y0233804D01*
X0143166Y0233557D01*
X0143350Y0233304D01*
X0143527Y0233048D01*
X0143698Y0232787D01*
X0143863Y0232522D01*
X0144021Y0232253D01*
X0144173Y0231980D01*
X0144318Y0231704D01*
X0144456Y0231424D01*
X0144587Y0231141D01*
X0144711Y0230854D01*
X0144828Y0230565D01*
X0144938Y0230273D01*
X0145041Y0229978D01*
X0145137Y0229681D01*
X0145225Y0229382D01*
X0145306Y0229081D01*
X0145380Y0228777D01*
X0145446Y0228473D01*
X0145505Y0228166D01*
X0145556Y0227858D01*
X0145599Y0227549D01*
X0145636Y0227239D01*
X0145664Y0226928D01*
X0145685Y0226617D01*
X0145698Y0226305D01*
X0145704Y0225993D01*
X0145702Y0225681D01*
X0145692Y0225369D01*
X0145675Y0225058D01*
X0145650Y0224747D01*
X0145618Y0224436D01*
X0145578Y0224127D01*
X0145530Y0223818D01*
X0145475Y0223511D01*
X0145412Y0223206D01*
X0145342Y0222902D01*
X0145265Y0222599D01*
X0145180Y0222299D01*
X0145088Y0222001D01*
X0144988Y0221705D01*
X0144882Y0221412D01*
X0144768Y0221121D01*
X0144647Y0220833D01*
X0144519Y0220549D01*
X0144384Y0220267D01*
X0144243Y0219989D01*
X0144094Y0219715D01*
X0143939Y0219444D01*
X0143778Y0219177D01*
X0143610Y0218914D01*
X0143435Y0218655D01*
X0143254Y0218401D01*
X0143068Y0218151D01*
X0142875Y0217906D01*
X0142676Y0217665D01*
X0142471Y0217430D01*
X0142261Y0217199D01*
X0142045Y0216974D01*
X0141823Y0216754D01*
X0141596Y0216540D01*
X0141365Y0216331D01*
X0141128Y0216128D01*
X0140886Y0215931D01*
X0140639Y0215739D01*
X0140583Y0215815D01*
X0140828Y0216005D01*
X0141068Y0216200D01*
X0141303Y0216402D01*
X0141533Y0216609D01*
X0141758Y0216822D01*
X0141978Y0217040D01*
X0142192Y0217264D01*
X0142401Y0217493D01*
X0142604Y0217726D01*
X0142802Y0217965D01*
X0142993Y0218208D01*
X0143179Y0218457D01*
X0143358Y0218709D01*
X0143531Y0218966D01*
X0143698Y0219227D01*
X0143859Y0219492D01*
X0144012Y0219761D01*
X0144160Y0220033D01*
X0144300Y0220309D01*
X0144434Y0220589D01*
X0144561Y0220871D01*
X0144681Y0221157D01*
X0144794Y0221445D01*
X0144900Y0221736D01*
X0144998Y0222030D01*
X0145090Y0222326D01*
X0145174Y0222624D01*
X0145251Y0222924D01*
X0145320Y0223226D01*
X0145383Y0223529D01*
X0145437Y0223834D01*
X0145485Y0224140D01*
X0145524Y0224448D01*
X0145556Y0224756D01*
X0145581Y0225064D01*
X0145598Y0225374D01*
X0145608Y0225683D01*
X0145610Y0225993D01*
X0145604Y0226303D01*
X0145591Y0226612D01*
X0145570Y0226921D01*
X0145542Y0227230D01*
X0145506Y0227537D01*
X0145463Y0227844D01*
X0145412Y0228150D01*
X0145354Y0228454D01*
X0145288Y0228757D01*
X0145215Y0229058D01*
X0145135Y0229357D01*
X0145047Y0229654D01*
X0144952Y0229949D01*
X0144850Y0230241D01*
X0144741Y0230531D01*
X0144624Y0230818D01*
X0144501Y0231102D01*
X0144371Y0231383D01*
X0144234Y0231661D01*
X0144090Y0231935D01*
X0143940Y0232206D01*
X0143783Y0232473D01*
X0143619Y0232736D01*
X0143449Y0232995D01*
X0143273Y0233250D01*
X0143091Y0233501D01*
X0142902Y0233746D01*
X0142708Y0233988D01*
X0142508Y0234224D01*
X0142302Y0234455D01*
X0142090Y0234682D01*
X0141873Y0234903D01*
X0141651Y0235118D01*
X0141424Y0235329D01*
X0141191Y0235533D01*
X0140953Y0235732D01*
X0140711Y0235925D01*
X0140464Y0236112D01*
X0140213Y0236293D01*
X0139957Y0236467D01*
X0139697Y0236636D01*
X0139433Y0236798D01*
X0139165Y0236953D01*
X0138893Y0237102D01*
X0138618Y0237244D01*
X0138339Y0237380D01*
X0138058Y0237508D01*
X0137773Y0237630D01*
X0137485Y0237744D01*
X0137194Y0237852D01*
X0136901Y0237952D01*
X0136606Y0238046D01*
X0136308Y0238132D01*
X0136009Y0238210D01*
X0135707Y0238281D01*
X0135404Y0238345D01*
X0135100Y0238402D01*
X0134794Y0238451D01*
X0134487Y0238492D01*
X0134179Y0238526D01*
X0133870Y0238553D01*
X0133561Y0238572D01*
X0133252Y0238583D01*
X0132942Y0238587D01*
X0132632Y0238583D01*
X0132323Y0238572D01*
X0132014Y0238553D01*
X0131705Y0238526D01*
X0131397Y0238492D01*
X0131090Y0238451D01*
X0130784Y0238402D01*
X0130480Y0238345D01*
X0130177Y0238281D01*
X0129875Y0238210D01*
X0129576Y0238132D01*
X0129278Y0238046D01*
X0128983Y0237952D01*
X0128690Y0237852D01*
X0128399Y0237744D01*
X0128111Y0237630D01*
X0127826Y0237508D01*
X0127545Y0237380D01*
X0127266Y0237244D01*
X0126991Y0237102D01*
X0126719Y0236953D01*
X0126451Y0236798D01*
X0126187Y0236636D01*
X0125927Y0236467D01*
X0125671Y0236293D01*
X0125420Y0236112D01*
X0125173Y0235925D01*
X0124931Y0235732D01*
X0124693Y0235533D01*
X0124460Y0235329D01*
X0124233Y0235118D01*
X0124011Y0234903D01*
X0123794Y0234682D01*
X0123582Y0234455D01*
X0123376Y0234224D01*
X0123176Y0233988D01*
X0122982Y0233746D01*
X0122793Y0233501D01*
X0122611Y0233250D01*
X0122435Y0232995D01*
X0122265Y0232736D01*
X0122101Y0232473D01*
X0121944Y0232206D01*
X0121794Y0231935D01*
X0121650Y0231661D01*
X0121513Y0231383D01*
X0121383Y0231102D01*
X0121260Y0230818D01*
X0121143Y0230531D01*
X0121034Y0230241D01*
X0120932Y0229949D01*
X0120837Y0229654D01*
X0120749Y0229357D01*
X0120669Y0229058D01*
X0120596Y0228757D01*
X0120530Y0228454D01*
X0120472Y0228150D01*
X0120421Y0227844D01*
X0120378Y0227537D01*
X0120342Y0227230D01*
X0120314Y0226921D01*
X0120293Y0226612D01*
X0120280Y0226303D01*
X0120274Y0225993D01*
X0120276Y0225683D01*
X0120286Y0225374D01*
X0120303Y0225064D01*
X0120328Y0224756D01*
X0120360Y0224448D01*
X0120399Y0224140D01*
X0120447Y0223834D01*
X0120501Y0223529D01*
X0120564Y0223226D01*
X0120633Y0222924D01*
X0120710Y0222624D01*
X0120794Y0222326D01*
X0120886Y0222030D01*
X0120984Y0221736D01*
X0121090Y0221445D01*
X0121203Y0221157D01*
X0121323Y0220871D01*
X0121450Y0220589D01*
X0121584Y0220309D01*
X0121724Y0220033D01*
X0121872Y0219761D01*
X0122025Y0219492D01*
X0122186Y0219227D01*
X0122353Y0218966D01*
X0122526Y0218709D01*
X0122705Y0218457D01*
X0122891Y0218208D01*
X0123082Y0217965D01*
X0123280Y0217726D01*
X0123483Y0217493D01*
X0123692Y0217264D01*
X0123906Y0217040D01*
X0124126Y0216822D01*
X0124351Y0216609D01*
X0124581Y0216402D01*
X0124816Y0216200D01*
X0125056Y0216005D01*
X0125301Y0215815D01*
X0125358Y0215890D01*
X0125115Y0216078D01*
X0124876Y0216273D01*
X0124643Y0216473D01*
X0124415Y0216678D01*
X0124191Y0216890D01*
X0123973Y0217106D01*
X0123760Y0217328D01*
X0123553Y0217555D01*
X0123351Y0217787D01*
X0123155Y0218024D01*
X0122965Y0218266D01*
X0122781Y0218512D01*
X0122603Y0218763D01*
X0122431Y0219018D01*
X0122266Y0219277D01*
X0122106Y0219540D01*
X0121954Y0219807D01*
X0121807Y0220077D01*
X0121668Y0220351D01*
X0121535Y0220628D01*
X0121409Y0220909D01*
X0121290Y0221192D01*
X0121178Y0221479D01*
X0121073Y0221768D01*
X0120975Y0222059D01*
X0120884Y0222353D01*
X0120801Y0222649D01*
X0120724Y0222946D01*
X0120655Y0223246D01*
X0120594Y0223547D01*
X0120539Y0223850D01*
X0120493Y0224154D01*
X0120453Y0224459D01*
X0120421Y0224764D01*
X0120397Y0225071D01*
X0120380Y0225378D01*
X0120370Y0225685D01*
X0120368Y0225993D01*
X0120374Y0226300D01*
X0120387Y0226607D01*
X0120407Y0226914D01*
X0120436Y0227220D01*
X0120471Y0227526D01*
X0120514Y0227830D01*
X0120565Y0228133D01*
X0120622Y0228435D01*
X0120688Y0228736D01*
X0120760Y0229035D01*
X0120840Y0229331D01*
X0120927Y0229626D01*
X0121021Y0229919D01*
X0121123Y0230209D01*
X0121231Y0230497D01*
X0121346Y0230782D01*
X0121469Y0231064D01*
X0121598Y0231343D01*
X0121734Y0231619D01*
X0121877Y0231891D01*
X0122026Y0232160D01*
X0122182Y0232425D01*
X0122344Y0232686D01*
X0122513Y0232943D01*
X0122688Y0233196D01*
X0122869Y0233444D01*
X0123056Y0233688D01*
X0123249Y0233928D01*
X0123447Y0234162D01*
X0123652Y0234392D01*
X0123862Y0234617D01*
X0124077Y0234836D01*
X0124298Y0235050D01*
X0124523Y0235259D01*
X0124754Y0235462D01*
X0124990Y0235659D01*
X0125231Y0235851D01*
X0125476Y0236036D01*
X0125725Y0236216D01*
X0125979Y0236389D01*
X0126237Y0236556D01*
X0126499Y0236717D01*
X0126765Y0236871D01*
X0127035Y0237019D01*
X0127308Y0237160D01*
X0127585Y0237295D01*
X0127864Y0237422D01*
X0128147Y0237543D01*
X0128433Y0237657D01*
X0128721Y0237763D01*
X0129012Y0237863D01*
X0129305Y0237956D01*
X0129601Y0238041D01*
X0129898Y0238119D01*
X0130197Y0238190D01*
X0130498Y0238253D01*
X0130800Y0238309D01*
X0131104Y0238358D01*
X0131409Y0238399D01*
X0131714Y0238433D01*
X0132020Y0238459D01*
X0132327Y0238478D01*
X0132635Y0238489D01*
X0132942Y0238493D01*
X0133249Y0238489D01*
X0133557Y0238478D01*
X0133864Y0238459D01*
X0134170Y0238433D01*
X0134475Y0238399D01*
X0134780Y0238358D01*
X0135084Y0238309D01*
X0135386Y0238253D01*
X0135687Y0238190D01*
X0135986Y0238119D01*
X0136283Y0238041D01*
X0136579Y0237956D01*
X0136872Y0237863D01*
X0137163Y0237763D01*
X0137451Y0237657D01*
X0137737Y0237543D01*
X0138020Y0237422D01*
X0138299Y0237295D01*
X0138576Y0237160D01*
X0138849Y0237019D01*
X0139119Y0236871D01*
X0139385Y0236717D01*
X0139647Y0236556D01*
X0139905Y0236389D01*
X0140159Y0236216D01*
X0140408Y0236036D01*
X0140653Y0235851D01*
X0140894Y0235659D01*
X0141130Y0235462D01*
X0141361Y0235259D01*
X0141586Y0235050D01*
X0141807Y0234836D01*
X0142022Y0234617D01*
X0142232Y0234392D01*
X0142437Y0234162D01*
X0142635Y0233928D01*
X0142828Y0233688D01*
X0143015Y0233444D01*
X0143196Y0233196D01*
X0143371Y0232943D01*
X0143540Y0232686D01*
X0143702Y0232425D01*
X0143858Y0232160D01*
X0144007Y0231891D01*
X0144150Y0231619D01*
X0144286Y0231343D01*
X0144415Y0231064D01*
X0144538Y0230782D01*
X0144653Y0230497D01*
X0144761Y0230209D01*
X0144863Y0229919D01*
X0144957Y0229626D01*
X0145044Y0229331D01*
X0145124Y0229035D01*
X0145196Y0228736D01*
X0145262Y0228435D01*
X0145319Y0228133D01*
X0145370Y0227830D01*
X0145413Y0227526D01*
X0145448Y0227220D01*
X0145477Y0226914D01*
X0145497Y0226607D01*
X0145510Y0226300D01*
X0145516Y0225993D01*
X0145514Y0225685D01*
X0145504Y0225378D01*
X0145487Y0225071D01*
X0145463Y0224764D01*
X0145431Y0224459D01*
X0145391Y0224154D01*
X0145345Y0223850D01*
X0145290Y0223547D01*
X0145229Y0223246D01*
X0145160Y0222946D01*
X0145083Y0222649D01*
X0145000Y0222353D01*
X0144909Y0222059D01*
X0144811Y0221768D01*
X0144706Y0221479D01*
X0144594Y0221192D01*
X0144475Y0220909D01*
X0144349Y0220628D01*
X0144216Y0220351D01*
X0144077Y0220077D01*
X0143930Y0219807D01*
X0143778Y0219540D01*
X0143618Y0219277D01*
X0143453Y0219018D01*
X0143281Y0218763D01*
X0143103Y0218512D01*
X0142919Y0218266D01*
X0142729Y0218024D01*
X0142533Y0217787D01*
X0142331Y0217555D01*
X0142124Y0217328D01*
X0141911Y0217106D01*
X0141693Y0216890D01*
X0141469Y0216678D01*
X0141241Y0216473D01*
X0141008Y0216273D01*
X0140769Y0216078D01*
X0140526Y0215890D01*
X0140470Y0215965D01*
X0140711Y0216152D01*
X0140948Y0216345D01*
X0141179Y0216544D01*
X0141406Y0216748D01*
X0141628Y0216957D01*
X0141844Y0217172D01*
X0142055Y0217393D01*
X0142261Y0217618D01*
X0142461Y0217848D01*
X0142656Y0218084D01*
X0142844Y0218323D01*
X0143027Y0218568D01*
X0143204Y0218817D01*
X0143374Y0219070D01*
X0143539Y0219327D01*
X0143697Y0219588D01*
X0143848Y0219853D01*
X0143993Y0220121D01*
X0144132Y0220393D01*
X0144264Y0220668D01*
X0144389Y0220947D01*
X0144507Y0221228D01*
X0144618Y0221512D01*
X0144722Y0221799D01*
X0144820Y0222088D01*
X0144910Y0222380D01*
X0144993Y0222673D01*
X0145068Y0222969D01*
X0145137Y0223266D01*
X0145198Y0223565D01*
X0145252Y0223866D01*
X0145298Y0224167D01*
X0145338Y0224470D01*
X0145369Y0224773D01*
X0145394Y0225078D01*
X0145410Y0225382D01*
X0145420Y0225687D01*
X0145422Y0225992D01*
X0145416Y0226297D01*
X0145403Y0226602D01*
X0145383Y0226907D01*
X0145355Y0227211D01*
X0145320Y0227514D01*
X0145277Y0227816D01*
X0145227Y0228117D01*
X0145170Y0228417D01*
X0145105Y0228715D01*
X0145033Y0229011D01*
X0144954Y0229306D01*
X0144867Y0229599D01*
X0144774Y0229889D01*
X0144673Y0230177D01*
X0144565Y0230463D01*
X0144451Y0230746D01*
X0144329Y0231026D01*
X0144201Y0231303D01*
X0144066Y0231576D01*
X0143925Y0231846D01*
X0143776Y0232113D01*
X0143622Y0232376D01*
X0143461Y0232635D01*
X0143293Y0232891D01*
X0143120Y0233142D01*
X0142940Y0233388D01*
X0142754Y0233630D01*
X0142563Y0233868D01*
X0142366Y0234101D01*
X0142163Y0234329D01*
X0141954Y0234552D01*
X0141741Y0234770D01*
X0141522Y0234982D01*
X0141298Y0235189D01*
X0141068Y0235391D01*
X0140834Y0235587D01*
X0140596Y0235777D01*
X0140352Y0235961D01*
X0140105Y0236139D01*
X0139853Y0236311D01*
X0139596Y0236477D01*
X0139336Y0236636D01*
X0139072Y0236790D01*
X0138805Y0236936D01*
X0138534Y0237076D01*
X0138259Y0237210D01*
X0137982Y0237336D01*
X0137701Y0237456D01*
X0137417Y0237569D01*
X0137131Y0237675D01*
X0136843Y0237774D01*
X0136552Y0237866D01*
X0136258Y0237950D01*
X0135963Y0238028D01*
X0135666Y0238098D01*
X0135368Y0238161D01*
X0135068Y0238217D01*
X0134766Y0238265D01*
X0134464Y0238306D01*
X0134161Y0238339D01*
X0133857Y0238365D01*
X0133552Y0238384D01*
X0133247Y0238395D01*
X0132942Y0238399D01*
X0132637Y0238395D01*
X0132332Y0238384D01*
X0132027Y0238365D01*
X0131723Y0238339D01*
X0131420Y0238306D01*
X0131118Y0238265D01*
X0130816Y0238217D01*
X0130516Y0238161D01*
X0130218Y0238098D01*
X0129921Y0238028D01*
X0129626Y0237950D01*
X0129332Y0237866D01*
X0129041Y0237774D01*
X0128753Y0237675D01*
X0128467Y0237569D01*
X0128183Y0237456D01*
X0127902Y0237336D01*
X0127625Y0237210D01*
X0127350Y0237076D01*
X0127079Y0236936D01*
X0126812Y0236790D01*
X0126548Y0236636D01*
X0126288Y0236477D01*
X0126031Y0236311D01*
X0125779Y0236139D01*
X0125532Y0235961D01*
X0125288Y0235777D01*
X0125050Y0235587D01*
X0124816Y0235391D01*
X0124586Y0235189D01*
X0124362Y0234982D01*
X0124143Y0234770D01*
X0123930Y0234552D01*
X0123721Y0234329D01*
X0123518Y0234101D01*
X0123321Y0233868D01*
X0123130Y0233630D01*
X0122944Y0233388D01*
X0122764Y0233142D01*
X0122591Y0232891D01*
X0122423Y0232635D01*
X0122262Y0232376D01*
X0122108Y0232113D01*
X0121959Y0231846D01*
X0121818Y0231576D01*
X0121683Y0231303D01*
X0121555Y0231026D01*
X0121433Y0230746D01*
X0121319Y0230463D01*
X0121211Y0230177D01*
X0121110Y0229889D01*
X0121017Y0229599D01*
X0120930Y0229306D01*
X0120851Y0229011D01*
X0120779Y0228715D01*
X0120714Y0228417D01*
X0120657Y0228117D01*
X0120607Y0227816D01*
X0120564Y0227514D01*
X0120529Y0227211D01*
X0120501Y0226907D01*
X0120481Y0226602D01*
X0120468Y0226297D01*
X0120462Y0225992D01*
X0120464Y0225687D01*
X0120474Y0225382D01*
X0120490Y0225078D01*
X0120515Y0224773D01*
X0120546Y0224470D01*
X0120586Y0224167D01*
X0120632Y0223866D01*
X0120686Y0223565D01*
X0120747Y0223266D01*
X0120816Y0222969D01*
X0120891Y0222673D01*
X0120974Y0222380D01*
X0121064Y0222088D01*
X0121162Y0221799D01*
X0121266Y0221512D01*
X0121377Y0221228D01*
X0121495Y0220947D01*
X0121620Y0220668D01*
X0121752Y0220393D01*
X0121891Y0220121D01*
X0122036Y0219853D01*
X0122187Y0219588D01*
X0122345Y0219327D01*
X0122510Y0219070D01*
X0122680Y0218817D01*
X0122857Y0218568D01*
X0123040Y0218323D01*
X0123228Y0218084D01*
X0123423Y0217848D01*
X0123623Y0217618D01*
X0123829Y0217393D01*
X0124040Y0217172D01*
X0124256Y0216957D01*
X0124478Y0216748D01*
X0124705Y0216544D01*
X0124936Y0216345D01*
X0125173Y0216152D01*
X0125414Y0215965D01*
X0125470Y0216040D01*
X0125231Y0216226D01*
X0124996Y0216417D01*
X0124767Y0216614D01*
X0124542Y0216817D01*
X0124321Y0217025D01*
X0124107Y0217239D01*
X0123897Y0217457D01*
X0123693Y0217681D01*
X0123494Y0217909D01*
X0123301Y0218143D01*
X0123114Y0218381D01*
X0122933Y0218623D01*
X0122757Y0218870D01*
X0122588Y0219121D01*
X0122425Y0219377D01*
X0122268Y0219636D01*
X0122118Y0219899D01*
X0121974Y0220165D01*
X0121836Y0220435D01*
X0121705Y0220708D01*
X0121581Y0220984D01*
X0121464Y0221264D01*
X0121354Y0221546D01*
X0121250Y0221830D01*
X0121154Y0222117D01*
X0121064Y0222407D01*
X0120982Y0222698D01*
X0120907Y0222991D01*
X0120839Y0223287D01*
X0120778Y0223583D01*
X0120725Y0223881D01*
X0120679Y0224181D01*
X0120640Y0224481D01*
X0120608Y0224782D01*
X0120584Y0225084D01*
X0120567Y0225387D01*
X0120558Y0225689D01*
X0120556Y0225992D01*
X0120562Y0226295D01*
X0120575Y0226597D01*
X0120595Y0226900D01*
X0120623Y0227201D01*
X0120658Y0227502D01*
X0120700Y0227802D01*
X0120750Y0228101D01*
X0120807Y0228398D01*
X0120871Y0228694D01*
X0120942Y0228988D01*
X0121021Y0229281D01*
X0121107Y0229571D01*
X0121200Y0229860D01*
X0121299Y0230145D01*
X0121406Y0230429D01*
X0121520Y0230709D01*
X0121640Y0230987D01*
X0121768Y0231262D01*
X0121902Y0231534D01*
X0122042Y0231802D01*
X0122189Y0232067D01*
X0122343Y0232328D01*
X0122503Y0232585D01*
X0122669Y0232838D01*
X0122841Y0233087D01*
X0123019Y0233332D01*
X0123204Y0233573D01*
X0123394Y0233808D01*
X0123589Y0234039D01*
X0123791Y0234266D01*
X0123997Y0234487D01*
X0124210Y0234703D01*
X0124427Y0234914D01*
X0124649Y0235119D01*
X0124877Y0235319D01*
X0125109Y0235514D01*
X0125346Y0235702D01*
X0125588Y0235885D01*
X0125833Y0236062D01*
X0126084Y0236233D01*
X0126338Y0236397D01*
X0126596Y0236556D01*
X0126858Y0236708D01*
X0127123Y0236853D01*
X0127392Y0236992D01*
X0127665Y0237125D01*
X0127940Y0237250D01*
X0128219Y0237369D01*
X0128500Y0237481D01*
X0128784Y0237586D01*
X0129071Y0237685D01*
X0129360Y0237776D01*
X0129651Y0237860D01*
X0129944Y0237937D01*
X0130238Y0238006D01*
X0130535Y0238069D01*
X0130832Y0238124D01*
X0131131Y0238172D01*
X0131431Y0238213D01*
X0131733Y0238246D01*
X0132034Y0238272D01*
X0132337Y0238290D01*
X0132639Y0238301D01*
X0132942Y0238305D01*
X0133245Y0238301D01*
X0133547Y0238290D01*
X0133850Y0238272D01*
X0134151Y0238246D01*
X0134453Y0238213D01*
X0134753Y0238172D01*
X0135052Y0238124D01*
X0135349Y0238069D01*
X0135646Y0238006D01*
X0135940Y0237937D01*
X0136233Y0237860D01*
X0136524Y0237776D01*
X0136813Y0237685D01*
X0137100Y0237586D01*
X0137384Y0237481D01*
X0137665Y0237369D01*
X0137944Y0237250D01*
X0138219Y0237125D01*
X0138492Y0236992D01*
X0138761Y0236853D01*
X0139026Y0236708D01*
X0139288Y0236556D01*
X0139546Y0236397D01*
X0139800Y0236233D01*
X0140051Y0236062D01*
X0140296Y0235885D01*
X0140538Y0235702D01*
X0140775Y0235514D01*
X0141007Y0235319D01*
X0141235Y0235119D01*
X0141457Y0234914D01*
X0141674Y0234703D01*
X0141887Y0234487D01*
X0142093Y0234266D01*
X0142295Y0234039D01*
X0142490Y0233808D01*
X0142680Y0233573D01*
X0142865Y0233332D01*
X0143043Y0233087D01*
X0143215Y0232838D01*
X0143381Y0232585D01*
X0143541Y0232328D01*
X0143695Y0232067D01*
X0143842Y0231802D01*
X0143982Y0231534D01*
X0144116Y0231262D01*
X0144244Y0230987D01*
X0144364Y0230709D01*
X0144478Y0230429D01*
X0144585Y0230145D01*
X0144684Y0229860D01*
X0144777Y0229571D01*
X0144863Y0229281D01*
X0144942Y0228988D01*
X0145013Y0228694D01*
X0145077Y0228398D01*
X0145134Y0228101D01*
X0145184Y0227802D01*
X0145226Y0227502D01*
X0145261Y0227201D01*
X0145289Y0226900D01*
X0145309Y0226597D01*
X0145322Y0226295D01*
X0145328Y0225992D01*
X0145326Y0225689D01*
X0145317Y0225387D01*
X0145300Y0225084D01*
X0145276Y0224782D01*
X0145244Y0224481D01*
X0145205Y0224181D01*
X0145159Y0223881D01*
X0145106Y0223583D01*
X0145045Y0223287D01*
X0144977Y0222991D01*
X0144902Y0222698D01*
X0144820Y0222407D01*
X0144730Y0222117D01*
X0144634Y0221830D01*
X0144530Y0221546D01*
X0144420Y0221264D01*
X0144303Y0220984D01*
X0144179Y0220708D01*
X0144048Y0220435D01*
X0143910Y0220165D01*
X0143766Y0219899D01*
X0143616Y0219636D01*
X0143459Y0219377D01*
X0143296Y0219121D01*
X0143127Y0218870D01*
X0142951Y0218623D01*
X0142770Y0218381D01*
X0142583Y0218143D01*
X0142390Y0217909D01*
X0142191Y0217681D01*
X0141987Y0217457D01*
X0141777Y0217239D01*
X0141563Y0217025D01*
X0141342Y0216817D01*
X0141117Y0216614D01*
X0140888Y0216417D01*
X0140653Y0216226D01*
X0140414Y0216040D01*
X0140357Y0216115D01*
X0140595Y0216300D01*
X0140827Y0216490D01*
X0141056Y0216685D01*
X0141279Y0216886D01*
X0141497Y0217093D01*
X0141711Y0217305D01*
X0141919Y0217522D01*
X0142121Y0217744D01*
X0142318Y0217971D01*
X0142510Y0218202D01*
X0142696Y0218438D01*
X0142876Y0218679D01*
X0143050Y0218924D01*
X0143218Y0219173D01*
X0143380Y0219427D01*
X0143535Y0219684D01*
X0143684Y0219945D01*
X0143827Y0220209D01*
X0143964Y0220477D01*
X0144093Y0220748D01*
X0144216Y0221022D01*
X0144333Y0221299D01*
X0144442Y0221579D01*
X0144545Y0221862D01*
X0144641Y0222146D01*
X0144729Y0222434D01*
X0144811Y0222723D01*
X0144886Y0223014D01*
X0144953Y0223307D01*
X0145014Y0223601D01*
X0145067Y0223897D01*
X0145112Y0224194D01*
X0145151Y0224492D01*
X0145182Y0224791D01*
X0145206Y0225091D01*
X0145223Y0225391D01*
X0145232Y0225691D01*
X0145234Y0225992D01*
X0145228Y0226292D01*
X0145216Y0226593D01*
X0145195Y0226892D01*
X0145168Y0227192D01*
X0145133Y0227490D01*
X0145091Y0227788D01*
X0145042Y0228084D01*
X0144985Y0228379D01*
X0144921Y0228673D01*
X0144851Y0228965D01*
X0144773Y0229255D01*
X0144687Y0229544D01*
X0144595Y0229830D01*
X0144496Y0230114D01*
X0144390Y0230395D01*
X0144277Y0230673D01*
X0144158Y0230949D01*
X0144031Y0231222D01*
X0143898Y0231491D01*
X0143759Y0231757D01*
X0143613Y0232020D01*
X0143461Y0232279D01*
X0143302Y0232535D01*
X0143137Y0232786D01*
X0142966Y0233033D01*
X0142789Y0233276D01*
X0142606Y0233515D01*
X0142418Y0233749D01*
X0142224Y0233978D01*
X0142024Y0234202D01*
X0141819Y0234422D01*
X0141608Y0234636D01*
X0141392Y0234846D01*
X0141172Y0235050D01*
X0140946Y0235248D01*
X0140715Y0235441D01*
X0140480Y0235628D01*
X0140241Y0235810D01*
X0139997Y0235985D01*
X0139748Y0236155D01*
X0139496Y0236318D01*
X0139240Y0236475D01*
X0138980Y0236626D01*
X0138716Y0236770D01*
X0138449Y0236908D01*
X0138179Y0237040D01*
X0137906Y0237164D01*
X0137629Y0237282D01*
X0137350Y0237393D01*
X0137068Y0237498D01*
X0136784Y0237595D01*
X0136497Y0237686D01*
X0136208Y0237769D01*
X0135918Y0237845D01*
X0135625Y0237915D01*
X0135331Y0237977D01*
X0135036Y0238031D01*
X0134739Y0238079D01*
X0134441Y0238119D01*
X0134142Y0238152D01*
X0133843Y0238178D01*
X0133543Y0238196D01*
X0133243Y0238207D01*
X0132942Y0238211D01*
X0132641Y0238207D01*
X0132341Y0238196D01*
X0132041Y0238178D01*
X0131742Y0238152D01*
X0131443Y0238119D01*
X0131145Y0238079D01*
X0130848Y0238031D01*
X0130553Y0237977D01*
X0130259Y0237915D01*
X0129966Y0237845D01*
X0129676Y0237769D01*
X0129387Y0237686D01*
X0129100Y0237595D01*
X0128816Y0237498D01*
X0128534Y0237393D01*
X0128255Y0237282D01*
X0127978Y0237164D01*
X0127705Y0237040D01*
X0127435Y0236908D01*
X0127168Y0236770D01*
X0126904Y0236626D01*
X0126644Y0236475D01*
X0126388Y0236318D01*
X0126136Y0236155D01*
X0125887Y0235985D01*
X0125643Y0235810D01*
X0125404Y0235628D01*
X0125169Y0235441D01*
X0124938Y0235248D01*
X0124712Y0235050D01*
X0124492Y0234846D01*
X0124276Y0234636D01*
X0124065Y0234422D01*
X0123860Y0234202D01*
X0123660Y0233978D01*
X0123466Y0233749D01*
X0123278Y0233515D01*
X0123095Y0233276D01*
X0122918Y0233033D01*
X0122747Y0232786D01*
X0122582Y0232535D01*
X0122423Y0232279D01*
X0122271Y0232020D01*
X0122125Y0231757D01*
X0121986Y0231491D01*
X0121853Y0231222D01*
X0121726Y0230949D01*
X0121607Y0230673D01*
X0121494Y0230395D01*
X0121388Y0230114D01*
X0121289Y0229830D01*
X0121197Y0229544D01*
X0121111Y0229255D01*
X0121033Y0228965D01*
X0120963Y0228673D01*
X0120899Y0228379D01*
X0120842Y0228084D01*
X0120793Y0227788D01*
X0120751Y0227490D01*
X0120716Y0227192D01*
X0120689Y0226892D01*
X0120668Y0226593D01*
X0120656Y0226292D01*
X0120650Y0225992D01*
X0120652Y0225691D01*
X0120661Y0225391D01*
X0120678Y0225091D01*
X0120702Y0224791D01*
X0120733Y0224492D01*
X0120772Y0224194D01*
X0120817Y0223897D01*
X0120870Y0223601D01*
X0120931Y0223307D01*
X0120998Y0223014D01*
X0121073Y0222723D01*
X0121155Y0222434D01*
X0121243Y0222146D01*
X0121339Y0221862D01*
X0121442Y0221579D01*
X0121551Y0221299D01*
X0121668Y0221022D01*
X0121791Y0220748D01*
X0121920Y0220477D01*
X0122057Y0220209D01*
X0122200Y0219945D01*
X0122349Y0219684D01*
X0122504Y0219427D01*
X0122666Y0219173D01*
X0122834Y0218924D01*
X0123008Y0218679D01*
X0123188Y0218438D01*
X0123374Y0218202D01*
X0123566Y0217971D01*
X0123763Y0217744D01*
X0123965Y0217522D01*
X0124173Y0217305D01*
X0124387Y0217093D01*
X0124605Y0216886D01*
X0124828Y0216685D01*
X0125057Y0216490D01*
X0125289Y0216300D01*
X0125527Y0216115D01*
X0125583Y0216191D01*
X0125348Y0216373D01*
X0125117Y0216562D01*
X0124890Y0216756D01*
X0124668Y0216956D01*
X0124452Y0217161D01*
X0124240Y0217371D01*
X0124034Y0217586D01*
X0123833Y0217806D01*
X0123637Y0218032D01*
X0123447Y0218261D01*
X0123263Y0218496D01*
X0123084Y0218735D01*
X0122911Y0218978D01*
X0122745Y0219225D01*
X0122584Y0219477D01*
X0122430Y0219732D01*
X0122282Y0219991D01*
X0122140Y0220253D01*
X0122005Y0220519D01*
X0121876Y0220788D01*
X0121754Y0221060D01*
X0121638Y0221335D01*
X0121529Y0221613D01*
X0121428Y0221893D01*
X0121333Y0222176D01*
X0121245Y0222461D01*
X0121164Y0222748D01*
X0121089Y0223036D01*
X0121023Y0223327D01*
X0120963Y0223619D01*
X0120910Y0223913D01*
X0120865Y0224208D01*
X0120826Y0224503D01*
X0120795Y0224800D01*
X0120772Y0225097D01*
X0120755Y0225395D01*
X0120746Y0225693D01*
X0120744Y0225991D01*
X0120750Y0226290D01*
X0120762Y0226588D01*
X0120782Y0226885D01*
X0120810Y0227182D01*
X0120844Y0227478D01*
X0120886Y0227774D01*
X0120935Y0228068D01*
X0120991Y0228361D01*
X0121054Y0228652D01*
X0121125Y0228942D01*
X0121202Y0229230D01*
X0121286Y0229516D01*
X0121378Y0229800D01*
X0121476Y0230082D01*
X0121581Y0230361D01*
X0121693Y0230637D01*
X0121812Y0230911D01*
X0121937Y0231181D01*
X0122069Y0231449D01*
X0122208Y0231713D01*
X0122353Y0231974D01*
X0122504Y0232231D01*
X0122661Y0232484D01*
X0122825Y0232733D01*
X0122995Y0232979D01*
X0123170Y0233220D01*
X0123352Y0233457D01*
X0123539Y0233689D01*
X0123731Y0233916D01*
X0123930Y0234139D01*
X0124133Y0234357D01*
X0124342Y0234570D01*
X0124556Y0234778D01*
X0124776Y0234980D01*
X0124999Y0235177D01*
X0125228Y0235368D01*
X0125462Y0235554D01*
X0125699Y0235734D01*
X0125941Y0235908D01*
X0126188Y0236076D01*
X0126438Y0236238D01*
X0126692Y0236394D01*
X0126950Y0236544D01*
X0127212Y0236687D01*
X0127477Y0236824D01*
X0127745Y0236955D01*
X0128016Y0237078D01*
X0128291Y0237195D01*
X0128568Y0237306D01*
X0128848Y0237409D01*
X0129130Y0237506D01*
X0129414Y0237596D01*
X0129701Y0237678D01*
X0129989Y0237754D01*
X0130279Y0237823D01*
X0130571Y0237884D01*
X0130864Y0237939D01*
X0131159Y0237986D01*
X0131454Y0238026D01*
X0131751Y0238059D01*
X0132048Y0238084D01*
X0132346Y0238102D01*
X0132644Y0238113D01*
X0132942Y0238117D01*
X0133240Y0238113D01*
X0133538Y0238102D01*
X0133836Y0238084D01*
X0134133Y0238059D01*
X0134430Y0238026D01*
X0134725Y0237986D01*
X0135020Y0237939D01*
X0135313Y0237884D01*
X0135605Y0237823D01*
X0135895Y0237754D01*
X0136183Y0237678D01*
X0136470Y0237596D01*
X0136754Y0237506D01*
X0137036Y0237409D01*
X0137316Y0237306D01*
X0137593Y0237195D01*
X0137868Y0237078D01*
X0138139Y0236955D01*
X0138407Y0236824D01*
X0138672Y0236687D01*
X0138934Y0236544D01*
X0139192Y0236394D01*
X0139446Y0236238D01*
X0139696Y0236076D01*
X0139943Y0235908D01*
X0140185Y0235734D01*
X0140422Y0235554D01*
X0140656Y0235368D01*
X0140885Y0235177D01*
X0141108Y0234980D01*
X0141328Y0234778D01*
X0141542Y0234570D01*
X0141751Y0234357D01*
X0141954Y0234139D01*
X0142153Y0233916D01*
X0142345Y0233689D01*
X0142532Y0233457D01*
X0142714Y0233220D01*
X0142889Y0232979D01*
X0143059Y0232733D01*
X0143223Y0232484D01*
X0143380Y0232231D01*
X0143531Y0231974D01*
X0143676Y0231713D01*
X0143815Y0231449D01*
X0143947Y0231181D01*
X0144072Y0230911D01*
X0144191Y0230637D01*
X0144303Y0230361D01*
X0144408Y0230082D01*
X0144506Y0229800D01*
X0144598Y0229516D01*
X0144682Y0229230D01*
X0144759Y0228942D01*
X0144830Y0228652D01*
X0144893Y0228361D01*
X0144949Y0228068D01*
X0144998Y0227774D01*
X0145040Y0227478D01*
X0145074Y0227182D01*
X0145102Y0226885D01*
X0145122Y0226588D01*
X0145134Y0226290D01*
X0145140Y0225991D01*
X0145138Y0225693D01*
X0145129Y0225395D01*
X0145112Y0225097D01*
X0145089Y0224800D01*
X0145058Y0224503D01*
X0145019Y0224208D01*
X0144974Y0223913D01*
X0144921Y0223619D01*
X0144861Y0223327D01*
X0144795Y0223036D01*
X0144720Y0222748D01*
X0144639Y0222461D01*
X0144551Y0222176D01*
X0144456Y0221893D01*
X0144355Y0221613D01*
X0144246Y0221335D01*
X0144130Y0221060D01*
X0144008Y0220788D01*
X0143879Y0220519D01*
X0143744Y0220253D01*
X0143602Y0219991D01*
X0143454Y0219732D01*
X0143300Y0219477D01*
X0143139Y0219225D01*
X0142973Y0218978D01*
X0142800Y0218735D01*
X0142621Y0218496D01*
X0142437Y0218261D01*
X0142247Y0218032D01*
X0142051Y0217806D01*
X0141850Y0217586D01*
X0141644Y0217371D01*
X0141432Y0217161D01*
X0141216Y0216956D01*
X0140994Y0216756D01*
X0140767Y0216562D01*
X0140536Y0216373D01*
X0140301Y0216191D01*
X0140244Y0216266D01*
X0140478Y0216447D01*
X0140707Y0216634D01*
X0140932Y0216827D01*
X0141152Y0217025D01*
X0141367Y0217228D01*
X0141577Y0217437D01*
X0141782Y0217651D01*
X0141981Y0217869D01*
X0142175Y0218093D01*
X0142364Y0218321D01*
X0142547Y0218553D01*
X0142724Y0218790D01*
X0142895Y0219032D01*
X0143061Y0219277D01*
X0143220Y0219526D01*
X0143373Y0219780D01*
X0143520Y0220036D01*
X0143661Y0220297D01*
X0143795Y0220561D01*
X0143923Y0220828D01*
X0144044Y0221098D01*
X0144159Y0221370D01*
X0144267Y0221646D01*
X0144368Y0221924D01*
X0144462Y0222205D01*
X0144549Y0222487D01*
X0144630Y0222772D01*
X0144703Y0223059D01*
X0144770Y0223347D01*
X0144829Y0223637D01*
X0144881Y0223929D01*
X0144926Y0224221D01*
X0144964Y0224515D01*
X0144995Y0224809D01*
X0145019Y0225104D01*
X0145035Y0225399D01*
X0145044Y0225695D01*
X0145046Y0225991D01*
X0145040Y0226287D01*
X0145028Y0226583D01*
X0145008Y0226878D01*
X0144981Y0227173D01*
X0144947Y0227467D01*
X0144905Y0227760D01*
X0144857Y0228052D01*
X0144801Y0228342D01*
X0144738Y0228631D01*
X0144668Y0228919D01*
X0144591Y0229205D01*
X0144508Y0229489D01*
X0144417Y0229770D01*
X0144319Y0230050D01*
X0144215Y0230327D01*
X0144104Y0230601D01*
X0143986Y0230872D01*
X0143862Y0231141D01*
X0143731Y0231406D01*
X0143593Y0231668D01*
X0143450Y0231927D01*
X0143300Y0232182D01*
X0143143Y0232434D01*
X0142981Y0232681D01*
X0142813Y0232924D01*
X0142638Y0233164D01*
X0142458Y0233399D01*
X0142273Y0233629D01*
X0142081Y0233855D01*
X0141885Y0234076D01*
X0141683Y0234292D01*
X0141475Y0234503D01*
X0141263Y0234709D01*
X0141045Y0234910D01*
X0140823Y0235106D01*
X0140596Y0235296D01*
X0140365Y0235480D01*
X0140129Y0235658D01*
X0139889Y0235831D01*
X0139644Y0235998D01*
X0139396Y0236159D01*
X0139143Y0236314D01*
X0138887Y0236462D01*
X0138628Y0236604D01*
X0138365Y0236740D01*
X0138099Y0236870D01*
X0137830Y0236992D01*
X0137557Y0237109D01*
X0137282Y0237218D01*
X0137005Y0237321D01*
X0136725Y0237417D01*
X0136443Y0237506D01*
X0136158Y0237588D01*
X0135872Y0237663D01*
X0135584Y0237731D01*
X0135295Y0237792D01*
X0135004Y0237846D01*
X0134711Y0237893D01*
X0134418Y0237933D01*
X0134124Y0237965D01*
X0133829Y0237990D01*
X0133534Y0238009D01*
X0133238Y0238019D01*
X0132942Y0238023D01*
X0132646Y0238019D01*
X0132350Y0238009D01*
X0132055Y0237990D01*
X0131760Y0237965D01*
X0131466Y0237933D01*
X0131173Y0237893D01*
X0130880Y0237846D01*
X0130589Y0237792D01*
X0130300Y0237731D01*
X0130012Y0237663D01*
X0129726Y0237588D01*
X0129441Y0237506D01*
X0129159Y0237417D01*
X0128879Y0237321D01*
X0128602Y0237218D01*
X0128327Y0237109D01*
X0128054Y0236992D01*
X0127785Y0236870D01*
X0127519Y0236740D01*
X0127256Y0236604D01*
X0126997Y0236462D01*
X0126741Y0236314D01*
X0126488Y0236159D01*
X0126240Y0235998D01*
X0125995Y0235831D01*
X0125755Y0235658D01*
X0125519Y0235480D01*
X0125288Y0235296D01*
X0125061Y0235106D01*
X0124839Y0234910D01*
X0124621Y0234709D01*
X0124409Y0234503D01*
X0124201Y0234292D01*
X0123999Y0234076D01*
X0123803Y0233855D01*
X0123611Y0233629D01*
X0123426Y0233399D01*
X0123246Y0233164D01*
X0123071Y0232924D01*
X0122903Y0232681D01*
X0122741Y0232434D01*
X0122584Y0232182D01*
X0122434Y0231927D01*
X0122291Y0231668D01*
X0122153Y0231406D01*
X0122022Y0231141D01*
X0121898Y0230872D01*
X0121780Y0230601D01*
X0121669Y0230327D01*
X0121565Y0230050D01*
X0121467Y0229770D01*
X0121376Y0229489D01*
X0121293Y0229205D01*
X0121216Y0228919D01*
X0121146Y0228631D01*
X0121083Y0228342D01*
X0121027Y0228052D01*
X0120979Y0227760D01*
X0120937Y0227467D01*
X0120903Y0227173D01*
X0120876Y0226878D01*
X0120856Y0226583D01*
X0120844Y0226287D01*
X0120838Y0225991D01*
X0120840Y0225695D01*
X0120849Y0225399D01*
X0120865Y0225104D01*
X0120889Y0224809D01*
X0120920Y0224515D01*
X0120958Y0224221D01*
X0121003Y0223929D01*
X0121055Y0223637D01*
X0121114Y0223347D01*
X0121181Y0223059D01*
X0121254Y0222772D01*
X0121335Y0222487D01*
X0121422Y0222205D01*
X0121516Y0221924D01*
X0121617Y0221646D01*
X0121725Y0221370D01*
X0121840Y0221098D01*
X0121961Y0220828D01*
X0122089Y0220561D01*
X0122223Y0220297D01*
X0122364Y0220036D01*
X0122511Y0219780D01*
X0122664Y0219526D01*
X0122823Y0219277D01*
X0122989Y0219032D01*
X0123160Y0218790D01*
X0123337Y0218553D01*
X0123520Y0218321D01*
X0123709Y0218093D01*
X0123903Y0217869D01*
X0124102Y0217651D01*
X0124307Y0217437D01*
X0124517Y0217228D01*
X0124732Y0217025D01*
X0124952Y0216827D01*
X0125177Y0216634D01*
X0125406Y0216447D01*
X0125640Y0216266D01*
X0215751Y0215590D02*
X0215211Y0216310D01*
X0215212Y0216309D02*
X0215445Y0216490D01*
X0215673Y0216676D01*
X0215897Y0216868D01*
X0216116Y0217065D01*
X0216330Y0217267D01*
X0216539Y0217475D01*
X0216742Y0217688D01*
X0216941Y0217905D01*
X0217134Y0218128D01*
X0217322Y0218355D01*
X0217504Y0218586D01*
X0217681Y0218822D01*
X0217851Y0219063D01*
X0218016Y0219307D01*
X0218174Y0219555D01*
X0218327Y0219807D01*
X0218473Y0220063D01*
X0218613Y0220322D01*
X0218747Y0220585D01*
X0218874Y0220850D01*
X0218995Y0221119D01*
X0219109Y0221391D01*
X0219216Y0221665D01*
X0219317Y0221942D01*
X0219411Y0222221D01*
X0219498Y0222503D01*
X0219578Y0222786D01*
X0219651Y0223072D01*
X0219717Y0223359D01*
X0219776Y0223648D01*
X0219828Y0223938D01*
X0219873Y0224229D01*
X0219911Y0224521D01*
X0219941Y0224814D01*
X0219965Y0225108D01*
X0219981Y0225402D01*
X0219990Y0225696D01*
X0219992Y0225991D01*
X0219986Y0226286D01*
X0219974Y0226580D01*
X0219954Y0226874D01*
X0219927Y0227167D01*
X0219893Y0227460D01*
X0219852Y0227752D01*
X0219803Y0228042D01*
X0219748Y0228332D01*
X0219686Y0228619D01*
X0219616Y0228906D01*
X0219539Y0229190D01*
X0219456Y0229473D01*
X0219366Y0229753D01*
X0219269Y0230031D01*
X0219165Y0230307D01*
X0219054Y0230580D01*
X0218937Y0230850D01*
X0218813Y0231118D01*
X0218683Y0231382D01*
X0218546Y0231643D01*
X0218403Y0231900D01*
X0218253Y0232154D01*
X0218098Y0232405D01*
X0217936Y0232651D01*
X0217769Y0232893D01*
X0217595Y0233131D01*
X0217416Y0233365D01*
X0217231Y0233595D01*
X0217041Y0233819D01*
X0216845Y0234040D01*
X0216644Y0234255D01*
X0216437Y0234465D01*
X0216226Y0234670D01*
X0216009Y0234870D01*
X0215788Y0235065D01*
X0215562Y0235254D01*
X0215332Y0235437D01*
X0215097Y0235615D01*
X0214857Y0235787D01*
X0214614Y0235953D01*
X0214367Y0236113D01*
X0214116Y0236267D01*
X0213861Y0236415D01*
X0213602Y0236557D01*
X0213341Y0236692D01*
X0213076Y0236821D01*
X0212808Y0236943D01*
X0212537Y0237059D01*
X0212263Y0237168D01*
X0211987Y0237270D01*
X0211708Y0237365D01*
X0211427Y0237454D01*
X0211144Y0237536D01*
X0210859Y0237611D01*
X0210572Y0237678D01*
X0210284Y0237739D01*
X0209994Y0237793D01*
X0209703Y0237840D01*
X0209411Y0237879D01*
X0209119Y0237911D01*
X0208825Y0237937D01*
X0208531Y0237955D01*
X0208237Y0237965D01*
X0207942Y0237969D01*
X0207647Y0237965D01*
X0207353Y0237955D01*
X0207059Y0237937D01*
X0206765Y0237911D01*
X0206473Y0237879D01*
X0206181Y0237840D01*
X0205890Y0237793D01*
X0205600Y0237739D01*
X0205312Y0237678D01*
X0205025Y0237611D01*
X0204740Y0237536D01*
X0204457Y0237454D01*
X0204176Y0237365D01*
X0203897Y0237270D01*
X0203621Y0237168D01*
X0203347Y0237059D01*
X0203076Y0236943D01*
X0202808Y0236821D01*
X0202543Y0236692D01*
X0202282Y0236557D01*
X0202023Y0236415D01*
X0201768Y0236267D01*
X0201517Y0236113D01*
X0201270Y0235953D01*
X0201027Y0235787D01*
X0200787Y0235615D01*
X0200552Y0235437D01*
X0200322Y0235254D01*
X0200096Y0235065D01*
X0199875Y0234870D01*
X0199658Y0234670D01*
X0199447Y0234465D01*
X0199240Y0234255D01*
X0199039Y0234040D01*
X0198843Y0233819D01*
X0198653Y0233595D01*
X0198468Y0233365D01*
X0198289Y0233131D01*
X0198115Y0232893D01*
X0197948Y0232651D01*
X0197786Y0232405D01*
X0197631Y0232154D01*
X0197481Y0231900D01*
X0197338Y0231643D01*
X0197201Y0231382D01*
X0197071Y0231118D01*
X0196947Y0230850D01*
X0196830Y0230580D01*
X0196719Y0230307D01*
X0196615Y0230031D01*
X0196518Y0229753D01*
X0196428Y0229473D01*
X0196345Y0229190D01*
X0196268Y0228906D01*
X0196198Y0228619D01*
X0196136Y0228332D01*
X0196081Y0228042D01*
X0196032Y0227752D01*
X0195991Y0227460D01*
X0195957Y0227167D01*
X0195930Y0226874D01*
X0195910Y0226580D01*
X0195898Y0226286D01*
X0195892Y0225991D01*
X0195894Y0225696D01*
X0195903Y0225402D01*
X0195919Y0225108D01*
X0195943Y0224814D01*
X0195973Y0224521D01*
X0196011Y0224229D01*
X0196056Y0223938D01*
X0196108Y0223648D01*
X0196167Y0223359D01*
X0196233Y0223072D01*
X0196306Y0222786D01*
X0196386Y0222503D01*
X0196473Y0222221D01*
X0196567Y0221942D01*
X0196668Y0221665D01*
X0196775Y0221391D01*
X0196889Y0221119D01*
X0197010Y0220850D01*
X0197137Y0220585D01*
X0197271Y0220322D01*
X0197411Y0220063D01*
X0197557Y0219807D01*
X0197710Y0219555D01*
X0197868Y0219307D01*
X0198033Y0219063D01*
X0198203Y0218822D01*
X0198380Y0218586D01*
X0198562Y0218355D01*
X0198750Y0218128D01*
X0198943Y0217905D01*
X0199142Y0217688D01*
X0199345Y0217475D01*
X0199554Y0217267D01*
X0199768Y0217065D01*
X0199987Y0216868D01*
X0200211Y0216676D01*
X0200439Y0216490D01*
X0200672Y0216309D01*
X0200133Y0215590D01*
X0200132Y0215589D01*
X0199882Y0215783D01*
X0199636Y0215983D01*
X0199396Y0216189D01*
X0199161Y0216401D01*
X0198931Y0216619D01*
X0198706Y0216842D01*
X0198487Y0217070D01*
X0198273Y0217304D01*
X0198065Y0217543D01*
X0197863Y0217787D01*
X0197668Y0218036D01*
X0197478Y0218290D01*
X0197295Y0218548D01*
X0197118Y0218810D01*
X0196947Y0219077D01*
X0196783Y0219348D01*
X0196626Y0219623D01*
X0196475Y0219901D01*
X0196331Y0220184D01*
X0196195Y0220469D01*
X0196065Y0220758D01*
X0195942Y0221050D01*
X0195827Y0221345D01*
X0195719Y0221642D01*
X0195618Y0221943D01*
X0195524Y0222245D01*
X0195438Y0222550D01*
X0195359Y0222857D01*
X0195288Y0223165D01*
X0195225Y0223475D01*
X0195169Y0223787D01*
X0195120Y0224100D01*
X0195080Y0224414D01*
X0195047Y0224729D01*
X0195022Y0225045D01*
X0195004Y0225361D01*
X0194994Y0225677D01*
X0194992Y0225994D01*
X0194998Y0226311D01*
X0195011Y0226627D01*
X0195033Y0226943D01*
X0195061Y0227258D01*
X0195098Y0227573D01*
X0195142Y0227886D01*
X0195194Y0228199D01*
X0195254Y0228510D01*
X0195321Y0228819D01*
X0195396Y0229127D01*
X0195478Y0229433D01*
X0195567Y0229736D01*
X0195664Y0230038D01*
X0195769Y0230337D01*
X0195881Y0230633D01*
X0195999Y0230927D01*
X0196125Y0231217D01*
X0196258Y0231504D01*
X0196399Y0231789D01*
X0196546Y0232069D01*
X0196699Y0232346D01*
X0196860Y0232619D01*
X0197027Y0232888D01*
X0197201Y0233153D01*
X0197381Y0233413D01*
X0197567Y0233669D01*
X0197760Y0233920D01*
X0197958Y0234167D01*
X0198163Y0234409D01*
X0198373Y0234645D01*
X0198590Y0234877D01*
X0198812Y0235102D01*
X0199039Y0235323D01*
X0199271Y0235538D01*
X0199509Y0235747D01*
X0199752Y0235950D01*
X0200000Y0236148D01*
X0200252Y0236339D01*
X0200509Y0236524D01*
X0200771Y0236702D01*
X0201037Y0236874D01*
X0201306Y0237040D01*
X0201580Y0237199D01*
X0201858Y0237351D01*
X0202139Y0237496D01*
X0202424Y0237635D01*
X0202712Y0237766D01*
X0203004Y0237890D01*
X0203298Y0238008D01*
X0203595Y0238118D01*
X0203894Y0238220D01*
X0204196Y0238315D01*
X0204500Y0238403D01*
X0204807Y0238484D01*
X0205115Y0238557D01*
X0205425Y0238622D01*
X0205736Y0238680D01*
X0206049Y0238730D01*
X0206363Y0238772D01*
X0206677Y0238807D01*
X0206993Y0238834D01*
X0207309Y0238854D01*
X0207625Y0238865D01*
X0207942Y0238869D01*
X0208259Y0238865D01*
X0208575Y0238854D01*
X0208891Y0238834D01*
X0209207Y0238807D01*
X0209521Y0238772D01*
X0209835Y0238730D01*
X0210148Y0238680D01*
X0210459Y0238622D01*
X0210769Y0238557D01*
X0211077Y0238484D01*
X0211384Y0238403D01*
X0211688Y0238315D01*
X0211990Y0238220D01*
X0212289Y0238118D01*
X0212586Y0238008D01*
X0212880Y0237890D01*
X0213172Y0237766D01*
X0213460Y0237635D01*
X0213745Y0237496D01*
X0214026Y0237351D01*
X0214304Y0237199D01*
X0214578Y0237040D01*
X0214847Y0236874D01*
X0215113Y0236702D01*
X0215375Y0236524D01*
X0215632Y0236339D01*
X0215884Y0236148D01*
X0216132Y0235950D01*
X0216375Y0235747D01*
X0216613Y0235538D01*
X0216845Y0235323D01*
X0217072Y0235102D01*
X0217294Y0234877D01*
X0217511Y0234645D01*
X0217721Y0234409D01*
X0217926Y0234167D01*
X0218124Y0233920D01*
X0218317Y0233669D01*
X0218503Y0233413D01*
X0218683Y0233153D01*
X0218857Y0232888D01*
X0219024Y0232619D01*
X0219185Y0232346D01*
X0219338Y0232069D01*
X0219485Y0231789D01*
X0219626Y0231504D01*
X0219759Y0231217D01*
X0219885Y0230927D01*
X0220003Y0230633D01*
X0220115Y0230337D01*
X0220220Y0230038D01*
X0220317Y0229736D01*
X0220406Y0229433D01*
X0220488Y0229127D01*
X0220563Y0228819D01*
X0220630Y0228510D01*
X0220690Y0228199D01*
X0220742Y0227886D01*
X0220786Y0227573D01*
X0220823Y0227258D01*
X0220851Y0226943D01*
X0220873Y0226627D01*
X0220886Y0226311D01*
X0220892Y0225994D01*
X0220890Y0225677D01*
X0220880Y0225361D01*
X0220862Y0225045D01*
X0220837Y0224729D01*
X0220804Y0224414D01*
X0220764Y0224100D01*
X0220715Y0223787D01*
X0220659Y0223475D01*
X0220596Y0223165D01*
X0220525Y0222857D01*
X0220446Y0222550D01*
X0220360Y0222245D01*
X0220266Y0221943D01*
X0220165Y0221642D01*
X0220057Y0221345D01*
X0219942Y0221050D01*
X0219819Y0220758D01*
X0219689Y0220469D01*
X0219553Y0220184D01*
X0219409Y0219901D01*
X0219258Y0219623D01*
X0219101Y0219348D01*
X0218937Y0219077D01*
X0218766Y0218810D01*
X0218589Y0218548D01*
X0218406Y0218290D01*
X0218216Y0218036D01*
X0218021Y0217787D01*
X0217819Y0217543D01*
X0217611Y0217304D01*
X0217397Y0217070D01*
X0217178Y0216842D01*
X0216953Y0216619D01*
X0216723Y0216401D01*
X0216488Y0216189D01*
X0216248Y0215983D01*
X0216002Y0215783D01*
X0215752Y0215589D01*
X0215696Y0215664D01*
X0215944Y0215857D01*
X0216188Y0216056D01*
X0216426Y0216260D01*
X0216660Y0216470D01*
X0216888Y0216686D01*
X0217111Y0216908D01*
X0217329Y0217135D01*
X0217541Y0217367D01*
X0217747Y0217604D01*
X0217948Y0217846D01*
X0218142Y0218094D01*
X0218330Y0218345D01*
X0218512Y0218602D01*
X0218688Y0218862D01*
X0218857Y0219127D01*
X0219020Y0219396D01*
X0219176Y0219669D01*
X0219326Y0219945D01*
X0219468Y0220225D01*
X0219604Y0220509D01*
X0219733Y0220796D01*
X0219855Y0221086D01*
X0219969Y0221378D01*
X0220077Y0221674D01*
X0220177Y0221972D01*
X0220270Y0222272D01*
X0220355Y0222575D01*
X0220433Y0222879D01*
X0220504Y0223185D01*
X0220567Y0223493D01*
X0220623Y0223803D01*
X0220671Y0224113D01*
X0220711Y0224425D01*
X0220744Y0224738D01*
X0220769Y0225051D01*
X0220786Y0225365D01*
X0220796Y0225679D01*
X0220798Y0225994D01*
X0220792Y0226308D01*
X0220779Y0226622D01*
X0220758Y0226936D01*
X0220729Y0227249D01*
X0220693Y0227561D01*
X0220649Y0227872D01*
X0220597Y0228182D01*
X0220538Y0228491D01*
X0220471Y0228798D01*
X0220397Y0229104D01*
X0220316Y0229407D01*
X0220227Y0229709D01*
X0220130Y0230008D01*
X0220027Y0230305D01*
X0219916Y0230599D01*
X0219798Y0230890D01*
X0219673Y0231179D01*
X0219541Y0231464D01*
X0219402Y0231746D01*
X0219256Y0232024D01*
X0219103Y0232299D01*
X0218944Y0232570D01*
X0218778Y0232837D01*
X0218605Y0233100D01*
X0218427Y0233359D01*
X0218242Y0233613D01*
X0218050Y0233862D01*
X0217853Y0234107D01*
X0217650Y0234347D01*
X0217441Y0234582D01*
X0217226Y0234812D01*
X0217006Y0235036D01*
X0216781Y0235255D01*
X0216550Y0235468D01*
X0216314Y0235676D01*
X0216072Y0235878D01*
X0215827Y0236073D01*
X0215576Y0236263D01*
X0215321Y0236447D01*
X0215061Y0236624D01*
X0214797Y0236795D01*
X0214529Y0236959D01*
X0214257Y0237117D01*
X0213982Y0237268D01*
X0213702Y0237412D01*
X0213420Y0237550D01*
X0213134Y0237680D01*
X0212845Y0237804D01*
X0212552Y0237920D01*
X0212258Y0238029D01*
X0211960Y0238131D01*
X0211661Y0238225D01*
X0211358Y0238313D01*
X0211054Y0238393D01*
X0210749Y0238465D01*
X0210441Y0238530D01*
X0210132Y0238587D01*
X0209821Y0238637D01*
X0209510Y0238679D01*
X0209197Y0238714D01*
X0208884Y0238740D01*
X0208570Y0238760D01*
X0208256Y0238771D01*
X0207942Y0238775D01*
X0207628Y0238771D01*
X0207314Y0238760D01*
X0207000Y0238740D01*
X0206687Y0238714D01*
X0206374Y0238679D01*
X0206063Y0238637D01*
X0205752Y0238587D01*
X0205443Y0238530D01*
X0205135Y0238465D01*
X0204830Y0238393D01*
X0204526Y0238313D01*
X0204223Y0238225D01*
X0203924Y0238131D01*
X0203626Y0238029D01*
X0203332Y0237920D01*
X0203039Y0237804D01*
X0202750Y0237680D01*
X0202464Y0237550D01*
X0202182Y0237412D01*
X0201902Y0237268D01*
X0201627Y0237117D01*
X0201355Y0236959D01*
X0201087Y0236795D01*
X0200823Y0236624D01*
X0200563Y0236447D01*
X0200308Y0236263D01*
X0200057Y0236073D01*
X0199812Y0235878D01*
X0199570Y0235676D01*
X0199334Y0235468D01*
X0199103Y0235255D01*
X0198878Y0235036D01*
X0198658Y0234812D01*
X0198443Y0234582D01*
X0198234Y0234347D01*
X0198031Y0234107D01*
X0197834Y0233862D01*
X0197642Y0233613D01*
X0197457Y0233359D01*
X0197279Y0233100D01*
X0197106Y0232837D01*
X0196940Y0232570D01*
X0196781Y0232299D01*
X0196628Y0232024D01*
X0196482Y0231746D01*
X0196343Y0231464D01*
X0196211Y0231179D01*
X0196086Y0230890D01*
X0195968Y0230599D01*
X0195857Y0230305D01*
X0195754Y0230008D01*
X0195657Y0229709D01*
X0195568Y0229407D01*
X0195487Y0229104D01*
X0195413Y0228798D01*
X0195346Y0228491D01*
X0195287Y0228182D01*
X0195235Y0227872D01*
X0195191Y0227561D01*
X0195155Y0227249D01*
X0195126Y0226936D01*
X0195105Y0226622D01*
X0195092Y0226308D01*
X0195086Y0225994D01*
X0195088Y0225679D01*
X0195098Y0225365D01*
X0195115Y0225051D01*
X0195140Y0224738D01*
X0195173Y0224425D01*
X0195213Y0224113D01*
X0195261Y0223803D01*
X0195317Y0223493D01*
X0195380Y0223185D01*
X0195451Y0222879D01*
X0195529Y0222575D01*
X0195614Y0222272D01*
X0195707Y0221972D01*
X0195807Y0221674D01*
X0195915Y0221378D01*
X0196029Y0221086D01*
X0196151Y0220796D01*
X0196280Y0220509D01*
X0196416Y0220225D01*
X0196558Y0219945D01*
X0196708Y0219669D01*
X0196864Y0219396D01*
X0197027Y0219127D01*
X0197196Y0218862D01*
X0197372Y0218602D01*
X0197554Y0218345D01*
X0197742Y0218094D01*
X0197936Y0217846D01*
X0198137Y0217604D01*
X0198343Y0217367D01*
X0198555Y0217135D01*
X0198773Y0216908D01*
X0198996Y0216686D01*
X0199224Y0216470D01*
X0199458Y0216260D01*
X0199696Y0216056D01*
X0199940Y0215857D01*
X0200188Y0215664D01*
X0200245Y0215739D01*
X0199998Y0215931D01*
X0199756Y0216128D01*
X0199519Y0216331D01*
X0199288Y0216540D01*
X0199061Y0216754D01*
X0198839Y0216974D01*
X0198623Y0217199D01*
X0198413Y0217430D01*
X0198208Y0217665D01*
X0198009Y0217906D01*
X0197816Y0218151D01*
X0197630Y0218401D01*
X0197449Y0218655D01*
X0197274Y0218914D01*
X0197106Y0219177D01*
X0196945Y0219444D01*
X0196790Y0219715D01*
X0196641Y0219989D01*
X0196500Y0220267D01*
X0196365Y0220549D01*
X0196237Y0220833D01*
X0196116Y0221121D01*
X0196002Y0221412D01*
X0195896Y0221705D01*
X0195796Y0222001D01*
X0195704Y0222299D01*
X0195619Y0222599D01*
X0195542Y0222902D01*
X0195472Y0223206D01*
X0195409Y0223511D01*
X0195354Y0223818D01*
X0195306Y0224127D01*
X0195266Y0224436D01*
X0195234Y0224747D01*
X0195209Y0225058D01*
X0195192Y0225369D01*
X0195182Y0225681D01*
X0195180Y0225993D01*
X0195186Y0226305D01*
X0195199Y0226617D01*
X0195220Y0226928D01*
X0195248Y0227239D01*
X0195285Y0227549D01*
X0195328Y0227858D01*
X0195379Y0228166D01*
X0195438Y0228473D01*
X0195504Y0228777D01*
X0195578Y0229081D01*
X0195659Y0229382D01*
X0195747Y0229681D01*
X0195843Y0229978D01*
X0195946Y0230273D01*
X0196056Y0230565D01*
X0196173Y0230854D01*
X0196297Y0231141D01*
X0196428Y0231424D01*
X0196566Y0231704D01*
X0196711Y0231980D01*
X0196863Y0232253D01*
X0197021Y0232522D01*
X0197186Y0232787D01*
X0197357Y0233048D01*
X0197534Y0233304D01*
X0197718Y0233557D01*
X0197908Y0233804D01*
X0198103Y0234047D01*
X0198305Y0234286D01*
X0198513Y0234519D01*
X0198726Y0234747D01*
X0198944Y0234969D01*
X0199168Y0235187D01*
X0199397Y0235398D01*
X0199632Y0235604D01*
X0199871Y0235805D01*
X0200115Y0235999D01*
X0200364Y0236187D01*
X0200617Y0236370D01*
X0200875Y0236546D01*
X0201137Y0236715D01*
X0201403Y0236878D01*
X0201673Y0237035D01*
X0201947Y0237185D01*
X0202224Y0237328D01*
X0202504Y0237465D01*
X0202788Y0237594D01*
X0203075Y0237717D01*
X0203365Y0237832D01*
X0203658Y0237940D01*
X0203953Y0238042D01*
X0204251Y0238136D01*
X0204551Y0238222D01*
X0204852Y0238301D01*
X0205156Y0238373D01*
X0205461Y0238438D01*
X0205768Y0238495D01*
X0206076Y0238544D01*
X0206386Y0238586D01*
X0206696Y0238620D01*
X0207007Y0238647D01*
X0207318Y0238666D01*
X0207630Y0238677D01*
X0207942Y0238681D01*
X0208254Y0238677D01*
X0208566Y0238666D01*
X0208877Y0238647D01*
X0209188Y0238620D01*
X0209498Y0238586D01*
X0209808Y0238544D01*
X0210116Y0238495D01*
X0210423Y0238438D01*
X0210728Y0238373D01*
X0211032Y0238301D01*
X0211333Y0238222D01*
X0211633Y0238136D01*
X0211931Y0238042D01*
X0212226Y0237940D01*
X0212519Y0237832D01*
X0212809Y0237717D01*
X0213096Y0237594D01*
X0213380Y0237465D01*
X0213660Y0237328D01*
X0213937Y0237185D01*
X0214211Y0237035D01*
X0214481Y0236878D01*
X0214747Y0236715D01*
X0215009Y0236546D01*
X0215267Y0236370D01*
X0215520Y0236187D01*
X0215769Y0235999D01*
X0216013Y0235805D01*
X0216252Y0235604D01*
X0216487Y0235398D01*
X0216716Y0235187D01*
X0216940Y0234969D01*
X0217158Y0234747D01*
X0217371Y0234519D01*
X0217579Y0234286D01*
X0217781Y0234047D01*
X0217976Y0233804D01*
X0218166Y0233557D01*
X0218350Y0233304D01*
X0218527Y0233048D01*
X0218698Y0232787D01*
X0218863Y0232522D01*
X0219021Y0232253D01*
X0219173Y0231980D01*
X0219318Y0231704D01*
X0219456Y0231424D01*
X0219587Y0231141D01*
X0219711Y0230854D01*
X0219828Y0230565D01*
X0219938Y0230273D01*
X0220041Y0229978D01*
X0220137Y0229681D01*
X0220225Y0229382D01*
X0220306Y0229081D01*
X0220380Y0228777D01*
X0220446Y0228473D01*
X0220505Y0228166D01*
X0220556Y0227858D01*
X0220599Y0227549D01*
X0220636Y0227239D01*
X0220664Y0226928D01*
X0220685Y0226617D01*
X0220698Y0226305D01*
X0220704Y0225993D01*
X0220702Y0225681D01*
X0220692Y0225369D01*
X0220675Y0225058D01*
X0220650Y0224747D01*
X0220618Y0224436D01*
X0220578Y0224127D01*
X0220530Y0223818D01*
X0220475Y0223511D01*
X0220412Y0223206D01*
X0220342Y0222902D01*
X0220265Y0222599D01*
X0220180Y0222299D01*
X0220088Y0222001D01*
X0219988Y0221705D01*
X0219882Y0221412D01*
X0219768Y0221121D01*
X0219647Y0220833D01*
X0219519Y0220549D01*
X0219384Y0220267D01*
X0219243Y0219989D01*
X0219094Y0219715D01*
X0218939Y0219444D01*
X0218778Y0219177D01*
X0218610Y0218914D01*
X0218435Y0218655D01*
X0218254Y0218401D01*
X0218068Y0218151D01*
X0217875Y0217906D01*
X0217676Y0217665D01*
X0217471Y0217430D01*
X0217261Y0217199D01*
X0217045Y0216974D01*
X0216823Y0216754D01*
X0216596Y0216540D01*
X0216365Y0216331D01*
X0216128Y0216128D01*
X0215886Y0215931D01*
X0215639Y0215739D01*
X0215583Y0215815D01*
X0215828Y0216005D01*
X0216068Y0216200D01*
X0216303Y0216402D01*
X0216533Y0216609D01*
X0216758Y0216822D01*
X0216978Y0217040D01*
X0217192Y0217264D01*
X0217401Y0217493D01*
X0217604Y0217726D01*
X0217802Y0217965D01*
X0217993Y0218208D01*
X0218179Y0218457D01*
X0218358Y0218709D01*
X0218531Y0218966D01*
X0218698Y0219227D01*
X0218859Y0219492D01*
X0219012Y0219761D01*
X0219160Y0220033D01*
X0219300Y0220309D01*
X0219434Y0220589D01*
X0219561Y0220871D01*
X0219681Y0221157D01*
X0219794Y0221445D01*
X0219900Y0221736D01*
X0219998Y0222030D01*
X0220090Y0222326D01*
X0220174Y0222624D01*
X0220251Y0222924D01*
X0220320Y0223226D01*
X0220383Y0223529D01*
X0220437Y0223834D01*
X0220485Y0224140D01*
X0220524Y0224448D01*
X0220556Y0224756D01*
X0220581Y0225064D01*
X0220598Y0225374D01*
X0220608Y0225683D01*
X0220610Y0225993D01*
X0220604Y0226303D01*
X0220591Y0226612D01*
X0220570Y0226921D01*
X0220542Y0227230D01*
X0220506Y0227537D01*
X0220463Y0227844D01*
X0220412Y0228150D01*
X0220354Y0228454D01*
X0220288Y0228757D01*
X0220215Y0229058D01*
X0220135Y0229357D01*
X0220047Y0229654D01*
X0219952Y0229949D01*
X0219850Y0230241D01*
X0219741Y0230531D01*
X0219624Y0230818D01*
X0219501Y0231102D01*
X0219371Y0231383D01*
X0219234Y0231661D01*
X0219090Y0231935D01*
X0218940Y0232206D01*
X0218783Y0232473D01*
X0218619Y0232736D01*
X0218449Y0232995D01*
X0218273Y0233250D01*
X0218091Y0233501D01*
X0217902Y0233746D01*
X0217708Y0233988D01*
X0217508Y0234224D01*
X0217302Y0234455D01*
X0217090Y0234682D01*
X0216873Y0234903D01*
X0216651Y0235118D01*
X0216424Y0235329D01*
X0216191Y0235533D01*
X0215953Y0235732D01*
X0215711Y0235925D01*
X0215464Y0236112D01*
X0215213Y0236293D01*
X0214957Y0236467D01*
X0214697Y0236636D01*
X0214433Y0236798D01*
X0214165Y0236953D01*
X0213893Y0237102D01*
X0213618Y0237244D01*
X0213339Y0237380D01*
X0213058Y0237508D01*
X0212773Y0237630D01*
X0212485Y0237744D01*
X0212194Y0237852D01*
X0211901Y0237952D01*
X0211606Y0238046D01*
X0211308Y0238132D01*
X0211009Y0238210D01*
X0210707Y0238281D01*
X0210404Y0238345D01*
X0210100Y0238402D01*
X0209794Y0238451D01*
X0209487Y0238492D01*
X0209179Y0238526D01*
X0208870Y0238553D01*
X0208561Y0238572D01*
X0208252Y0238583D01*
X0207942Y0238587D01*
X0207632Y0238583D01*
X0207323Y0238572D01*
X0207014Y0238553D01*
X0206705Y0238526D01*
X0206397Y0238492D01*
X0206090Y0238451D01*
X0205784Y0238402D01*
X0205480Y0238345D01*
X0205177Y0238281D01*
X0204875Y0238210D01*
X0204576Y0238132D01*
X0204278Y0238046D01*
X0203983Y0237952D01*
X0203690Y0237852D01*
X0203399Y0237744D01*
X0203111Y0237630D01*
X0202826Y0237508D01*
X0202545Y0237380D01*
X0202266Y0237244D01*
X0201991Y0237102D01*
X0201719Y0236953D01*
X0201451Y0236798D01*
X0201187Y0236636D01*
X0200927Y0236467D01*
X0200671Y0236293D01*
X0200420Y0236112D01*
X0200173Y0235925D01*
X0199931Y0235732D01*
X0199693Y0235533D01*
X0199460Y0235329D01*
X0199233Y0235118D01*
X0199011Y0234903D01*
X0198794Y0234682D01*
X0198582Y0234455D01*
X0198376Y0234224D01*
X0198176Y0233988D01*
X0197982Y0233746D01*
X0197793Y0233501D01*
X0197611Y0233250D01*
X0197435Y0232995D01*
X0197265Y0232736D01*
X0197101Y0232473D01*
X0196944Y0232206D01*
X0196794Y0231935D01*
X0196650Y0231661D01*
X0196513Y0231383D01*
X0196383Y0231102D01*
X0196260Y0230818D01*
X0196143Y0230531D01*
X0196034Y0230241D01*
X0195932Y0229949D01*
X0195837Y0229654D01*
X0195749Y0229357D01*
X0195669Y0229058D01*
X0195596Y0228757D01*
X0195530Y0228454D01*
X0195472Y0228150D01*
X0195421Y0227844D01*
X0195378Y0227537D01*
X0195342Y0227230D01*
X0195314Y0226921D01*
X0195293Y0226612D01*
X0195280Y0226303D01*
X0195274Y0225993D01*
X0195276Y0225683D01*
X0195286Y0225374D01*
X0195303Y0225064D01*
X0195328Y0224756D01*
X0195360Y0224448D01*
X0195399Y0224140D01*
X0195447Y0223834D01*
X0195501Y0223529D01*
X0195564Y0223226D01*
X0195633Y0222924D01*
X0195710Y0222624D01*
X0195794Y0222326D01*
X0195886Y0222030D01*
X0195984Y0221736D01*
X0196090Y0221445D01*
X0196203Y0221157D01*
X0196323Y0220871D01*
X0196450Y0220589D01*
X0196584Y0220309D01*
X0196724Y0220033D01*
X0196872Y0219761D01*
X0197025Y0219492D01*
X0197186Y0219227D01*
X0197353Y0218966D01*
X0197526Y0218709D01*
X0197705Y0218457D01*
X0197891Y0218208D01*
X0198082Y0217965D01*
X0198280Y0217726D01*
X0198483Y0217493D01*
X0198692Y0217264D01*
X0198906Y0217040D01*
X0199126Y0216822D01*
X0199351Y0216609D01*
X0199581Y0216402D01*
X0199816Y0216200D01*
X0200056Y0216005D01*
X0200301Y0215815D01*
X0200358Y0215890D01*
X0200115Y0216078D01*
X0199876Y0216273D01*
X0199643Y0216473D01*
X0199415Y0216678D01*
X0199191Y0216890D01*
X0198973Y0217106D01*
X0198760Y0217328D01*
X0198553Y0217555D01*
X0198351Y0217787D01*
X0198155Y0218024D01*
X0197965Y0218266D01*
X0197781Y0218512D01*
X0197603Y0218763D01*
X0197431Y0219018D01*
X0197266Y0219277D01*
X0197106Y0219540D01*
X0196954Y0219807D01*
X0196807Y0220077D01*
X0196668Y0220351D01*
X0196535Y0220628D01*
X0196409Y0220909D01*
X0196290Y0221192D01*
X0196178Y0221479D01*
X0196073Y0221768D01*
X0195975Y0222059D01*
X0195884Y0222353D01*
X0195801Y0222649D01*
X0195724Y0222946D01*
X0195655Y0223246D01*
X0195594Y0223547D01*
X0195539Y0223850D01*
X0195493Y0224154D01*
X0195453Y0224459D01*
X0195421Y0224764D01*
X0195397Y0225071D01*
X0195380Y0225378D01*
X0195370Y0225685D01*
X0195368Y0225993D01*
X0195374Y0226300D01*
X0195387Y0226607D01*
X0195407Y0226914D01*
X0195436Y0227220D01*
X0195471Y0227526D01*
X0195514Y0227830D01*
X0195565Y0228133D01*
X0195622Y0228435D01*
X0195688Y0228736D01*
X0195760Y0229035D01*
X0195840Y0229331D01*
X0195927Y0229626D01*
X0196021Y0229919D01*
X0196123Y0230209D01*
X0196231Y0230497D01*
X0196346Y0230782D01*
X0196469Y0231064D01*
X0196598Y0231343D01*
X0196734Y0231619D01*
X0196877Y0231891D01*
X0197026Y0232160D01*
X0197182Y0232425D01*
X0197344Y0232686D01*
X0197513Y0232943D01*
X0197688Y0233196D01*
X0197869Y0233444D01*
X0198056Y0233688D01*
X0198249Y0233928D01*
X0198447Y0234162D01*
X0198652Y0234392D01*
X0198862Y0234617D01*
X0199077Y0234836D01*
X0199298Y0235050D01*
X0199523Y0235259D01*
X0199754Y0235462D01*
X0199990Y0235659D01*
X0200231Y0235851D01*
X0200476Y0236036D01*
X0200725Y0236216D01*
X0200979Y0236389D01*
X0201237Y0236556D01*
X0201499Y0236717D01*
X0201765Y0236871D01*
X0202035Y0237019D01*
X0202308Y0237160D01*
X0202585Y0237295D01*
X0202864Y0237422D01*
X0203147Y0237543D01*
X0203433Y0237657D01*
X0203721Y0237763D01*
X0204012Y0237863D01*
X0204305Y0237956D01*
X0204601Y0238041D01*
X0204898Y0238119D01*
X0205197Y0238190D01*
X0205498Y0238253D01*
X0205800Y0238309D01*
X0206104Y0238358D01*
X0206409Y0238399D01*
X0206714Y0238433D01*
X0207020Y0238459D01*
X0207327Y0238478D01*
X0207635Y0238489D01*
X0207942Y0238493D01*
X0208249Y0238489D01*
X0208557Y0238478D01*
X0208864Y0238459D01*
X0209170Y0238433D01*
X0209475Y0238399D01*
X0209780Y0238358D01*
X0210084Y0238309D01*
X0210386Y0238253D01*
X0210687Y0238190D01*
X0210986Y0238119D01*
X0211283Y0238041D01*
X0211579Y0237956D01*
X0211872Y0237863D01*
X0212163Y0237763D01*
X0212451Y0237657D01*
X0212737Y0237543D01*
X0213020Y0237422D01*
X0213299Y0237295D01*
X0213576Y0237160D01*
X0213849Y0237019D01*
X0214119Y0236871D01*
X0214385Y0236717D01*
X0214647Y0236556D01*
X0214905Y0236389D01*
X0215159Y0236216D01*
X0215408Y0236036D01*
X0215653Y0235851D01*
X0215894Y0235659D01*
X0216130Y0235462D01*
X0216361Y0235259D01*
X0216586Y0235050D01*
X0216807Y0234836D01*
X0217022Y0234617D01*
X0217232Y0234392D01*
X0217437Y0234162D01*
X0217635Y0233928D01*
X0217828Y0233688D01*
X0218015Y0233444D01*
X0218196Y0233196D01*
X0218371Y0232943D01*
X0218540Y0232686D01*
X0218702Y0232425D01*
X0218858Y0232160D01*
X0219007Y0231891D01*
X0219150Y0231619D01*
X0219286Y0231343D01*
X0219415Y0231064D01*
X0219538Y0230782D01*
X0219653Y0230497D01*
X0219761Y0230209D01*
X0219863Y0229919D01*
X0219957Y0229626D01*
X0220044Y0229331D01*
X0220124Y0229035D01*
X0220196Y0228736D01*
X0220262Y0228435D01*
X0220319Y0228133D01*
X0220370Y0227830D01*
X0220413Y0227526D01*
X0220448Y0227220D01*
X0220477Y0226914D01*
X0220497Y0226607D01*
X0220510Y0226300D01*
X0220516Y0225993D01*
X0220514Y0225685D01*
X0220504Y0225378D01*
X0220487Y0225071D01*
X0220463Y0224764D01*
X0220431Y0224459D01*
X0220391Y0224154D01*
X0220345Y0223850D01*
X0220290Y0223547D01*
X0220229Y0223246D01*
X0220160Y0222946D01*
X0220083Y0222649D01*
X0220000Y0222353D01*
X0219909Y0222059D01*
X0219811Y0221768D01*
X0219706Y0221479D01*
X0219594Y0221192D01*
X0219475Y0220909D01*
X0219349Y0220628D01*
X0219216Y0220351D01*
X0219077Y0220077D01*
X0218930Y0219807D01*
X0218778Y0219540D01*
X0218618Y0219277D01*
X0218453Y0219018D01*
X0218281Y0218763D01*
X0218103Y0218512D01*
X0217919Y0218266D01*
X0217729Y0218024D01*
X0217533Y0217787D01*
X0217331Y0217555D01*
X0217124Y0217328D01*
X0216911Y0217106D01*
X0216693Y0216890D01*
X0216469Y0216678D01*
X0216241Y0216473D01*
X0216008Y0216273D01*
X0215769Y0216078D01*
X0215526Y0215890D01*
X0215470Y0215965D01*
X0215711Y0216152D01*
X0215948Y0216345D01*
X0216179Y0216544D01*
X0216406Y0216748D01*
X0216628Y0216957D01*
X0216844Y0217172D01*
X0217055Y0217393D01*
X0217261Y0217618D01*
X0217461Y0217848D01*
X0217656Y0218084D01*
X0217844Y0218323D01*
X0218027Y0218568D01*
X0218204Y0218817D01*
X0218374Y0219070D01*
X0218539Y0219327D01*
X0218697Y0219588D01*
X0218848Y0219853D01*
X0218993Y0220121D01*
X0219132Y0220393D01*
X0219264Y0220668D01*
X0219389Y0220947D01*
X0219507Y0221228D01*
X0219618Y0221512D01*
X0219722Y0221799D01*
X0219820Y0222088D01*
X0219910Y0222380D01*
X0219993Y0222673D01*
X0220068Y0222969D01*
X0220137Y0223266D01*
X0220198Y0223565D01*
X0220252Y0223866D01*
X0220298Y0224167D01*
X0220338Y0224470D01*
X0220369Y0224773D01*
X0220394Y0225078D01*
X0220410Y0225382D01*
X0220420Y0225687D01*
X0220422Y0225992D01*
X0220416Y0226297D01*
X0220403Y0226602D01*
X0220383Y0226907D01*
X0220355Y0227211D01*
X0220320Y0227514D01*
X0220277Y0227816D01*
X0220227Y0228117D01*
X0220170Y0228417D01*
X0220105Y0228715D01*
X0220033Y0229011D01*
X0219954Y0229306D01*
X0219867Y0229599D01*
X0219774Y0229889D01*
X0219673Y0230177D01*
X0219565Y0230463D01*
X0219451Y0230746D01*
X0219329Y0231026D01*
X0219201Y0231303D01*
X0219066Y0231576D01*
X0218925Y0231846D01*
X0218776Y0232113D01*
X0218622Y0232376D01*
X0218461Y0232635D01*
X0218293Y0232891D01*
X0218120Y0233142D01*
X0217940Y0233388D01*
X0217754Y0233630D01*
X0217563Y0233868D01*
X0217366Y0234101D01*
X0217163Y0234329D01*
X0216954Y0234552D01*
X0216741Y0234770D01*
X0216522Y0234982D01*
X0216298Y0235189D01*
X0216068Y0235391D01*
X0215834Y0235587D01*
X0215596Y0235777D01*
X0215352Y0235961D01*
X0215105Y0236139D01*
X0214853Y0236311D01*
X0214596Y0236477D01*
X0214336Y0236636D01*
X0214072Y0236790D01*
X0213805Y0236936D01*
X0213534Y0237076D01*
X0213259Y0237210D01*
X0212982Y0237336D01*
X0212701Y0237456D01*
X0212417Y0237569D01*
X0212131Y0237675D01*
X0211843Y0237774D01*
X0211552Y0237866D01*
X0211258Y0237950D01*
X0210963Y0238028D01*
X0210666Y0238098D01*
X0210368Y0238161D01*
X0210068Y0238217D01*
X0209766Y0238265D01*
X0209464Y0238306D01*
X0209161Y0238339D01*
X0208857Y0238365D01*
X0208552Y0238384D01*
X0208247Y0238395D01*
X0207942Y0238399D01*
X0207637Y0238395D01*
X0207332Y0238384D01*
X0207027Y0238365D01*
X0206723Y0238339D01*
X0206420Y0238306D01*
X0206118Y0238265D01*
X0205816Y0238217D01*
X0205516Y0238161D01*
X0205218Y0238098D01*
X0204921Y0238028D01*
X0204626Y0237950D01*
X0204332Y0237866D01*
X0204041Y0237774D01*
X0203753Y0237675D01*
X0203467Y0237569D01*
X0203183Y0237456D01*
X0202902Y0237336D01*
X0202625Y0237210D01*
X0202350Y0237076D01*
X0202079Y0236936D01*
X0201812Y0236790D01*
X0201548Y0236636D01*
X0201288Y0236477D01*
X0201031Y0236311D01*
X0200779Y0236139D01*
X0200532Y0235961D01*
X0200288Y0235777D01*
X0200050Y0235587D01*
X0199816Y0235391D01*
X0199586Y0235189D01*
X0199362Y0234982D01*
X0199143Y0234770D01*
X0198930Y0234552D01*
X0198721Y0234329D01*
X0198518Y0234101D01*
X0198321Y0233868D01*
X0198130Y0233630D01*
X0197944Y0233388D01*
X0197764Y0233142D01*
X0197591Y0232891D01*
X0197423Y0232635D01*
X0197262Y0232376D01*
X0197108Y0232113D01*
X0196959Y0231846D01*
X0196818Y0231576D01*
X0196683Y0231303D01*
X0196555Y0231026D01*
X0196433Y0230746D01*
X0196319Y0230463D01*
X0196211Y0230177D01*
X0196110Y0229889D01*
X0196017Y0229599D01*
X0195930Y0229306D01*
X0195851Y0229011D01*
X0195779Y0228715D01*
X0195714Y0228417D01*
X0195657Y0228117D01*
X0195607Y0227816D01*
X0195564Y0227514D01*
X0195529Y0227211D01*
X0195501Y0226907D01*
X0195481Y0226602D01*
X0195468Y0226297D01*
X0195462Y0225992D01*
X0195464Y0225687D01*
X0195474Y0225382D01*
X0195490Y0225078D01*
X0195515Y0224773D01*
X0195546Y0224470D01*
X0195586Y0224167D01*
X0195632Y0223866D01*
X0195686Y0223565D01*
X0195747Y0223266D01*
X0195816Y0222969D01*
X0195891Y0222673D01*
X0195974Y0222380D01*
X0196064Y0222088D01*
X0196162Y0221799D01*
X0196266Y0221512D01*
X0196377Y0221228D01*
X0196495Y0220947D01*
X0196620Y0220668D01*
X0196752Y0220393D01*
X0196891Y0220121D01*
X0197036Y0219853D01*
X0197187Y0219588D01*
X0197345Y0219327D01*
X0197510Y0219070D01*
X0197680Y0218817D01*
X0197857Y0218568D01*
X0198040Y0218323D01*
X0198228Y0218084D01*
X0198423Y0217848D01*
X0198623Y0217618D01*
X0198829Y0217393D01*
X0199040Y0217172D01*
X0199256Y0216957D01*
X0199478Y0216748D01*
X0199705Y0216544D01*
X0199936Y0216345D01*
X0200173Y0216152D01*
X0200414Y0215965D01*
X0200470Y0216040D01*
X0200231Y0216226D01*
X0199996Y0216417D01*
X0199767Y0216614D01*
X0199542Y0216817D01*
X0199321Y0217025D01*
X0199107Y0217239D01*
X0198897Y0217457D01*
X0198693Y0217681D01*
X0198494Y0217909D01*
X0198301Y0218143D01*
X0198114Y0218381D01*
X0197933Y0218623D01*
X0197757Y0218870D01*
X0197588Y0219121D01*
X0197425Y0219377D01*
X0197268Y0219636D01*
X0197118Y0219899D01*
X0196974Y0220165D01*
X0196836Y0220435D01*
X0196705Y0220708D01*
X0196581Y0220984D01*
X0196464Y0221264D01*
X0196354Y0221546D01*
X0196250Y0221830D01*
X0196154Y0222117D01*
X0196064Y0222407D01*
X0195982Y0222698D01*
X0195907Y0222991D01*
X0195839Y0223287D01*
X0195778Y0223583D01*
X0195725Y0223881D01*
X0195679Y0224181D01*
X0195640Y0224481D01*
X0195608Y0224782D01*
X0195584Y0225084D01*
X0195567Y0225387D01*
X0195558Y0225689D01*
X0195556Y0225992D01*
X0195562Y0226295D01*
X0195575Y0226597D01*
X0195595Y0226900D01*
X0195623Y0227201D01*
X0195658Y0227502D01*
X0195700Y0227802D01*
X0195750Y0228101D01*
X0195807Y0228398D01*
X0195871Y0228694D01*
X0195942Y0228988D01*
X0196021Y0229281D01*
X0196107Y0229571D01*
X0196200Y0229860D01*
X0196299Y0230145D01*
X0196406Y0230429D01*
X0196520Y0230709D01*
X0196640Y0230987D01*
X0196768Y0231262D01*
X0196902Y0231534D01*
X0197042Y0231802D01*
X0197189Y0232067D01*
X0197343Y0232328D01*
X0197503Y0232585D01*
X0197669Y0232838D01*
X0197841Y0233087D01*
X0198019Y0233332D01*
X0198204Y0233573D01*
X0198394Y0233808D01*
X0198589Y0234039D01*
X0198791Y0234266D01*
X0198997Y0234487D01*
X0199210Y0234703D01*
X0199427Y0234914D01*
X0199649Y0235119D01*
X0199877Y0235319D01*
X0200109Y0235514D01*
X0200346Y0235702D01*
X0200588Y0235885D01*
X0200833Y0236062D01*
X0201084Y0236233D01*
X0201338Y0236397D01*
X0201596Y0236556D01*
X0201858Y0236708D01*
X0202123Y0236853D01*
X0202392Y0236992D01*
X0202665Y0237125D01*
X0202940Y0237250D01*
X0203219Y0237369D01*
X0203500Y0237481D01*
X0203784Y0237586D01*
X0204071Y0237685D01*
X0204360Y0237776D01*
X0204651Y0237860D01*
X0204944Y0237937D01*
X0205238Y0238006D01*
X0205535Y0238069D01*
X0205832Y0238124D01*
X0206131Y0238172D01*
X0206431Y0238213D01*
X0206733Y0238246D01*
X0207034Y0238272D01*
X0207337Y0238290D01*
X0207639Y0238301D01*
X0207942Y0238305D01*
X0208245Y0238301D01*
X0208547Y0238290D01*
X0208850Y0238272D01*
X0209151Y0238246D01*
X0209453Y0238213D01*
X0209753Y0238172D01*
X0210052Y0238124D01*
X0210349Y0238069D01*
X0210646Y0238006D01*
X0210940Y0237937D01*
X0211233Y0237860D01*
X0211524Y0237776D01*
X0211813Y0237685D01*
X0212100Y0237586D01*
X0212384Y0237481D01*
X0212665Y0237369D01*
X0212944Y0237250D01*
X0213219Y0237125D01*
X0213492Y0236992D01*
X0213761Y0236853D01*
X0214026Y0236708D01*
X0214288Y0236556D01*
X0214546Y0236397D01*
X0214800Y0236233D01*
X0215051Y0236062D01*
X0215296Y0235885D01*
X0215538Y0235702D01*
X0215775Y0235514D01*
X0216007Y0235319D01*
X0216235Y0235119D01*
X0216457Y0234914D01*
X0216674Y0234703D01*
X0216887Y0234487D01*
X0217093Y0234266D01*
X0217295Y0234039D01*
X0217490Y0233808D01*
X0217680Y0233573D01*
X0217865Y0233332D01*
X0218043Y0233087D01*
X0218215Y0232838D01*
X0218381Y0232585D01*
X0218541Y0232328D01*
X0218695Y0232067D01*
X0218842Y0231802D01*
X0218982Y0231534D01*
X0219116Y0231262D01*
X0219244Y0230987D01*
X0219364Y0230709D01*
X0219478Y0230429D01*
X0219585Y0230145D01*
X0219684Y0229860D01*
X0219777Y0229571D01*
X0219863Y0229281D01*
X0219942Y0228988D01*
X0220013Y0228694D01*
X0220077Y0228398D01*
X0220134Y0228101D01*
X0220184Y0227802D01*
X0220226Y0227502D01*
X0220261Y0227201D01*
X0220289Y0226900D01*
X0220309Y0226597D01*
X0220322Y0226295D01*
X0220328Y0225992D01*
X0220326Y0225689D01*
X0220317Y0225387D01*
X0220300Y0225084D01*
X0220276Y0224782D01*
X0220244Y0224481D01*
X0220205Y0224181D01*
X0220159Y0223881D01*
X0220106Y0223583D01*
X0220045Y0223287D01*
X0219977Y0222991D01*
X0219902Y0222698D01*
X0219820Y0222407D01*
X0219730Y0222117D01*
X0219634Y0221830D01*
X0219530Y0221546D01*
X0219420Y0221264D01*
X0219303Y0220984D01*
X0219179Y0220708D01*
X0219048Y0220435D01*
X0218910Y0220165D01*
X0218766Y0219899D01*
X0218616Y0219636D01*
X0218459Y0219377D01*
X0218296Y0219121D01*
X0218127Y0218870D01*
X0217951Y0218623D01*
X0217770Y0218381D01*
X0217583Y0218143D01*
X0217390Y0217909D01*
X0217191Y0217681D01*
X0216987Y0217457D01*
X0216777Y0217239D01*
X0216563Y0217025D01*
X0216342Y0216817D01*
X0216117Y0216614D01*
X0215888Y0216417D01*
X0215653Y0216226D01*
X0215414Y0216040D01*
X0215357Y0216115D01*
X0215595Y0216300D01*
X0215827Y0216490D01*
X0216056Y0216685D01*
X0216279Y0216886D01*
X0216497Y0217093D01*
X0216711Y0217305D01*
X0216919Y0217522D01*
X0217121Y0217744D01*
X0217318Y0217971D01*
X0217510Y0218202D01*
X0217696Y0218438D01*
X0217876Y0218679D01*
X0218050Y0218924D01*
X0218218Y0219173D01*
X0218380Y0219427D01*
X0218535Y0219684D01*
X0218684Y0219945D01*
X0218827Y0220209D01*
X0218964Y0220477D01*
X0219093Y0220748D01*
X0219216Y0221022D01*
X0219333Y0221299D01*
X0219442Y0221579D01*
X0219545Y0221862D01*
X0219641Y0222146D01*
X0219729Y0222434D01*
X0219811Y0222723D01*
X0219886Y0223014D01*
X0219953Y0223307D01*
X0220014Y0223601D01*
X0220067Y0223897D01*
X0220112Y0224194D01*
X0220151Y0224492D01*
X0220182Y0224791D01*
X0220206Y0225091D01*
X0220223Y0225391D01*
X0220232Y0225691D01*
X0220234Y0225992D01*
X0220228Y0226292D01*
X0220216Y0226593D01*
X0220195Y0226892D01*
X0220168Y0227192D01*
X0220133Y0227490D01*
X0220091Y0227788D01*
X0220042Y0228084D01*
X0219985Y0228379D01*
X0219921Y0228673D01*
X0219851Y0228965D01*
X0219773Y0229255D01*
X0219687Y0229544D01*
X0219595Y0229830D01*
X0219496Y0230114D01*
X0219390Y0230395D01*
X0219277Y0230673D01*
X0219158Y0230949D01*
X0219031Y0231222D01*
X0218898Y0231491D01*
X0218759Y0231757D01*
X0218613Y0232020D01*
X0218461Y0232279D01*
X0218302Y0232535D01*
X0218137Y0232786D01*
X0217966Y0233033D01*
X0217789Y0233276D01*
X0217606Y0233515D01*
X0217418Y0233749D01*
X0217224Y0233978D01*
X0217024Y0234202D01*
X0216819Y0234422D01*
X0216608Y0234636D01*
X0216392Y0234846D01*
X0216172Y0235050D01*
X0215946Y0235248D01*
X0215715Y0235441D01*
X0215480Y0235628D01*
X0215241Y0235810D01*
X0214997Y0235985D01*
X0214748Y0236155D01*
X0214496Y0236318D01*
X0214240Y0236475D01*
X0213980Y0236626D01*
X0213716Y0236770D01*
X0213449Y0236908D01*
X0213179Y0237040D01*
X0212906Y0237164D01*
X0212629Y0237282D01*
X0212350Y0237393D01*
X0212068Y0237498D01*
X0211784Y0237595D01*
X0211497Y0237686D01*
X0211208Y0237769D01*
X0210918Y0237845D01*
X0210625Y0237915D01*
X0210331Y0237977D01*
X0210036Y0238031D01*
X0209739Y0238079D01*
X0209441Y0238119D01*
X0209142Y0238152D01*
X0208843Y0238178D01*
X0208543Y0238196D01*
X0208243Y0238207D01*
X0207942Y0238211D01*
X0207641Y0238207D01*
X0207341Y0238196D01*
X0207041Y0238178D01*
X0206742Y0238152D01*
X0206443Y0238119D01*
X0206145Y0238079D01*
X0205848Y0238031D01*
X0205553Y0237977D01*
X0205259Y0237915D01*
X0204966Y0237845D01*
X0204676Y0237769D01*
X0204387Y0237686D01*
X0204100Y0237595D01*
X0203816Y0237498D01*
X0203534Y0237393D01*
X0203255Y0237282D01*
X0202978Y0237164D01*
X0202705Y0237040D01*
X0202435Y0236908D01*
X0202168Y0236770D01*
X0201904Y0236626D01*
X0201644Y0236475D01*
X0201388Y0236318D01*
X0201136Y0236155D01*
X0200887Y0235985D01*
X0200643Y0235810D01*
X0200404Y0235628D01*
X0200169Y0235441D01*
X0199938Y0235248D01*
X0199712Y0235050D01*
X0199492Y0234846D01*
X0199276Y0234636D01*
X0199065Y0234422D01*
X0198860Y0234202D01*
X0198660Y0233978D01*
X0198466Y0233749D01*
X0198278Y0233515D01*
X0198095Y0233276D01*
X0197918Y0233033D01*
X0197747Y0232786D01*
X0197582Y0232535D01*
X0197423Y0232279D01*
X0197271Y0232020D01*
X0197125Y0231757D01*
X0196986Y0231491D01*
X0196853Y0231222D01*
X0196726Y0230949D01*
X0196607Y0230673D01*
X0196494Y0230395D01*
X0196388Y0230114D01*
X0196289Y0229830D01*
X0196197Y0229544D01*
X0196111Y0229255D01*
X0196033Y0228965D01*
X0195963Y0228673D01*
X0195899Y0228379D01*
X0195842Y0228084D01*
X0195793Y0227788D01*
X0195751Y0227490D01*
X0195716Y0227192D01*
X0195689Y0226892D01*
X0195668Y0226593D01*
X0195656Y0226292D01*
X0195650Y0225992D01*
X0195652Y0225691D01*
X0195661Y0225391D01*
X0195678Y0225091D01*
X0195702Y0224791D01*
X0195733Y0224492D01*
X0195772Y0224194D01*
X0195817Y0223897D01*
X0195870Y0223601D01*
X0195931Y0223307D01*
X0195998Y0223014D01*
X0196073Y0222723D01*
X0196155Y0222434D01*
X0196243Y0222146D01*
X0196339Y0221862D01*
X0196442Y0221579D01*
X0196551Y0221299D01*
X0196668Y0221022D01*
X0196791Y0220748D01*
X0196920Y0220477D01*
X0197057Y0220209D01*
X0197200Y0219945D01*
X0197349Y0219684D01*
X0197504Y0219427D01*
X0197666Y0219173D01*
X0197834Y0218924D01*
X0198008Y0218679D01*
X0198188Y0218438D01*
X0198374Y0218202D01*
X0198566Y0217971D01*
X0198763Y0217744D01*
X0198965Y0217522D01*
X0199173Y0217305D01*
X0199387Y0217093D01*
X0199605Y0216886D01*
X0199828Y0216685D01*
X0200057Y0216490D01*
X0200289Y0216300D01*
X0200527Y0216115D01*
X0200583Y0216191D01*
X0200348Y0216373D01*
X0200117Y0216562D01*
X0199890Y0216756D01*
X0199668Y0216956D01*
X0199452Y0217161D01*
X0199240Y0217371D01*
X0199034Y0217586D01*
X0198833Y0217806D01*
X0198637Y0218032D01*
X0198447Y0218261D01*
X0198263Y0218496D01*
X0198084Y0218735D01*
X0197911Y0218978D01*
X0197745Y0219225D01*
X0197584Y0219477D01*
X0197430Y0219732D01*
X0197282Y0219991D01*
X0197140Y0220253D01*
X0197005Y0220519D01*
X0196876Y0220788D01*
X0196754Y0221060D01*
X0196638Y0221335D01*
X0196529Y0221613D01*
X0196428Y0221893D01*
X0196333Y0222176D01*
X0196245Y0222461D01*
X0196164Y0222748D01*
X0196089Y0223036D01*
X0196023Y0223327D01*
X0195963Y0223619D01*
X0195910Y0223913D01*
X0195865Y0224208D01*
X0195826Y0224503D01*
X0195795Y0224800D01*
X0195772Y0225097D01*
X0195755Y0225395D01*
X0195746Y0225693D01*
X0195744Y0225991D01*
X0195750Y0226290D01*
X0195762Y0226588D01*
X0195782Y0226885D01*
X0195810Y0227182D01*
X0195844Y0227478D01*
X0195886Y0227774D01*
X0195935Y0228068D01*
X0195991Y0228361D01*
X0196054Y0228652D01*
X0196125Y0228942D01*
X0196202Y0229230D01*
X0196286Y0229516D01*
X0196378Y0229800D01*
X0196476Y0230082D01*
X0196581Y0230361D01*
X0196693Y0230637D01*
X0196812Y0230911D01*
X0196937Y0231181D01*
X0197069Y0231449D01*
X0197208Y0231713D01*
X0197353Y0231974D01*
X0197504Y0232231D01*
X0197661Y0232484D01*
X0197825Y0232733D01*
X0197995Y0232979D01*
X0198170Y0233220D01*
X0198352Y0233457D01*
X0198539Y0233689D01*
X0198731Y0233916D01*
X0198930Y0234139D01*
X0199133Y0234357D01*
X0199342Y0234570D01*
X0199556Y0234778D01*
X0199776Y0234980D01*
X0199999Y0235177D01*
X0200228Y0235368D01*
X0200462Y0235554D01*
X0200699Y0235734D01*
X0200941Y0235908D01*
X0201188Y0236076D01*
X0201438Y0236238D01*
X0201692Y0236394D01*
X0201950Y0236544D01*
X0202212Y0236687D01*
X0202477Y0236824D01*
X0202745Y0236955D01*
X0203016Y0237078D01*
X0203291Y0237195D01*
X0203568Y0237306D01*
X0203848Y0237409D01*
X0204130Y0237506D01*
X0204414Y0237596D01*
X0204701Y0237678D01*
X0204989Y0237754D01*
X0205279Y0237823D01*
X0205571Y0237884D01*
X0205864Y0237939D01*
X0206159Y0237986D01*
X0206454Y0238026D01*
X0206751Y0238059D01*
X0207048Y0238084D01*
X0207346Y0238102D01*
X0207644Y0238113D01*
X0207942Y0238117D01*
X0208240Y0238113D01*
X0208538Y0238102D01*
X0208836Y0238084D01*
X0209133Y0238059D01*
X0209430Y0238026D01*
X0209725Y0237986D01*
X0210020Y0237939D01*
X0210313Y0237884D01*
X0210605Y0237823D01*
X0210895Y0237754D01*
X0211183Y0237678D01*
X0211470Y0237596D01*
X0211754Y0237506D01*
X0212036Y0237409D01*
X0212316Y0237306D01*
X0212593Y0237195D01*
X0212868Y0237078D01*
X0213139Y0236955D01*
X0213407Y0236824D01*
X0213672Y0236687D01*
X0213934Y0236544D01*
X0214192Y0236394D01*
X0214446Y0236238D01*
X0214696Y0236076D01*
X0214943Y0235908D01*
X0215185Y0235734D01*
X0215422Y0235554D01*
X0215656Y0235368D01*
X0215885Y0235177D01*
X0216108Y0234980D01*
X0216328Y0234778D01*
X0216542Y0234570D01*
X0216751Y0234357D01*
X0216954Y0234139D01*
X0217153Y0233916D01*
X0217345Y0233689D01*
X0217532Y0233457D01*
X0217714Y0233220D01*
X0217889Y0232979D01*
X0218059Y0232733D01*
X0218223Y0232484D01*
X0218380Y0232231D01*
X0218531Y0231974D01*
X0218676Y0231713D01*
X0218815Y0231449D01*
X0218947Y0231181D01*
X0219072Y0230911D01*
X0219191Y0230637D01*
X0219303Y0230361D01*
X0219408Y0230082D01*
X0219506Y0229800D01*
X0219598Y0229516D01*
X0219682Y0229230D01*
X0219759Y0228942D01*
X0219830Y0228652D01*
X0219893Y0228361D01*
X0219949Y0228068D01*
X0219998Y0227774D01*
X0220040Y0227478D01*
X0220074Y0227182D01*
X0220102Y0226885D01*
X0220122Y0226588D01*
X0220134Y0226290D01*
X0220140Y0225991D01*
X0220138Y0225693D01*
X0220129Y0225395D01*
X0220112Y0225097D01*
X0220089Y0224800D01*
X0220058Y0224503D01*
X0220019Y0224208D01*
X0219974Y0223913D01*
X0219921Y0223619D01*
X0219861Y0223327D01*
X0219795Y0223036D01*
X0219720Y0222748D01*
X0219639Y0222461D01*
X0219551Y0222176D01*
X0219456Y0221893D01*
X0219355Y0221613D01*
X0219246Y0221335D01*
X0219130Y0221060D01*
X0219008Y0220788D01*
X0218879Y0220519D01*
X0218744Y0220253D01*
X0218602Y0219991D01*
X0218454Y0219732D01*
X0218300Y0219477D01*
X0218139Y0219225D01*
X0217973Y0218978D01*
X0217800Y0218735D01*
X0217621Y0218496D01*
X0217437Y0218261D01*
X0217247Y0218032D01*
X0217051Y0217806D01*
X0216850Y0217586D01*
X0216644Y0217371D01*
X0216432Y0217161D01*
X0216216Y0216956D01*
X0215994Y0216756D01*
X0215767Y0216562D01*
X0215536Y0216373D01*
X0215301Y0216191D01*
X0215244Y0216266D01*
X0215478Y0216447D01*
X0215707Y0216634D01*
X0215932Y0216827D01*
X0216152Y0217025D01*
X0216367Y0217228D01*
X0216577Y0217437D01*
X0216782Y0217651D01*
X0216981Y0217869D01*
X0217175Y0218093D01*
X0217364Y0218321D01*
X0217547Y0218553D01*
X0217724Y0218790D01*
X0217895Y0219032D01*
X0218061Y0219277D01*
X0218220Y0219526D01*
X0218373Y0219780D01*
X0218520Y0220036D01*
X0218661Y0220297D01*
X0218795Y0220561D01*
X0218923Y0220828D01*
X0219044Y0221098D01*
X0219159Y0221370D01*
X0219267Y0221646D01*
X0219368Y0221924D01*
X0219462Y0222205D01*
X0219549Y0222487D01*
X0219630Y0222772D01*
X0219703Y0223059D01*
X0219770Y0223347D01*
X0219829Y0223637D01*
X0219881Y0223929D01*
X0219926Y0224221D01*
X0219964Y0224515D01*
X0219995Y0224809D01*
X0220019Y0225104D01*
X0220035Y0225399D01*
X0220044Y0225695D01*
X0220046Y0225991D01*
X0220040Y0226287D01*
X0220028Y0226583D01*
X0220008Y0226878D01*
X0219981Y0227173D01*
X0219947Y0227467D01*
X0219905Y0227760D01*
X0219857Y0228052D01*
X0219801Y0228342D01*
X0219738Y0228631D01*
X0219668Y0228919D01*
X0219591Y0229205D01*
X0219508Y0229489D01*
X0219417Y0229770D01*
X0219319Y0230050D01*
X0219215Y0230327D01*
X0219104Y0230601D01*
X0218986Y0230872D01*
X0218862Y0231141D01*
X0218731Y0231406D01*
X0218593Y0231668D01*
X0218450Y0231927D01*
X0218300Y0232182D01*
X0218143Y0232434D01*
X0217981Y0232681D01*
X0217813Y0232924D01*
X0217638Y0233164D01*
X0217458Y0233399D01*
X0217273Y0233629D01*
X0217081Y0233855D01*
X0216885Y0234076D01*
X0216683Y0234292D01*
X0216475Y0234503D01*
X0216263Y0234709D01*
X0216045Y0234910D01*
X0215823Y0235106D01*
X0215596Y0235296D01*
X0215365Y0235480D01*
X0215129Y0235658D01*
X0214889Y0235831D01*
X0214644Y0235998D01*
X0214396Y0236159D01*
X0214143Y0236314D01*
X0213887Y0236462D01*
X0213628Y0236604D01*
X0213365Y0236740D01*
X0213099Y0236870D01*
X0212830Y0236992D01*
X0212557Y0237109D01*
X0212282Y0237218D01*
X0212005Y0237321D01*
X0211725Y0237417D01*
X0211443Y0237506D01*
X0211158Y0237588D01*
X0210872Y0237663D01*
X0210584Y0237731D01*
X0210295Y0237792D01*
X0210004Y0237846D01*
X0209711Y0237893D01*
X0209418Y0237933D01*
X0209124Y0237965D01*
X0208829Y0237990D01*
X0208534Y0238009D01*
X0208238Y0238019D01*
X0207942Y0238023D01*
X0207646Y0238019D01*
X0207350Y0238009D01*
X0207055Y0237990D01*
X0206760Y0237965D01*
X0206466Y0237933D01*
X0206173Y0237893D01*
X0205880Y0237846D01*
X0205589Y0237792D01*
X0205300Y0237731D01*
X0205012Y0237663D01*
X0204726Y0237588D01*
X0204441Y0237506D01*
X0204159Y0237417D01*
X0203879Y0237321D01*
X0203602Y0237218D01*
X0203327Y0237109D01*
X0203054Y0236992D01*
X0202785Y0236870D01*
X0202519Y0236740D01*
X0202256Y0236604D01*
X0201997Y0236462D01*
X0201741Y0236314D01*
X0201488Y0236159D01*
X0201240Y0235998D01*
X0200995Y0235831D01*
X0200755Y0235658D01*
X0200519Y0235480D01*
X0200288Y0235296D01*
X0200061Y0235106D01*
X0199839Y0234910D01*
X0199621Y0234709D01*
X0199409Y0234503D01*
X0199201Y0234292D01*
X0198999Y0234076D01*
X0198803Y0233855D01*
X0198611Y0233629D01*
X0198426Y0233399D01*
X0198246Y0233164D01*
X0198071Y0232924D01*
X0197903Y0232681D01*
X0197741Y0232434D01*
X0197584Y0232182D01*
X0197434Y0231927D01*
X0197291Y0231668D01*
X0197153Y0231406D01*
X0197022Y0231141D01*
X0196898Y0230872D01*
X0196780Y0230601D01*
X0196669Y0230327D01*
X0196565Y0230050D01*
X0196467Y0229770D01*
X0196376Y0229489D01*
X0196293Y0229205D01*
X0196216Y0228919D01*
X0196146Y0228631D01*
X0196083Y0228342D01*
X0196027Y0228052D01*
X0195979Y0227760D01*
X0195937Y0227467D01*
X0195903Y0227173D01*
X0195876Y0226878D01*
X0195856Y0226583D01*
X0195844Y0226287D01*
X0195838Y0225991D01*
X0195840Y0225695D01*
X0195849Y0225399D01*
X0195865Y0225104D01*
X0195889Y0224809D01*
X0195920Y0224515D01*
X0195958Y0224221D01*
X0196003Y0223929D01*
X0196055Y0223637D01*
X0196114Y0223347D01*
X0196181Y0223059D01*
X0196254Y0222772D01*
X0196335Y0222487D01*
X0196422Y0222205D01*
X0196516Y0221924D01*
X0196617Y0221646D01*
X0196725Y0221370D01*
X0196840Y0221098D01*
X0196961Y0220828D01*
X0197089Y0220561D01*
X0197223Y0220297D01*
X0197364Y0220036D01*
X0197511Y0219780D01*
X0197664Y0219526D01*
X0197823Y0219277D01*
X0197989Y0219032D01*
X0198160Y0218790D01*
X0198337Y0218553D01*
X0198520Y0218321D01*
X0198709Y0218093D01*
X0198903Y0217869D01*
X0199102Y0217651D01*
X0199307Y0217437D01*
X0199517Y0217228D01*
X0199732Y0217025D01*
X0199952Y0216827D01*
X0200177Y0216634D01*
X0200406Y0216447D01*
X0200640Y0216266D01*
D16*
X0191505Y0068636D02*
X0191507Y0068761D01*
X0191513Y0068886D01*
X0191523Y0069010D01*
X0191537Y0069134D01*
X0191554Y0069258D01*
X0191576Y0069381D01*
X0191602Y0069503D01*
X0191631Y0069625D01*
X0191664Y0069745D01*
X0191702Y0069864D01*
X0191742Y0069983D01*
X0191787Y0070099D01*
X0191835Y0070214D01*
X0191887Y0070328D01*
X0191943Y0070440D01*
X0192002Y0070550D01*
X0192064Y0070658D01*
X0192130Y0070765D01*
X0192199Y0070869D01*
X0192272Y0070970D01*
X0192347Y0071070D01*
X0192426Y0071167D01*
X0192508Y0071261D01*
X0192593Y0071353D01*
X0192680Y0071442D01*
X0192771Y0071528D01*
X0192864Y0071611D01*
X0192960Y0071692D01*
X0193058Y0071769D01*
X0193158Y0071843D01*
X0193261Y0071914D01*
X0193366Y0071981D01*
X0193474Y0072046D01*
X0193583Y0072106D01*
X0193694Y0072164D01*
X0193807Y0072217D01*
X0193921Y0072267D01*
X0194037Y0072314D01*
X0194154Y0072356D01*
X0194273Y0072395D01*
X0194393Y0072431D01*
X0194514Y0072462D01*
X0194636Y0072490D01*
X0194758Y0072513D01*
X0194882Y0072533D01*
X0195006Y0072549D01*
X0195130Y0072561D01*
X0195255Y0072569D01*
X0195380Y0072573D01*
X0195504Y0072573D01*
X0195629Y0072569D01*
X0195754Y0072561D01*
X0195878Y0072549D01*
X0196002Y0072533D01*
X0196126Y0072513D01*
X0196248Y0072490D01*
X0196370Y0072462D01*
X0196491Y0072431D01*
X0196611Y0072395D01*
X0196730Y0072356D01*
X0196847Y0072314D01*
X0196963Y0072267D01*
X0197077Y0072217D01*
X0197190Y0072164D01*
X0197301Y0072106D01*
X0197411Y0072046D01*
X0197518Y0071981D01*
X0197623Y0071914D01*
X0197726Y0071843D01*
X0197826Y0071769D01*
X0197924Y0071692D01*
X0198020Y0071611D01*
X0198113Y0071528D01*
X0198204Y0071442D01*
X0198291Y0071353D01*
X0198376Y0071261D01*
X0198458Y0071167D01*
X0198537Y0071070D01*
X0198612Y0070970D01*
X0198685Y0070869D01*
X0198754Y0070765D01*
X0198820Y0070658D01*
X0198882Y0070550D01*
X0198941Y0070440D01*
X0198997Y0070328D01*
X0199049Y0070214D01*
X0199097Y0070099D01*
X0199142Y0069983D01*
X0199182Y0069864D01*
X0199220Y0069745D01*
X0199253Y0069625D01*
X0199282Y0069503D01*
X0199308Y0069381D01*
X0199330Y0069258D01*
X0199347Y0069134D01*
X0199361Y0069010D01*
X0199371Y0068886D01*
X0199377Y0068761D01*
X0199379Y0068636D01*
X0199377Y0068511D01*
X0199371Y0068386D01*
X0199361Y0068262D01*
X0199347Y0068138D01*
X0199330Y0068014D01*
X0199308Y0067891D01*
X0199282Y0067769D01*
X0199253Y0067647D01*
X0199220Y0067527D01*
X0199182Y0067408D01*
X0199142Y0067289D01*
X0199097Y0067173D01*
X0199049Y0067058D01*
X0198997Y0066944D01*
X0198941Y0066832D01*
X0198882Y0066722D01*
X0198820Y0066614D01*
X0198754Y0066507D01*
X0198685Y0066403D01*
X0198612Y0066302D01*
X0198537Y0066202D01*
X0198458Y0066105D01*
X0198376Y0066011D01*
X0198291Y0065919D01*
X0198204Y0065830D01*
X0198113Y0065744D01*
X0198020Y0065661D01*
X0197924Y0065580D01*
X0197826Y0065503D01*
X0197726Y0065429D01*
X0197623Y0065358D01*
X0197518Y0065291D01*
X0197410Y0065226D01*
X0197301Y0065166D01*
X0197190Y0065108D01*
X0197077Y0065055D01*
X0196963Y0065005D01*
X0196847Y0064958D01*
X0196730Y0064916D01*
X0196611Y0064877D01*
X0196491Y0064841D01*
X0196370Y0064810D01*
X0196248Y0064782D01*
X0196126Y0064759D01*
X0196002Y0064739D01*
X0195878Y0064723D01*
X0195754Y0064711D01*
X0195629Y0064703D01*
X0195504Y0064699D01*
X0195380Y0064699D01*
X0195255Y0064703D01*
X0195130Y0064711D01*
X0195006Y0064723D01*
X0194882Y0064739D01*
X0194758Y0064759D01*
X0194636Y0064782D01*
X0194514Y0064810D01*
X0194393Y0064841D01*
X0194273Y0064877D01*
X0194154Y0064916D01*
X0194037Y0064958D01*
X0193921Y0065005D01*
X0193807Y0065055D01*
X0193694Y0065108D01*
X0193583Y0065166D01*
X0193473Y0065226D01*
X0193366Y0065291D01*
X0193261Y0065358D01*
X0193158Y0065429D01*
X0193058Y0065503D01*
X0192960Y0065580D01*
X0192864Y0065661D01*
X0192771Y0065744D01*
X0192680Y0065830D01*
X0192593Y0065919D01*
X0192508Y0066011D01*
X0192426Y0066105D01*
X0192347Y0066202D01*
X0192272Y0066302D01*
X0192199Y0066403D01*
X0192130Y0066507D01*
X0192064Y0066614D01*
X0192002Y0066722D01*
X0191943Y0066832D01*
X0191887Y0066944D01*
X0191835Y0067058D01*
X0191787Y0067173D01*
X0191742Y0067289D01*
X0191702Y0067408D01*
X0191664Y0067527D01*
X0191631Y0067647D01*
X0191602Y0067769D01*
X0191576Y0067891D01*
X0191554Y0068014D01*
X0191537Y0068138D01*
X0191523Y0068262D01*
X0191513Y0068386D01*
X0191507Y0068511D01*
X0191505Y0068636D01*
X0191505Y0033203D02*
X0191507Y0033328D01*
X0191513Y0033453D01*
X0191523Y0033577D01*
X0191537Y0033701D01*
X0191554Y0033825D01*
X0191576Y0033948D01*
X0191602Y0034070D01*
X0191631Y0034192D01*
X0191664Y0034312D01*
X0191702Y0034431D01*
X0191742Y0034550D01*
X0191787Y0034666D01*
X0191835Y0034781D01*
X0191887Y0034895D01*
X0191943Y0035007D01*
X0192002Y0035117D01*
X0192064Y0035225D01*
X0192130Y0035332D01*
X0192199Y0035436D01*
X0192272Y0035537D01*
X0192347Y0035637D01*
X0192426Y0035734D01*
X0192508Y0035828D01*
X0192593Y0035920D01*
X0192680Y0036009D01*
X0192771Y0036095D01*
X0192864Y0036178D01*
X0192960Y0036259D01*
X0193058Y0036336D01*
X0193158Y0036410D01*
X0193261Y0036481D01*
X0193366Y0036548D01*
X0193474Y0036613D01*
X0193583Y0036673D01*
X0193694Y0036731D01*
X0193807Y0036784D01*
X0193921Y0036834D01*
X0194037Y0036881D01*
X0194154Y0036923D01*
X0194273Y0036962D01*
X0194393Y0036998D01*
X0194514Y0037029D01*
X0194636Y0037057D01*
X0194758Y0037080D01*
X0194882Y0037100D01*
X0195006Y0037116D01*
X0195130Y0037128D01*
X0195255Y0037136D01*
X0195380Y0037140D01*
X0195504Y0037140D01*
X0195629Y0037136D01*
X0195754Y0037128D01*
X0195878Y0037116D01*
X0196002Y0037100D01*
X0196126Y0037080D01*
X0196248Y0037057D01*
X0196370Y0037029D01*
X0196491Y0036998D01*
X0196611Y0036962D01*
X0196730Y0036923D01*
X0196847Y0036881D01*
X0196963Y0036834D01*
X0197077Y0036784D01*
X0197190Y0036731D01*
X0197301Y0036673D01*
X0197411Y0036613D01*
X0197518Y0036548D01*
X0197623Y0036481D01*
X0197726Y0036410D01*
X0197826Y0036336D01*
X0197924Y0036259D01*
X0198020Y0036178D01*
X0198113Y0036095D01*
X0198204Y0036009D01*
X0198291Y0035920D01*
X0198376Y0035828D01*
X0198458Y0035734D01*
X0198537Y0035637D01*
X0198612Y0035537D01*
X0198685Y0035436D01*
X0198754Y0035332D01*
X0198820Y0035225D01*
X0198882Y0035117D01*
X0198941Y0035007D01*
X0198997Y0034895D01*
X0199049Y0034781D01*
X0199097Y0034666D01*
X0199142Y0034550D01*
X0199182Y0034431D01*
X0199220Y0034312D01*
X0199253Y0034192D01*
X0199282Y0034070D01*
X0199308Y0033948D01*
X0199330Y0033825D01*
X0199347Y0033701D01*
X0199361Y0033577D01*
X0199371Y0033453D01*
X0199377Y0033328D01*
X0199379Y0033203D01*
X0199377Y0033078D01*
X0199371Y0032953D01*
X0199361Y0032829D01*
X0199347Y0032705D01*
X0199330Y0032581D01*
X0199308Y0032458D01*
X0199282Y0032336D01*
X0199253Y0032214D01*
X0199220Y0032094D01*
X0199182Y0031975D01*
X0199142Y0031856D01*
X0199097Y0031740D01*
X0199049Y0031625D01*
X0198997Y0031511D01*
X0198941Y0031399D01*
X0198882Y0031289D01*
X0198820Y0031181D01*
X0198754Y0031074D01*
X0198685Y0030970D01*
X0198612Y0030869D01*
X0198537Y0030769D01*
X0198458Y0030672D01*
X0198376Y0030578D01*
X0198291Y0030486D01*
X0198204Y0030397D01*
X0198113Y0030311D01*
X0198020Y0030228D01*
X0197924Y0030147D01*
X0197826Y0030070D01*
X0197726Y0029996D01*
X0197623Y0029925D01*
X0197518Y0029858D01*
X0197410Y0029793D01*
X0197301Y0029733D01*
X0197190Y0029675D01*
X0197077Y0029622D01*
X0196963Y0029572D01*
X0196847Y0029525D01*
X0196730Y0029483D01*
X0196611Y0029444D01*
X0196491Y0029408D01*
X0196370Y0029377D01*
X0196248Y0029349D01*
X0196126Y0029326D01*
X0196002Y0029306D01*
X0195878Y0029290D01*
X0195754Y0029278D01*
X0195629Y0029270D01*
X0195504Y0029266D01*
X0195380Y0029266D01*
X0195255Y0029270D01*
X0195130Y0029278D01*
X0195006Y0029290D01*
X0194882Y0029306D01*
X0194758Y0029326D01*
X0194636Y0029349D01*
X0194514Y0029377D01*
X0194393Y0029408D01*
X0194273Y0029444D01*
X0194154Y0029483D01*
X0194037Y0029525D01*
X0193921Y0029572D01*
X0193807Y0029622D01*
X0193694Y0029675D01*
X0193583Y0029733D01*
X0193473Y0029793D01*
X0193366Y0029858D01*
X0193261Y0029925D01*
X0193158Y0029996D01*
X0193058Y0030070D01*
X0192960Y0030147D01*
X0192864Y0030228D01*
X0192771Y0030311D01*
X0192680Y0030397D01*
X0192593Y0030486D01*
X0192508Y0030578D01*
X0192426Y0030672D01*
X0192347Y0030769D01*
X0192272Y0030869D01*
X0192199Y0030970D01*
X0192130Y0031074D01*
X0192064Y0031181D01*
X0192002Y0031289D01*
X0191943Y0031399D01*
X0191887Y0031511D01*
X0191835Y0031625D01*
X0191787Y0031740D01*
X0191742Y0031856D01*
X0191702Y0031975D01*
X0191664Y0032094D01*
X0191631Y0032214D01*
X0191602Y0032336D01*
X0191576Y0032458D01*
X0191554Y0032581D01*
X0191537Y0032705D01*
X0191523Y0032829D01*
X0191513Y0032953D01*
X0191507Y0033078D01*
X0191505Y0033203D01*
X0104005Y0033203D02*
X0104007Y0033328D01*
X0104013Y0033453D01*
X0104023Y0033577D01*
X0104037Y0033701D01*
X0104054Y0033825D01*
X0104076Y0033948D01*
X0104102Y0034070D01*
X0104131Y0034192D01*
X0104164Y0034312D01*
X0104202Y0034431D01*
X0104242Y0034550D01*
X0104287Y0034666D01*
X0104335Y0034781D01*
X0104387Y0034895D01*
X0104443Y0035007D01*
X0104502Y0035117D01*
X0104564Y0035225D01*
X0104630Y0035332D01*
X0104699Y0035436D01*
X0104772Y0035537D01*
X0104847Y0035637D01*
X0104926Y0035734D01*
X0105008Y0035828D01*
X0105093Y0035920D01*
X0105180Y0036009D01*
X0105271Y0036095D01*
X0105364Y0036178D01*
X0105460Y0036259D01*
X0105558Y0036336D01*
X0105658Y0036410D01*
X0105761Y0036481D01*
X0105866Y0036548D01*
X0105974Y0036613D01*
X0106083Y0036673D01*
X0106194Y0036731D01*
X0106307Y0036784D01*
X0106421Y0036834D01*
X0106537Y0036881D01*
X0106654Y0036923D01*
X0106773Y0036962D01*
X0106893Y0036998D01*
X0107014Y0037029D01*
X0107136Y0037057D01*
X0107258Y0037080D01*
X0107382Y0037100D01*
X0107506Y0037116D01*
X0107630Y0037128D01*
X0107755Y0037136D01*
X0107880Y0037140D01*
X0108004Y0037140D01*
X0108129Y0037136D01*
X0108254Y0037128D01*
X0108378Y0037116D01*
X0108502Y0037100D01*
X0108626Y0037080D01*
X0108748Y0037057D01*
X0108870Y0037029D01*
X0108991Y0036998D01*
X0109111Y0036962D01*
X0109230Y0036923D01*
X0109347Y0036881D01*
X0109463Y0036834D01*
X0109577Y0036784D01*
X0109690Y0036731D01*
X0109801Y0036673D01*
X0109911Y0036613D01*
X0110018Y0036548D01*
X0110123Y0036481D01*
X0110226Y0036410D01*
X0110326Y0036336D01*
X0110424Y0036259D01*
X0110520Y0036178D01*
X0110613Y0036095D01*
X0110704Y0036009D01*
X0110791Y0035920D01*
X0110876Y0035828D01*
X0110958Y0035734D01*
X0111037Y0035637D01*
X0111112Y0035537D01*
X0111185Y0035436D01*
X0111254Y0035332D01*
X0111320Y0035225D01*
X0111382Y0035117D01*
X0111441Y0035007D01*
X0111497Y0034895D01*
X0111549Y0034781D01*
X0111597Y0034666D01*
X0111642Y0034550D01*
X0111682Y0034431D01*
X0111720Y0034312D01*
X0111753Y0034192D01*
X0111782Y0034070D01*
X0111808Y0033948D01*
X0111830Y0033825D01*
X0111847Y0033701D01*
X0111861Y0033577D01*
X0111871Y0033453D01*
X0111877Y0033328D01*
X0111879Y0033203D01*
X0111877Y0033078D01*
X0111871Y0032953D01*
X0111861Y0032829D01*
X0111847Y0032705D01*
X0111830Y0032581D01*
X0111808Y0032458D01*
X0111782Y0032336D01*
X0111753Y0032214D01*
X0111720Y0032094D01*
X0111682Y0031975D01*
X0111642Y0031856D01*
X0111597Y0031740D01*
X0111549Y0031625D01*
X0111497Y0031511D01*
X0111441Y0031399D01*
X0111382Y0031289D01*
X0111320Y0031181D01*
X0111254Y0031074D01*
X0111185Y0030970D01*
X0111112Y0030869D01*
X0111037Y0030769D01*
X0110958Y0030672D01*
X0110876Y0030578D01*
X0110791Y0030486D01*
X0110704Y0030397D01*
X0110613Y0030311D01*
X0110520Y0030228D01*
X0110424Y0030147D01*
X0110326Y0030070D01*
X0110226Y0029996D01*
X0110123Y0029925D01*
X0110018Y0029858D01*
X0109910Y0029793D01*
X0109801Y0029733D01*
X0109690Y0029675D01*
X0109577Y0029622D01*
X0109463Y0029572D01*
X0109347Y0029525D01*
X0109230Y0029483D01*
X0109111Y0029444D01*
X0108991Y0029408D01*
X0108870Y0029377D01*
X0108748Y0029349D01*
X0108626Y0029326D01*
X0108502Y0029306D01*
X0108378Y0029290D01*
X0108254Y0029278D01*
X0108129Y0029270D01*
X0108004Y0029266D01*
X0107880Y0029266D01*
X0107755Y0029270D01*
X0107630Y0029278D01*
X0107506Y0029290D01*
X0107382Y0029306D01*
X0107258Y0029326D01*
X0107136Y0029349D01*
X0107014Y0029377D01*
X0106893Y0029408D01*
X0106773Y0029444D01*
X0106654Y0029483D01*
X0106537Y0029525D01*
X0106421Y0029572D01*
X0106307Y0029622D01*
X0106194Y0029675D01*
X0106083Y0029733D01*
X0105973Y0029793D01*
X0105866Y0029858D01*
X0105761Y0029925D01*
X0105658Y0029996D01*
X0105558Y0030070D01*
X0105460Y0030147D01*
X0105364Y0030228D01*
X0105271Y0030311D01*
X0105180Y0030397D01*
X0105093Y0030486D01*
X0105008Y0030578D01*
X0104926Y0030672D01*
X0104847Y0030769D01*
X0104772Y0030869D01*
X0104699Y0030970D01*
X0104630Y0031074D01*
X0104564Y0031181D01*
X0104502Y0031289D01*
X0104443Y0031399D01*
X0104387Y0031511D01*
X0104335Y0031625D01*
X0104287Y0031740D01*
X0104242Y0031856D01*
X0104202Y0031975D01*
X0104164Y0032094D01*
X0104131Y0032214D01*
X0104102Y0032336D01*
X0104076Y0032458D01*
X0104054Y0032581D01*
X0104037Y0032705D01*
X0104023Y0032829D01*
X0104013Y0032953D01*
X0104007Y0033078D01*
X0104005Y0033203D01*
X0104005Y0068636D02*
X0104007Y0068761D01*
X0104013Y0068886D01*
X0104023Y0069010D01*
X0104037Y0069134D01*
X0104054Y0069258D01*
X0104076Y0069381D01*
X0104102Y0069503D01*
X0104131Y0069625D01*
X0104164Y0069745D01*
X0104202Y0069864D01*
X0104242Y0069983D01*
X0104287Y0070099D01*
X0104335Y0070214D01*
X0104387Y0070328D01*
X0104443Y0070440D01*
X0104502Y0070550D01*
X0104564Y0070658D01*
X0104630Y0070765D01*
X0104699Y0070869D01*
X0104772Y0070970D01*
X0104847Y0071070D01*
X0104926Y0071167D01*
X0105008Y0071261D01*
X0105093Y0071353D01*
X0105180Y0071442D01*
X0105271Y0071528D01*
X0105364Y0071611D01*
X0105460Y0071692D01*
X0105558Y0071769D01*
X0105658Y0071843D01*
X0105761Y0071914D01*
X0105866Y0071981D01*
X0105974Y0072046D01*
X0106083Y0072106D01*
X0106194Y0072164D01*
X0106307Y0072217D01*
X0106421Y0072267D01*
X0106537Y0072314D01*
X0106654Y0072356D01*
X0106773Y0072395D01*
X0106893Y0072431D01*
X0107014Y0072462D01*
X0107136Y0072490D01*
X0107258Y0072513D01*
X0107382Y0072533D01*
X0107506Y0072549D01*
X0107630Y0072561D01*
X0107755Y0072569D01*
X0107880Y0072573D01*
X0108004Y0072573D01*
X0108129Y0072569D01*
X0108254Y0072561D01*
X0108378Y0072549D01*
X0108502Y0072533D01*
X0108626Y0072513D01*
X0108748Y0072490D01*
X0108870Y0072462D01*
X0108991Y0072431D01*
X0109111Y0072395D01*
X0109230Y0072356D01*
X0109347Y0072314D01*
X0109463Y0072267D01*
X0109577Y0072217D01*
X0109690Y0072164D01*
X0109801Y0072106D01*
X0109911Y0072046D01*
X0110018Y0071981D01*
X0110123Y0071914D01*
X0110226Y0071843D01*
X0110326Y0071769D01*
X0110424Y0071692D01*
X0110520Y0071611D01*
X0110613Y0071528D01*
X0110704Y0071442D01*
X0110791Y0071353D01*
X0110876Y0071261D01*
X0110958Y0071167D01*
X0111037Y0071070D01*
X0111112Y0070970D01*
X0111185Y0070869D01*
X0111254Y0070765D01*
X0111320Y0070658D01*
X0111382Y0070550D01*
X0111441Y0070440D01*
X0111497Y0070328D01*
X0111549Y0070214D01*
X0111597Y0070099D01*
X0111642Y0069983D01*
X0111682Y0069864D01*
X0111720Y0069745D01*
X0111753Y0069625D01*
X0111782Y0069503D01*
X0111808Y0069381D01*
X0111830Y0069258D01*
X0111847Y0069134D01*
X0111861Y0069010D01*
X0111871Y0068886D01*
X0111877Y0068761D01*
X0111879Y0068636D01*
X0111877Y0068511D01*
X0111871Y0068386D01*
X0111861Y0068262D01*
X0111847Y0068138D01*
X0111830Y0068014D01*
X0111808Y0067891D01*
X0111782Y0067769D01*
X0111753Y0067647D01*
X0111720Y0067527D01*
X0111682Y0067408D01*
X0111642Y0067289D01*
X0111597Y0067173D01*
X0111549Y0067058D01*
X0111497Y0066944D01*
X0111441Y0066832D01*
X0111382Y0066722D01*
X0111320Y0066614D01*
X0111254Y0066507D01*
X0111185Y0066403D01*
X0111112Y0066302D01*
X0111037Y0066202D01*
X0110958Y0066105D01*
X0110876Y0066011D01*
X0110791Y0065919D01*
X0110704Y0065830D01*
X0110613Y0065744D01*
X0110520Y0065661D01*
X0110424Y0065580D01*
X0110326Y0065503D01*
X0110226Y0065429D01*
X0110123Y0065358D01*
X0110018Y0065291D01*
X0109910Y0065226D01*
X0109801Y0065166D01*
X0109690Y0065108D01*
X0109577Y0065055D01*
X0109463Y0065005D01*
X0109347Y0064958D01*
X0109230Y0064916D01*
X0109111Y0064877D01*
X0108991Y0064841D01*
X0108870Y0064810D01*
X0108748Y0064782D01*
X0108626Y0064759D01*
X0108502Y0064739D01*
X0108378Y0064723D01*
X0108254Y0064711D01*
X0108129Y0064703D01*
X0108004Y0064699D01*
X0107880Y0064699D01*
X0107755Y0064703D01*
X0107630Y0064711D01*
X0107506Y0064723D01*
X0107382Y0064739D01*
X0107258Y0064759D01*
X0107136Y0064782D01*
X0107014Y0064810D01*
X0106893Y0064841D01*
X0106773Y0064877D01*
X0106654Y0064916D01*
X0106537Y0064958D01*
X0106421Y0065005D01*
X0106307Y0065055D01*
X0106194Y0065108D01*
X0106083Y0065166D01*
X0105973Y0065226D01*
X0105866Y0065291D01*
X0105761Y0065358D01*
X0105658Y0065429D01*
X0105558Y0065503D01*
X0105460Y0065580D01*
X0105364Y0065661D01*
X0105271Y0065744D01*
X0105180Y0065830D01*
X0105093Y0065919D01*
X0105008Y0066011D01*
X0104926Y0066105D01*
X0104847Y0066202D01*
X0104772Y0066302D01*
X0104699Y0066403D01*
X0104630Y0066507D01*
X0104564Y0066614D01*
X0104502Y0066722D01*
X0104443Y0066832D01*
X0104387Y0066944D01*
X0104335Y0067058D01*
X0104287Y0067173D01*
X0104242Y0067289D01*
X0104202Y0067408D01*
X0104164Y0067527D01*
X0104131Y0067647D01*
X0104102Y0067769D01*
X0104076Y0067891D01*
X0104054Y0068014D01*
X0104037Y0068138D01*
X0104023Y0068262D01*
X0104013Y0068386D01*
X0104007Y0068511D01*
X0104005Y0068636D01*
D17*
X0082351Y0050919D02*
X0082359Y0051547D01*
X0082382Y0052175D01*
X0082420Y0052802D01*
X0082474Y0053427D01*
X0082543Y0054052D01*
X0082628Y0054674D01*
X0082728Y0055294D01*
X0082843Y0055912D01*
X0082973Y0056526D01*
X0083118Y0057137D01*
X0083278Y0057744D01*
X0083453Y0058348D01*
X0083643Y0058946D01*
X0083847Y0059540D01*
X0084066Y0060129D01*
X0084299Y0060712D01*
X0084546Y0061290D01*
X0084808Y0061861D01*
X0085083Y0062425D01*
X0085373Y0062983D01*
X0085676Y0063533D01*
X0085992Y0064075D01*
X0086321Y0064610D01*
X0086664Y0065137D01*
X0087019Y0065655D01*
X0087387Y0066164D01*
X0087767Y0066663D01*
X0088160Y0067154D01*
X0088564Y0067634D01*
X0088980Y0068105D01*
X0089408Y0068565D01*
X0089846Y0069015D01*
X0090296Y0069453D01*
X0090756Y0069881D01*
X0091227Y0070297D01*
X0091707Y0070701D01*
X0092198Y0071094D01*
X0092697Y0071474D01*
X0093206Y0071842D01*
X0093724Y0072197D01*
X0094251Y0072540D01*
X0094786Y0072869D01*
X0095328Y0073185D01*
X0095878Y0073488D01*
X0096436Y0073778D01*
X0097000Y0074053D01*
X0097571Y0074315D01*
X0098149Y0074562D01*
X0098732Y0074795D01*
X0099321Y0075014D01*
X0099915Y0075218D01*
X0100513Y0075408D01*
X0101117Y0075583D01*
X0101724Y0075743D01*
X0102335Y0075888D01*
X0102949Y0076018D01*
X0103567Y0076133D01*
X0104187Y0076233D01*
X0104809Y0076318D01*
X0105434Y0076387D01*
X0106059Y0076441D01*
X0106686Y0076479D01*
X0107314Y0076502D01*
X0107942Y0076510D01*
X0108570Y0076502D01*
X0109198Y0076479D01*
X0109825Y0076441D01*
X0110450Y0076387D01*
X0111075Y0076318D01*
X0111697Y0076233D01*
X0112317Y0076133D01*
X0112935Y0076018D01*
X0113549Y0075888D01*
X0114160Y0075743D01*
X0114767Y0075583D01*
X0115371Y0075408D01*
X0115969Y0075218D01*
X0116563Y0075014D01*
X0117152Y0074795D01*
X0117735Y0074562D01*
X0118313Y0074315D01*
X0118884Y0074053D01*
X0119448Y0073778D01*
X0120006Y0073488D01*
X0120556Y0073185D01*
X0121098Y0072869D01*
X0121633Y0072540D01*
X0122160Y0072197D01*
X0122678Y0071842D01*
X0123187Y0071474D01*
X0123686Y0071094D01*
X0124177Y0070701D01*
X0124657Y0070297D01*
X0125128Y0069881D01*
X0125588Y0069453D01*
X0126038Y0069015D01*
X0126476Y0068565D01*
X0126904Y0068105D01*
X0127320Y0067634D01*
X0127724Y0067154D01*
X0128117Y0066663D01*
X0128497Y0066164D01*
X0128865Y0065655D01*
X0129220Y0065137D01*
X0129563Y0064610D01*
X0129892Y0064075D01*
X0130208Y0063533D01*
X0130511Y0062983D01*
X0130801Y0062425D01*
X0131076Y0061861D01*
X0131338Y0061290D01*
X0131585Y0060712D01*
X0131818Y0060129D01*
X0132037Y0059540D01*
X0132241Y0058946D01*
X0132431Y0058348D01*
X0132606Y0057744D01*
X0132766Y0057137D01*
X0132911Y0056526D01*
X0133041Y0055912D01*
X0133156Y0055294D01*
X0133256Y0054674D01*
X0133341Y0054052D01*
X0133410Y0053427D01*
X0133464Y0052802D01*
X0133502Y0052175D01*
X0133525Y0051547D01*
X0133533Y0050919D01*
X0133525Y0050291D01*
X0133502Y0049663D01*
X0133464Y0049036D01*
X0133410Y0048411D01*
X0133341Y0047786D01*
X0133256Y0047164D01*
X0133156Y0046544D01*
X0133041Y0045926D01*
X0132911Y0045312D01*
X0132766Y0044701D01*
X0132606Y0044094D01*
X0132431Y0043490D01*
X0132241Y0042892D01*
X0132037Y0042298D01*
X0131818Y0041709D01*
X0131585Y0041126D01*
X0131338Y0040548D01*
X0131076Y0039977D01*
X0130801Y0039413D01*
X0130511Y0038855D01*
X0130208Y0038305D01*
X0129892Y0037763D01*
X0129563Y0037228D01*
X0129220Y0036701D01*
X0128865Y0036183D01*
X0128497Y0035674D01*
X0128117Y0035175D01*
X0127724Y0034684D01*
X0127320Y0034204D01*
X0126904Y0033733D01*
X0126476Y0033273D01*
X0126038Y0032823D01*
X0125588Y0032385D01*
X0125128Y0031957D01*
X0124657Y0031541D01*
X0124177Y0031137D01*
X0123686Y0030744D01*
X0123187Y0030364D01*
X0122678Y0029996D01*
X0122160Y0029641D01*
X0121633Y0029298D01*
X0121098Y0028969D01*
X0120556Y0028653D01*
X0120006Y0028350D01*
X0119448Y0028060D01*
X0118884Y0027785D01*
X0118313Y0027523D01*
X0117735Y0027276D01*
X0117152Y0027043D01*
X0116563Y0026824D01*
X0115969Y0026620D01*
X0115371Y0026430D01*
X0114767Y0026255D01*
X0114160Y0026095D01*
X0113549Y0025950D01*
X0112935Y0025820D01*
X0112317Y0025705D01*
X0111697Y0025605D01*
X0111075Y0025520D01*
X0110450Y0025451D01*
X0109825Y0025397D01*
X0109198Y0025359D01*
X0108570Y0025336D01*
X0107942Y0025328D01*
X0107314Y0025336D01*
X0106686Y0025359D01*
X0106059Y0025397D01*
X0105434Y0025451D01*
X0104809Y0025520D01*
X0104187Y0025605D01*
X0103567Y0025705D01*
X0102949Y0025820D01*
X0102335Y0025950D01*
X0101724Y0026095D01*
X0101117Y0026255D01*
X0100513Y0026430D01*
X0099915Y0026620D01*
X0099321Y0026824D01*
X0098732Y0027043D01*
X0098149Y0027276D01*
X0097571Y0027523D01*
X0097000Y0027785D01*
X0096436Y0028060D01*
X0095878Y0028350D01*
X0095328Y0028653D01*
X0094786Y0028969D01*
X0094251Y0029298D01*
X0093724Y0029641D01*
X0093206Y0029996D01*
X0092697Y0030364D01*
X0092198Y0030744D01*
X0091707Y0031137D01*
X0091227Y0031541D01*
X0090756Y0031957D01*
X0090296Y0032385D01*
X0089846Y0032823D01*
X0089408Y0033273D01*
X0088980Y0033733D01*
X0088564Y0034204D01*
X0088160Y0034684D01*
X0087767Y0035175D01*
X0087387Y0035674D01*
X0087019Y0036183D01*
X0086664Y0036701D01*
X0086321Y0037228D01*
X0085992Y0037763D01*
X0085676Y0038305D01*
X0085373Y0038855D01*
X0085083Y0039413D01*
X0084808Y0039977D01*
X0084546Y0040548D01*
X0084299Y0041126D01*
X0084066Y0041709D01*
X0083847Y0042298D01*
X0083643Y0042892D01*
X0083453Y0043490D01*
X0083278Y0044094D01*
X0083118Y0044701D01*
X0082973Y0045312D01*
X0082843Y0045926D01*
X0082728Y0046544D01*
X0082628Y0047164D01*
X0082543Y0047786D01*
X0082474Y0048411D01*
X0082420Y0049036D01*
X0082382Y0049663D01*
X0082359Y0050291D01*
X0082351Y0050919D01*
X0084320Y0030081D02*
X0087104Y0027297D01*
X0128780Y0027297D01*
X0131564Y0030081D01*
X0131564Y0071757D01*
X0128780Y0074541D01*
X0087104Y0074541D01*
X0084320Y0071757D01*
X0084320Y0030081D01*
X0171820Y0030081D02*
X0171820Y0071757D01*
X0174604Y0074541D01*
X0216280Y0074541D01*
X0219064Y0071757D01*
X0219064Y0030081D01*
X0216280Y0027297D01*
X0174604Y0027297D01*
X0171820Y0030081D01*
X0169851Y0050919D02*
X0169859Y0051547D01*
X0169882Y0052175D01*
X0169920Y0052802D01*
X0169974Y0053427D01*
X0170043Y0054052D01*
X0170128Y0054674D01*
X0170228Y0055294D01*
X0170343Y0055912D01*
X0170473Y0056526D01*
X0170618Y0057137D01*
X0170778Y0057744D01*
X0170953Y0058348D01*
X0171143Y0058946D01*
X0171347Y0059540D01*
X0171566Y0060129D01*
X0171799Y0060712D01*
X0172046Y0061290D01*
X0172308Y0061861D01*
X0172583Y0062425D01*
X0172873Y0062983D01*
X0173176Y0063533D01*
X0173492Y0064075D01*
X0173821Y0064610D01*
X0174164Y0065137D01*
X0174519Y0065655D01*
X0174887Y0066164D01*
X0175267Y0066663D01*
X0175660Y0067154D01*
X0176064Y0067634D01*
X0176480Y0068105D01*
X0176908Y0068565D01*
X0177346Y0069015D01*
X0177796Y0069453D01*
X0178256Y0069881D01*
X0178727Y0070297D01*
X0179207Y0070701D01*
X0179698Y0071094D01*
X0180197Y0071474D01*
X0180706Y0071842D01*
X0181224Y0072197D01*
X0181751Y0072540D01*
X0182286Y0072869D01*
X0182828Y0073185D01*
X0183378Y0073488D01*
X0183936Y0073778D01*
X0184500Y0074053D01*
X0185071Y0074315D01*
X0185649Y0074562D01*
X0186232Y0074795D01*
X0186821Y0075014D01*
X0187415Y0075218D01*
X0188013Y0075408D01*
X0188617Y0075583D01*
X0189224Y0075743D01*
X0189835Y0075888D01*
X0190449Y0076018D01*
X0191067Y0076133D01*
X0191687Y0076233D01*
X0192309Y0076318D01*
X0192934Y0076387D01*
X0193559Y0076441D01*
X0194186Y0076479D01*
X0194814Y0076502D01*
X0195442Y0076510D01*
X0196070Y0076502D01*
X0196698Y0076479D01*
X0197325Y0076441D01*
X0197950Y0076387D01*
X0198575Y0076318D01*
X0199197Y0076233D01*
X0199817Y0076133D01*
X0200435Y0076018D01*
X0201049Y0075888D01*
X0201660Y0075743D01*
X0202267Y0075583D01*
X0202871Y0075408D01*
X0203469Y0075218D01*
X0204063Y0075014D01*
X0204652Y0074795D01*
X0205235Y0074562D01*
X0205813Y0074315D01*
X0206384Y0074053D01*
X0206948Y0073778D01*
X0207506Y0073488D01*
X0208056Y0073185D01*
X0208598Y0072869D01*
X0209133Y0072540D01*
X0209660Y0072197D01*
X0210178Y0071842D01*
X0210687Y0071474D01*
X0211186Y0071094D01*
X0211677Y0070701D01*
X0212157Y0070297D01*
X0212628Y0069881D01*
X0213088Y0069453D01*
X0213538Y0069015D01*
X0213976Y0068565D01*
X0214404Y0068105D01*
X0214820Y0067634D01*
X0215224Y0067154D01*
X0215617Y0066663D01*
X0215997Y0066164D01*
X0216365Y0065655D01*
X0216720Y0065137D01*
X0217063Y0064610D01*
X0217392Y0064075D01*
X0217708Y0063533D01*
X0218011Y0062983D01*
X0218301Y0062425D01*
X0218576Y0061861D01*
X0218838Y0061290D01*
X0219085Y0060712D01*
X0219318Y0060129D01*
X0219537Y0059540D01*
X0219741Y0058946D01*
X0219931Y0058348D01*
X0220106Y0057744D01*
X0220266Y0057137D01*
X0220411Y0056526D01*
X0220541Y0055912D01*
X0220656Y0055294D01*
X0220756Y0054674D01*
X0220841Y0054052D01*
X0220910Y0053427D01*
X0220964Y0052802D01*
X0221002Y0052175D01*
X0221025Y0051547D01*
X0221033Y0050919D01*
X0221025Y0050291D01*
X0221002Y0049663D01*
X0220964Y0049036D01*
X0220910Y0048411D01*
X0220841Y0047786D01*
X0220756Y0047164D01*
X0220656Y0046544D01*
X0220541Y0045926D01*
X0220411Y0045312D01*
X0220266Y0044701D01*
X0220106Y0044094D01*
X0219931Y0043490D01*
X0219741Y0042892D01*
X0219537Y0042298D01*
X0219318Y0041709D01*
X0219085Y0041126D01*
X0218838Y0040548D01*
X0218576Y0039977D01*
X0218301Y0039413D01*
X0218011Y0038855D01*
X0217708Y0038305D01*
X0217392Y0037763D01*
X0217063Y0037228D01*
X0216720Y0036701D01*
X0216365Y0036183D01*
X0215997Y0035674D01*
X0215617Y0035175D01*
X0215224Y0034684D01*
X0214820Y0034204D01*
X0214404Y0033733D01*
X0213976Y0033273D01*
X0213538Y0032823D01*
X0213088Y0032385D01*
X0212628Y0031957D01*
X0212157Y0031541D01*
X0211677Y0031137D01*
X0211186Y0030744D01*
X0210687Y0030364D01*
X0210178Y0029996D01*
X0209660Y0029641D01*
X0209133Y0029298D01*
X0208598Y0028969D01*
X0208056Y0028653D01*
X0207506Y0028350D01*
X0206948Y0028060D01*
X0206384Y0027785D01*
X0205813Y0027523D01*
X0205235Y0027276D01*
X0204652Y0027043D01*
X0204063Y0026824D01*
X0203469Y0026620D01*
X0202871Y0026430D01*
X0202267Y0026255D01*
X0201660Y0026095D01*
X0201049Y0025950D01*
X0200435Y0025820D01*
X0199817Y0025705D01*
X0199197Y0025605D01*
X0198575Y0025520D01*
X0197950Y0025451D01*
X0197325Y0025397D01*
X0196698Y0025359D01*
X0196070Y0025336D01*
X0195442Y0025328D01*
X0194814Y0025336D01*
X0194186Y0025359D01*
X0193559Y0025397D01*
X0192934Y0025451D01*
X0192309Y0025520D01*
X0191687Y0025605D01*
X0191067Y0025705D01*
X0190449Y0025820D01*
X0189835Y0025950D01*
X0189224Y0026095D01*
X0188617Y0026255D01*
X0188013Y0026430D01*
X0187415Y0026620D01*
X0186821Y0026824D01*
X0186232Y0027043D01*
X0185649Y0027276D01*
X0185071Y0027523D01*
X0184500Y0027785D01*
X0183936Y0028060D01*
X0183378Y0028350D01*
X0182828Y0028653D01*
X0182286Y0028969D01*
X0181751Y0029298D01*
X0181224Y0029641D01*
X0180706Y0029996D01*
X0180197Y0030364D01*
X0179698Y0030744D01*
X0179207Y0031137D01*
X0178727Y0031541D01*
X0178256Y0031957D01*
X0177796Y0032385D01*
X0177346Y0032823D01*
X0176908Y0033273D01*
X0176480Y0033733D01*
X0176064Y0034204D01*
X0175660Y0034684D01*
X0175267Y0035175D01*
X0174887Y0035674D01*
X0174519Y0036183D01*
X0174164Y0036701D01*
X0173821Y0037228D01*
X0173492Y0037763D01*
X0173176Y0038305D01*
X0172873Y0038855D01*
X0172583Y0039413D01*
X0172308Y0039977D01*
X0172046Y0040548D01*
X0171799Y0041126D01*
X0171566Y0041709D01*
X0171347Y0042298D01*
X0171143Y0042892D01*
X0170953Y0043490D01*
X0170778Y0044094D01*
X0170618Y0044701D01*
X0170473Y0045312D01*
X0170343Y0045926D01*
X0170228Y0046544D01*
X0170128Y0047164D01*
X0170043Y0047786D01*
X0169974Y0048411D01*
X0169920Y0049036D01*
X0169882Y0049663D01*
X0169859Y0050291D01*
X0169851Y0050919D01*
M02*
